<svg width="359" height="264" viewBox="0 0 359 264" fill="none" xmlns="http://www.w3.org/2000/svg">
<rect width="359" height="264" fill="#0A0605"/>
<path d="M359 0H0V264H359V0Z" fill="url(#paint0_radial)"/>
<path d="M327.816 241.166H293.704C293.196 241.166 292.708 240.985 292.348 240.662C291.989 240.339 291.786 239.901 291.786 239.445C291.786 238.989 291.989 238.552 292.348 238.229C292.708 237.906 293.196 237.725 293.704 237.725H327.816C328.325 237.725 328.812 237.906 329.172 238.229C329.531 238.552 329.734 238.989 329.734 239.445C329.734 239.901 329.531 240.339 329.172 240.662C328.812 240.985 328.325 241.166 327.816 241.166Z" fill="white"/>
<path d="M327.849 248.621H269.523C269.023 248.621 268.544 248.409 268.191 248.033C267.837 247.656 267.638 247.146 267.638 246.614C267.638 246.081 267.837 245.571 268.191 245.194C268.544 244.818 269.023 244.606 269.523 244.606H327.849C328.349 244.606 328.828 244.818 329.182 245.194C329.535 245.571 329.734 246.081 329.734 246.614C329.734 247.146 329.535 247.656 329.182 248.033C328.828 248.409 328.349 248.621 327.849 248.621Z" fill="#884E88"/>
<path d="M285.871 233.711H252.276C251.775 233.71 251.295 233.529 250.942 233.206C250.588 232.884 250.389 232.447 250.389 231.991C250.389 231.535 250.588 231.097 250.942 230.775C251.295 230.453 251.775 230.271 252.276 230.27H285.871C286.119 230.27 286.365 230.314 286.594 230.401C286.823 230.487 287.032 230.613 287.208 230.774C287.383 230.933 287.523 231.123 287.618 231.331C287.713 231.54 287.762 231.765 287.762 231.991C287.762 232.217 287.713 232.441 287.618 232.65C287.523 232.858 287.383 233.048 287.208 233.208C287.032 233.368 286.823 233.494 286.594 233.58C286.365 233.667 286.119 233.711 285.871 233.711Z" fill="#12BCFF"/>
<path d="M304.286 234.284H294.811C294.314 234.284 293.837 234.073 293.486 233.696C293.134 233.32 292.936 232.81 292.936 232.277C292.936 231.745 293.134 231.235 293.486 230.858C293.837 230.482 294.314 230.27 294.811 230.27H304.286C304.782 230.27 305.26 230.482 305.611 230.858C305.963 231.235 306.161 231.745 306.161 232.277C306.161 232.81 305.963 233.32 305.611 233.696C305.26 234.073 304.782 234.284 304.286 234.284Z" fill="#00CF84"/>
<path d="M144.055 264C184.823 264 217.871 231.038 217.871 190.378C217.871 149.718 184.823 116.757 144.055 116.757C103.288 116.757 70.2391 149.718 70.2391 190.378C70.2391 231.038 103.288 264 144.055 264Z" fill="#1F92FF" fill-opacity="0.12"/>
<path d="M241.957 99.408H241.423V84.9237C241.423 83.8229 241.204 82.7325 240.778 81.7155C240.353 80.6984 239.73 79.7741 238.944 78.9957C238.158 78.2173 237.225 77.5998 236.198 77.1788C235.171 76.7572 234.071 76.5405 232.959 76.5405H201.976C199.731 76.5405 197.578 77.424 195.991 78.9957C194.404 80.568 193.512 82.7001 193.512 84.9237V164.386C193.512 165.487 193.731 166.577 194.157 167.594C194.582 168.611 195.205 169.535 195.991 170.314C196.777 171.092 197.71 171.71 198.737 172.131C199.764 172.552 200.864 172.769 201.976 172.769H232.959C235.204 172.769 237.356 171.886 238.944 170.314C240.531 168.741 241.423 166.609 241.423 164.386V109.718H241.957V99.408Z" fill="#00CF84"/>
<path d="M233.301 78.7213H229.256C229.442 79.1734 229.513 79.6631 229.463 80.1483C229.413 80.6335 229.243 81.0992 228.968 81.504C228.693 81.9088 228.322 82.2402 227.888 82.4698C227.453 82.6995 226.968 82.8195 226.476 82.8195H208.726C208.234 82.8195 207.748 82.6995 207.314 82.4698C206.88 82.2402 206.508 81.9088 206.234 81.504C205.959 81.0992 205.789 80.6335 205.739 80.1483C205.689 79.6631 205.76 79.1734 205.946 78.7213H202.168C201.339 78.7213 200.516 78.8835 199.75 79.1981C198.983 79.5127 198.286 79.9738 197.699 80.555C197.112 81.1362 196.646 81.8264 196.329 82.5859C196.011 83.3455 195.848 84.1596 195.848 84.9821V164.328C195.848 165.15 196.011 165.964 196.329 166.723C196.646 167.483 197.112 168.173 197.699 168.754C198.286 169.336 198.982 169.797 199.75 170.111C200.516 170.426 201.339 170.588 202.168 170.588H233.301C234.13 170.588 234.952 170.426 235.719 170.111C236.486 169.797 237.183 169.336 237.77 168.754C238.357 168.173 238.822 167.483 239.14 166.723C239.458 165.964 239.621 165.15 239.621 164.328V84.9821C239.621 84.1596 239.458 83.3455 239.14 82.5859C238.822 81.8264 238.357 81.1362 237.77 80.555C237.183 79.9738 236.486 79.5127 235.719 79.1981C234.952 78.8835 234.13 78.7213 233.301 78.7213Z" fill="#1D1D1F"/>
<path d="M251.887 172.783H183.582C183.534 172.783 183.488 172.764 183.455 172.731C183.421 172.698 183.402 172.652 183.402 172.605C183.402 172.558 183.421 172.513 183.455 172.48C183.488 172.446 183.534 172.428 183.582 172.428H251.887C251.935 172.428 251.98 172.446 252.014 172.48C252.048 172.513 252.067 172.558 252.067 172.605C252.067 172.652 252.048 172.698 252.014 172.731C251.98 172.764 251.935 172.783 251.887 172.783Z" fill="#CBCBCB"/>
<path d="M307.867 174.257C308.051 173.962 308.268 173.688 308.513 173.441C308.614 173.337 308.721 173.238 308.831 173.144C309.501 172.554 310.316 172.151 311.195 171.976C312.074 171.802 312.984 171.863 313.831 172.152C314.678 172.442 315.432 172.949 316.016 173.623C316.599 174.297 316.991 175.112 317.15 175.986C317.89 173.277 315.965 170.61 314.03 168.56C312.093 166.512 309.881 164.265 309.892 161.458C309.897 159.896 310.668 158.503 311.833 157.47C311.869 157.439 311.905 157.408 311.942 157.377C313.349 156.182 315.16 155.557 317.013 155.627C320.455 155.809 323.46 158.101 325.548 160.819C328.907 165.191 330.38 171.33 328.028 176.308C325.959 180.686 321.547 183.286 317.044 185.376C316.415 185.668 315.787 185.951 315.161 186.226C315.157 186.226 315.153 186.23 315.149 186.231C315.118 186.244 315.088 186.257 315.06 186.27C314.931 186.327 314.801 186.383 314.673 186.439L314.732 186.477L314.918 186.596C314.853 186.558 314.79 186.52 314.726 186.482C314.707 186.47 314.687 186.459 314.667 186.448C312.456 185.133 310.214 183.743 308.686 181.691C307.101 179.561 306.464 176.509 307.867 174.257Z" fill="#F1F1F1"/>
<path d="M322.622 169.309C323.112 170.412 323.436 171.581 323.586 172.777C323.704 173.844 323.659 174.922 323.455 175.975C323.016 178.141 322.058 180.17 320.662 181.892C319.609 183.2 318.393 184.371 317.044 185.376C316.415 185.668 315.787 185.951 315.161 186.226C315.157 186.226 315.153 186.23 315.149 186.231C315.118 186.244 315.088 186.257 315.06 186.27C314.931 186.327 314.801 186.383 314.673 186.439L314.732 186.477L314.918 186.596C314.853 186.558 314.79 186.52 314.726 186.482C314.707 186.47 314.686 186.459 314.667 186.448C315.155 184.762 315.226 182.984 314.876 181.265C314.526 179.546 313.766 177.935 312.658 176.567C311.544 175.216 310.124 174.145 308.513 173.441C308.615 173.337 308.721 173.239 308.831 173.144C309.452 173.426 310.046 173.762 310.607 174.148C312.612 175.52 314.119 177.497 314.902 179.783C315.601 181.858 315.689 184.088 315.154 186.209C315.265 186.137 315.376 186.064 315.485 185.99C317.545 184.614 319.444 182.962 320.874 180.935C322.108 179.222 322.897 177.235 323.173 175.149C323.447 172.87 322.871 170.629 321.844 168.595C320.709 166.421 319.28 164.409 317.595 162.617C315.904 160.776 313.99 159.147 311.899 157.766C311.851 157.734 311.819 157.686 311.806 157.631C311.794 157.576 311.804 157.518 311.833 157.47C311.855 157.426 311.894 157.393 311.942 157.377C311.966 157.371 311.991 157.371 312.015 157.376C312.039 157.38 312.062 157.391 312.082 157.406C312.34 157.576 312.595 157.748 312.848 157.925C314.955 159.403 316.868 161.133 318.544 163.078C320.162 164.952 321.636 167.034 322.622 169.309Z" fill="white"/>
<path d="M277.532 83.5031C279.308 83.5031 280.747 82.0774 280.747 80.3183C280.747 78.5598 279.308 77.1341 277.532 77.1341C275.756 77.1341 274.317 78.5598 274.317 80.3183C274.317 82.0774 275.756 83.5031 277.532 83.5031Z" fill="#F1F1F1"/>
<path d="M317.511 126.119C318.594 126.119 319.472 125.25 319.472 124.178C319.472 123.106 318.594 122.237 317.511 122.237C316.429 122.237 315.551 123.106 315.551 124.178C315.551 125.25 316.429 126.119 317.511 126.119Z" fill="#F1F1F1"/>
<path d="M260.142 131.447C261.225 131.447 262.102 130.578 262.102 129.505C262.102 128.433 261.225 127.564 260.142 127.564C259.059 127.564 258.181 128.433 258.181 129.505C258.181 130.578 259.059 131.447 260.142 131.447Z" fill="#F1F1F1"/>
<path d="M261.249 186.811H329.554C329.602 186.811 329.648 186.792 329.681 186.759C329.715 186.725 329.734 186.68 329.734 186.633C329.734 186.586 329.715 186.541 329.681 186.508C329.648 186.474 329.602 186.455 329.554 186.455H261.249C261.201 186.455 261.156 186.474 261.122 186.508C261.088 186.541 261.069 186.586 261.069 186.633C261.069 186.68 261.088 186.725 261.122 186.759C261.156 186.792 261.201 186.811 261.249 186.811Z" fill="#CBCBCB"/>
<path d="M322.017 93.6999C322.106 93.0694 321.959 92.4279 321.604 91.8973C321.248 91.3667 320.707 90.984 320.086 90.8212C319.464 90.659 318.804 90.7278 318.229 91.0151C317.656 91.3031 317.208 91.789 316.972 92.3812L311.429 98.675L313.056 103.174L318.63 95.8203C318.994 95.9351 319.379 95.9702 319.758 95.9228C320.136 95.8748 320.5 95.7451 320.823 95.5427C321.146 95.341 321.42 95.0711 321.626 94.7526C321.832 94.4341 321.966 94.0748 322.017 93.6999Z" fill="#FFB7B7"/>
<path d="M299.041 118.189L317.44 98.7399L314.958 94.8324L291.881 114.163L299.041 118.189Z" fill="#3F3D56"/>
<path d="M294.934 106.372C298.499 106.372 301.388 103.51 301.388 99.9795C301.388 96.4489 298.499 93.587 294.934 93.587C291.369 93.587 288.48 96.4489 288.48 99.9795C288.48 103.51 291.369 106.372 294.934 106.372Z" fill="#2F2E41"/>
<path d="M295.452 96.3684C296.842 94.9738 298.522 93.8971 300.376 93.2147C301.566 92.7782 302.862 92.5083 304.106 92.7568C305.35 93.0045 306.527 93.8569 306.875 95.0659C307.158 96.0551 306.865 97.1196 306.425 98.0504C305.984 98.9812 305.396 99.8445 305.04 100.81C304.677 101.795 304.567 102.854 304.722 103.892C304.877 104.929 305.29 105.913 305.926 106.751C306.562 107.591 307.399 108.259 308.361 108.696C309.324 109.133 310.381 109.326 311.438 109.255C310.216 109.418 309.089 109.987 307.894 110.29C306.698 110.593 305.288 110.572 304.4 109.724C303.46 108.827 303.441 107.368 303.487 106.076C303.555 104.156 303.622 102.235 303.69 100.315C303.724 99.336 303.754 98.3248 303.397 97.4108C303.04 96.4969 302.193 95.6964 301.204 95.7049C300.454 95.7107 299.79 96.1609 299.189 96.6045C298.587 97.0482 297.951 97.5217 297.204 97.5879C296.457 97.6534 295.604 97.1059 295.66 96.3658L295.452 96.3684Z" fill="#2F2E41"/>
<path d="M270.421 142.902C269.801 143.072 269.14 143.012 268.563 142.732C267.985 142.452 267.531 141.972 267.287 141.382C267.043 140.793 267.026 140.135 267.239 139.534C267.452 138.933 267.88 138.431 268.442 138.121L274.017 131.856L278.734 132.865L272.101 139.3C272.264 139.642 272.349 140.015 272.35 140.394C272.352 140.772 272.27 141.146 272.11 141.489C271.95 141.833 271.716 142.137 271.424 142.382C271.131 142.626 270.789 142.803 270.421 142.902Z" fill="#FFB7B7"/>
<path d="M288.765 120.472L274.868 137.75L270.632 135.823L286.967 110.636L288.765 120.472Z" fill="#3F3D56"/>
<path d="M277.677 172.643L274.364 172.591L274.763 183.772H277.676L277.677 172.643Z" fill="#FFB7B7"/>
<path d="M278.419 182.83H272.682C271.712 182.83 270.782 183.211 270.096 183.891C269.411 184.57 269.026 185.491 269.026 186.451V186.569H278.419V182.83Z" fill="#2F2E41"/>
<path d="M299.606 169.677L295.988 171.978L303.225 180.601L305.676 179.043L299.606 169.677Z" fill="#FFB7B7"/>
<path d="M305.787 177.852L300.96 180.922C300.143 181.441 299.569 182.26 299.362 183.198C299.156 184.136 299.334 185.118 299.858 185.926L299.922 186.025L307.827 180.999L305.787 177.852Z" fill="#2F2E41"/>
<path d="M300.895 135.536C300.895 135.536 292.856 109.091 290.272 108.734C287.688 108.376 283.526 115.519 283.526 115.519C278.129 122.34 272.564 144.431 272.564 144.431C272.564 144.431 281.842 145.006 288.623 148.58C295.404 152.154 303.408 148.399 303.408 148.399L300.895 135.536Z" fill="#3F3D56"/>
<path opacity="0.1" d="M300.895 135.536C300.895 135.536 292.856 109.091 290.272 108.734C287.688 108.376 284.584 115.592 284.584 115.592C281.894 126.601 272.564 144.431 272.564 144.431C272.564 144.431 281.842 145.006 288.623 148.58C295.404 152.154 303.408 148.399 303.408 148.399L300.895 135.536Z" fill="black"/>
<path d="M294.299 127.624V140.912L295.878 160.162L303.767 174.722L300.002 177.386L289.245 163.535L284.99 149.783L278.309 180.227L273.289 179.872L276.775 137.661L283.391 125.78L294.299 127.624Z" fill="#2F2E41"/>
<path d="M286.194 114.771C283.684 117.257 286.015 119.921 286.015 119.921L283.146 126.313L294.441 129.331L298.388 111.863L295.699 109.022C290.32 108.844 290.318 108.734 290.318 108.734C289.375 109.647 286.194 114.771 286.194 114.771Z" fill="#6FDA72"/>
<path d="M298.843 110.053C298.33 109.678 297.747 109.408 297.128 109.257C296.508 109.107 295.865 109.08 295.235 109.177C294.605 109.275 294.001 109.496 293.458 109.826C292.915 110.157 292.443 110.591 292.07 111.103C289.23 115.019 286.605 121.342 290.223 129.228C296.031 141.89 301.086 148.373 303.141 148.372C303.231 148.373 303.32 148.358 303.405 148.33C304.669 147.906 306.498 145.786 306.83 143.918C306.948 143.249 306.92 142.317 306.113 141.678C303.793 139.841 299.63 134.12 298.332 126.591C297.614 122.43 299.005 118.641 300.3 116.194C300.846 115.182 301.006 114.008 300.75 112.889C300.494 111.769 299.839 110.779 298.905 110.098L298.843 110.053Z" fill="#3F3D56"/>
<path d="M295.266 105.744C297.568 104.497 298.414 101.639 297.156 99.3581C295.897 97.0781 293.01 96.2394 290.708 97.4861C288.406 98.7328 287.56 101.592 288.818 103.872C290.077 106.153 292.964 106.991 295.266 105.744Z" fill="#FFB7B7"/>
<path d="M286.306 101.259H293.166L293.236 100.284L293.588 101.259H294.644L294.784 99.3256L295.481 101.259H297.525V101.164C297.523 99.8173 296.983 98.5271 296.022 97.5749C295.061 96.6233 293.758 96.0882 292.399 96.0863H291.432C290.073 96.0882 288.77 96.6233 287.809 97.5749C286.848 98.5271 286.307 99.8173 286.306 101.164V101.259Z" fill="#2F2E41"/>
<path d="M296.488 104.766L299.416 103.825V96.7836H293.886L294.023 96.9185C295.928 98.8028 298.046 105.488 296.488 104.766Z" fill="#2F2E41"/>
<path d="M222.623 133.386C216.795 133.386 216.795 127.464 216.795 127.464H214.556L218.271 124.503L222.017 127.464H219.78C219.78 127.464 219.173 131.975 222.623 133.386ZM223.867 122.351C223.709 119.426 221.276 117.101 218.287 117.101C215.299 117.101 212.866 119.426 212.707 122.351C210.79 122.693 209.334 124.354 209.334 126.354C209.334 128.602 211.172 130.425 213.438 130.425H215.901C215.696 129.894 215.558 129.386 215.47 128.944H213.438C211.998 128.944 210.827 127.782 210.827 126.354C210.827 124.283 212.676 123.516 214.134 123.6C214.009 120.477 215.781 118.581 218.287 118.581C220.863 118.581 222.682 120.651 222.44 123.6C223.742 123.566 225.748 124.156 225.748 126.354C225.748 127.782 224.577 128.944 223.137 128.944H221.258C221.304 129.403 221.415 129.928 221.63 130.425H223.137C225.403 130.425 227.24 128.602 227.24 126.354C227.24 124.354 225.784 122.693 223.867 122.351Z" fill="#6FDA72"/>
<path d="M37.7054 106.539L34.0217 113.622V117.405H31.8365V113.622L28.1373 106.539H30.6034L32.9447 111.505L35.2704 106.539H37.7054ZM42.8054 117.546C41.9729 117.546 41.2237 117.364 40.5578 117.001C39.8918 116.627 39.3663 116.103 38.9813 115.428C38.6067 114.754 38.4194 113.975 38.4194 113.093C38.4194 112.211 38.6119 111.433 38.9969 110.758C39.3923 110.083 39.9282 109.565 40.6046 109.201C41.281 108.828 42.0354 108.641 42.8678 108.641C43.7003 108.641 44.4547 108.828 45.1311 109.201C45.8075 109.565 46.3382 110.083 46.7232 110.758C47.1186 111.433 47.3163 112.211 47.3163 113.093C47.3163 113.975 47.1134 114.754 46.7076 115.428C46.3122 116.103 45.7711 116.627 45.0843 117.001C44.4079 117.364 43.6483 117.546 42.8054 117.546ZM42.8054 115.646C43.2008 115.646 43.5702 115.553 43.9136 115.366C44.2674 115.169 44.5484 114.878 44.7565 114.494C44.9646 114.11 45.0687 113.643 45.0687 113.093C45.0687 112.273 44.8502 111.645 44.4131 111.21C43.9865 110.763 43.461 110.54 42.8366 110.54C42.2123 110.54 41.6868 110.763 41.2601 111.21C40.8439 111.645 40.6358 112.273 40.6358 113.093C40.6358 113.913 40.8387 114.546 41.2445 114.992C41.6608 115.428 42.1811 115.646 42.8054 115.646ZM57.0826 108.781V117.405H54.8818V116.316C54.6008 116.689 54.2314 116.985 53.7736 117.203C53.3261 117.411 52.8371 117.514 52.3064 117.514C51.63 117.514 51.0316 117.374 50.5114 117.094C49.9911 116.803 49.58 116.383 49.2783 115.833C48.9869 115.273 48.8412 114.608 48.8412 113.84V108.781H51.0264V113.529C51.0264 114.214 51.1981 114.743 51.5415 115.117C51.8849 115.48 52.3532 115.662 52.9463 115.662C53.5499 115.662 54.0233 115.48 54.3667 115.117C54.7101 114.743 54.8818 114.214 54.8818 113.529V108.781H57.0826ZM61.4239 110.12C61.7049 109.663 62.0691 109.305 62.5165 109.046C62.9744 108.786 63.4947 108.656 64.0774 108.656V110.945H63.4999C62.8131 110.945 62.2928 111.106 61.939 111.427C61.5956 111.749 61.4239 112.31 61.4239 113.109V117.405H59.2387V108.781H61.4239V110.12ZM77.2136 109.902C77.2136 110.483 77.0731 111.028 76.7922 111.536C76.5216 112.045 76.0898 112.455 75.4967 112.766C74.9139 113.078 74.1751 113.233 73.2802 113.233H71.454V117.405H69.2688V106.539H73.2802C74.1231 106.539 74.8411 106.685 75.4342 106.975C76.0273 107.266 76.4696 107.665 76.761 108.174C77.0627 108.682 77.2136 109.258 77.2136 109.902ZM73.1866 111.474C73.7901 111.474 74.2375 111.339 74.5289 111.069C74.8203 110.789 74.966 110.4 74.966 109.902C74.966 108.843 74.3728 108.314 73.1866 108.314H71.454V111.474H73.1866ZM80.9499 105.885V117.405H78.7647V105.885H80.9499ZM82.5472 113.062C82.5472 112.19 82.7189 111.417 83.0623 110.742C83.4161 110.068 83.8896 109.549 84.4827 109.186C85.0862 108.822 85.7574 108.641 86.4962 108.641C87.1414 108.641 87.7033 108.771 88.182 109.03C88.671 109.29 89.0613 109.616 89.3526 110.011V108.781H91.5534V117.405H89.3526V116.144C89.0717 116.549 88.6814 116.886 88.182 117.156C87.6929 117.416 87.1258 117.546 86.4806 117.546C85.7522 117.546 85.0862 117.359 84.4827 116.985C83.8896 116.611 83.4161 116.087 83.0623 115.413C82.7189 114.728 82.5472 113.944 82.5472 113.062ZM89.3526 113.093C89.3526 112.564 89.2486 112.112 89.0404 111.739C88.8323 111.355 88.5514 111.064 88.1976 110.867C87.8438 110.659 87.464 110.556 87.0581 110.556C86.6523 110.556 86.2777 110.654 85.9343 110.851C85.5909 111.049 85.31 111.339 85.0914 111.723C84.8833 112.097 84.7793 112.543 84.7793 113.062C84.7793 113.581 84.8833 114.038 85.0914 114.432C85.31 114.816 85.5909 115.112 85.9343 115.319C86.2881 115.527 86.6627 115.631 87.0581 115.631C87.464 115.631 87.8438 115.532 88.1976 115.335C88.5514 115.127 88.8323 114.837 89.0404 114.463C89.2486 114.079 89.3526 113.622 89.3526 113.093ZM93.1254 113.093C93.1254 112.201 93.3075 111.422 93.6717 110.758C94.0359 110.083 94.5406 109.565 95.1857 109.201C95.8309 108.828 96.5697 108.641 97.4022 108.641C98.474 108.641 99.3584 108.911 100.056 109.45C100.763 109.98 101.237 110.727 101.476 111.692H99.1191C98.9942 111.318 98.7809 111.028 98.4792 110.82C98.1878 110.602 97.8236 110.493 97.3866 110.493C96.7622 110.493 96.2679 110.722 95.9037 111.178C95.5395 111.625 95.3574 112.263 95.3574 113.093C95.3574 113.913 95.5395 114.551 95.9037 115.008C96.2679 115.454 96.7622 115.677 97.3866 115.677C98.271 115.677 98.8486 115.283 99.1191 114.494H101.476C101.237 115.428 100.763 116.17 100.056 116.72C99.348 117.27 98.4636 117.546 97.4022 117.546C96.5697 117.546 95.8309 117.364 95.1857 117.001C94.5406 116.627 94.0359 116.108 93.6717 115.444C93.3075 114.769 93.1254 113.986 93.1254 113.093ZM111.116 112.906C111.116 113.218 111.095 113.498 111.053 113.747H104.732C104.784 114.37 105.002 114.858 105.387 115.21C105.772 115.563 106.246 115.74 106.808 115.74C107.619 115.74 108.197 115.392 108.54 114.697H110.897C110.647 115.527 110.169 116.212 109.461 116.752C108.754 117.281 107.885 117.546 106.855 117.546C106.022 117.546 105.273 117.364 104.607 117.001C103.951 116.627 103.436 116.103 103.062 115.428C102.697 114.754 102.515 113.975 102.515 113.093C102.515 112.201 102.697 111.417 103.062 110.742C103.426 110.068 103.936 109.549 104.591 109.186C105.247 108.822 106.001 108.641 106.855 108.641C107.677 108.641 108.41 108.817 109.055 109.17C109.711 109.523 110.216 110.026 110.569 110.68C110.934 111.324 111.116 112.066 111.116 112.906ZM108.852 112.284C108.842 111.723 108.639 111.277 108.244 110.945C107.848 110.602 107.364 110.431 106.792 110.431C106.251 110.431 105.793 110.597 105.419 110.929C105.054 111.251 104.831 111.702 104.747 112.284H108.852ZM118.974 110.571V114.743C118.974 115.034 119.042 115.247 119.177 115.382C119.323 115.506 119.562 115.568 119.895 115.568H120.91V117.405H119.536C117.694 117.405 116.773 116.513 116.773 114.728V110.571H115.743V108.781H116.773V106.648H118.974V108.781H120.91V110.571H118.974ZM126.321 117.546C125.489 117.546 124.739 117.364 124.074 117.001C123.408 116.627 122.882 116.103 122.497 115.428C122.122 114.754 121.935 113.975 121.935 113.093C121.935 112.211 122.128 111.433 122.513 110.758C122.908 110.083 123.444 109.565 124.12 109.201C124.797 108.828 125.551 108.641 126.384 108.641C127.216 108.641 127.97 108.828 128.647 109.201C129.323 109.565 129.854 110.083 130.239 110.758C130.634 111.433 130.832 112.211 130.832 113.093C130.832 113.975 130.629 114.754 130.223 115.428C129.828 116.103 129.287 116.627 128.6 117.001C127.924 117.364 127.164 117.546 126.321 117.546ZM126.321 115.646C126.717 115.646 127.086 115.553 127.429 115.366C127.783 115.169 128.064 114.878 128.272 114.494C128.48 114.11 128.584 113.643 128.584 113.093C128.584 112.273 128.366 111.645 127.929 111.21C127.502 110.763 126.977 110.54 126.352 110.54C125.728 110.54 125.203 110.763 124.776 111.21C124.36 111.645 124.152 112.273 124.152 113.093C124.152 113.913 124.354 114.546 124.76 114.992C125.177 115.428 125.697 115.646 126.321 115.646ZM32.3516 140.897C31.644 140.897 31.0093 140.772 30.4474 140.523C29.8854 140.264 29.438 139.916 29.105 139.48C28.7824 139.044 28.6055 138.562 28.5743 138.032H30.7751C30.8168 138.365 30.9781 138.64 31.259 138.858C31.5504 139.075 31.9094 139.184 32.336 139.184C32.7522 139.184 33.0748 139.101 33.3037 138.935C33.5431 138.769 33.6627 138.557 33.6627 138.297C33.6627 138.017 33.5171 137.809 33.2257 137.674C32.9447 137.529 32.4921 137.373 31.8677 137.207C31.2226 137.052 30.6919 136.891 30.2757 136.725C29.8698 136.559 29.516 136.304 29.2143 135.962C28.9229 135.619 28.7772 135.158 28.7772 134.576C28.7772 134.099 28.9125 133.663 29.1831 133.269C29.464 132.874 29.8594 132.563 30.3693 132.335C30.8896 132.106 31.4983 131.992 32.1955 131.992C33.2257 131.992 34.0478 132.252 34.6617 132.771C35.2756 133.279 35.6138 133.969 35.6763 134.841H33.5847C33.5535 134.499 33.4078 134.229 33.1477 134.032C32.8979 133.824 32.5597 133.72 32.1331 133.72C31.7377 133.72 31.4307 133.793 31.2122 133.938C31.0041 134.083 30.9 134.286 30.9 134.545C30.9 134.836 31.0457 135.059 31.337 135.215C31.6284 135.36 32.0811 135.51 32.695 135.666C33.3194 135.822 33.8344 135.983 34.2403 136.149C34.6461 136.315 34.9947 136.574 35.2861 136.927C35.5878 137.27 35.7439 137.726 35.7543 138.297C35.7543 138.795 35.6138 139.242 35.3329 139.636C35.0623 140.03 34.6669 140.342 34.1466 140.57C33.6367 140.788 33.0384 140.897 32.3516 140.897ZM42.418 132.008C43.0736 132.008 43.6563 132.153 44.1662 132.444C44.676 132.724 45.0715 133.144 45.3524 133.705C45.6438 134.255 45.7895 134.919 45.7895 135.697V140.757H43.6042V135.993C43.6042 135.308 43.4326 134.784 43.0892 134.421C42.7458 134.047 42.2775 133.86 41.6844 133.86C41.0808 133.86 40.6022 134.047 40.2484 134.421C39.905 134.784 39.7333 135.308 39.7333 135.993V140.757H37.5481V129.237H39.7333V133.206C40.0143 132.833 40.3889 132.542 40.8571 132.335C41.3254 132.117 41.8457 132.008 42.418 132.008ZM47.3056 136.413C47.3056 135.542 47.4773 134.768 47.8207 134.094C48.1745 133.419 48.6479 132.9 49.2411 132.537C49.8446 132.174 50.5158 131.992 51.2546 131.992C51.8998 131.992 52.4617 132.122 52.9403 132.381C53.4294 132.641 53.8196 132.968 54.111 133.362V132.132H56.3118V140.757H54.111V139.496C53.83 139.901 53.4398 140.238 52.9403 140.508C52.4513 140.767 51.8841 140.897 51.239 140.897C50.5106 140.897 49.8446 140.71 49.2411 140.336C48.6479 139.963 48.1745 139.439 47.8207 138.764C47.4773 138.079 47.3056 137.296 47.3056 136.413ZM54.111 136.445C54.111 135.915 54.0069 135.464 53.7988 135.09C53.5907 134.706 53.3097 134.416 52.9559 134.218C52.6021 134.011 52.2223 133.907 51.8165 133.907C51.4107 133.907 51.0361 134.006 50.6927 134.203C50.3493 134.4 50.0683 134.691 49.8498 135.075C49.6417 135.448 49.5376 135.894 49.5376 136.413C49.5376 136.932 49.6417 137.389 49.8498 137.783C50.0683 138.167 50.3493 138.463 50.6927 138.671C51.0465 138.878 51.4211 138.982 51.8165 138.982C52.2223 138.982 52.6021 138.883 52.9559 138.686C53.3097 138.479 53.5907 138.188 53.7988 137.815C54.0069 137.431 54.111 136.974 54.111 136.445ZM60.6313 133.471C60.9122 133.015 61.2764 132.656 61.7239 132.397C62.1817 132.138 62.702 132.008 63.2847 132.008V134.296H62.7072C62.0204 134.296 61.5001 134.457 61.1463 134.779C60.8029 135.101 60.6313 135.661 60.6313 136.46V140.757H58.446V132.132H60.6313V133.471ZM72.795 136.258C72.795 136.569 72.7742 136.849 72.7326 137.098H66.4111C66.4631 137.721 66.6816 138.209 67.0667 138.562C67.4517 138.915 67.9251 139.091 68.487 139.091C69.2987 139.091 69.8762 138.743 70.2196 138.048H72.5765C72.3268 138.878 71.8481 139.563 71.1405 140.103C70.4329 140.632 69.564 140.897 68.5339 140.897C67.7014 140.897 66.9522 140.715 66.2862 140.352C65.6307 139.978 65.1156 139.454 64.741 138.78C64.3768 138.105 64.1947 137.327 64.1947 136.445C64.1947 135.552 64.3768 134.768 64.741 134.094C65.1052 133.419 65.615 132.9 66.2706 132.537C66.9262 132.174 67.6806 131.992 68.5339 131.992C69.3559 131.992 70.0895 132.169 70.7347 132.522C71.3903 132.874 71.8949 133.378 72.2487 134.032C72.6129 134.675 72.795 135.417 72.795 136.258ZM70.5318 135.635C70.5214 135.075 70.3185 134.628 69.923 134.296C69.5276 133.954 69.0438 133.782 68.4714 133.782C67.9303 133.782 67.4725 133.949 67.0979 134.281C66.7337 134.602 66.5099 135.054 66.4267 135.635H70.5318ZM77.5472 136.413C77.5472 135.542 77.7189 134.768 78.0623 134.094C78.4161 133.419 78.8896 132.9 79.4827 132.537C80.0863 132.174 80.7574 131.992 81.4962 131.992C82.1414 131.992 82.7033 132.122 83.182 132.381C83.6711 132.641 84.0613 132.968 84.3526 133.362V132.132H86.5535V140.757H84.3526V139.496C84.0717 139.901 83.6815 140.238 83.182 140.508C82.6929 140.767 82.1258 140.897 81.4806 140.897C80.7522 140.897 80.0863 140.71 79.4827 140.336C78.8896 139.963 78.4161 139.439 78.0623 138.764C77.7189 138.079 77.5472 137.296 77.5472 136.413ZM84.3526 136.445C84.3526 135.915 84.2486 135.464 84.0405 135.09C83.8323 134.706 83.5514 134.416 83.1976 134.218C82.8438 134.011 82.464 133.907 82.0582 133.907C81.6523 133.907 81.2777 134.006 80.9343 134.203C80.5909 134.4 80.31 134.691 80.0915 135.075C79.8833 135.448 79.7793 135.894 79.7793 136.413C79.7793 136.932 79.8833 137.389 80.0915 137.783C80.31 138.167 80.5909 138.463 80.9343 138.671C81.2881 138.878 81.6627 138.982 82.0582 138.982C82.464 138.982 82.8438 138.883 83.1976 138.686C83.5514 138.479 83.8323 138.188 84.0405 137.815C84.2486 137.431 84.3526 136.974 84.3526 136.445ZM93.4798 132.008C94.51 132.008 95.3425 132.335 95.9772 132.989C96.612 133.632 96.9293 134.535 96.9293 135.697V140.757H94.7441V135.993C94.7441 135.308 94.5724 134.784 94.229 134.421C93.8856 134.047 93.4174 133.86 92.8243 133.86C92.2207 133.86 91.7421 134.047 91.3883 134.421C91.0449 134.784 90.8732 135.308 90.8732 135.993V140.757H88.688V132.132H90.8732V133.206C91.1645 132.833 91.5339 132.542 91.9814 132.335C92.4392 132.117 92.9387 132.008 93.4798 132.008ZM98.4453 136.413C98.4453 135.542 98.617 134.768 98.9604 134.094C99.3142 133.419 99.7929 132.9 100.396 132.537C101 132.174 101.671 131.992 102.41 131.992C102.972 131.992 103.508 132.117 104.018 132.366C104.528 132.605 104.933 132.926 105.235 133.331V129.237H107.452V140.757H105.235V139.48C104.965 139.906 104.585 140.248 104.096 140.508C103.607 140.767 103.039 140.897 102.394 140.897C101.666 140.897 101 140.71 100.396 140.336C99.7929 139.963 99.3142 139.439 98.9604 138.764C98.617 138.079 98.4453 137.296 98.4453 136.413ZM105.251 136.445C105.251 135.915 105.147 135.464 104.939 135.09C104.73 134.706 104.449 134.416 104.096 134.218C103.742 134.011 103.362 133.907 102.956 133.907C102.55 133.907 102.176 134.006 101.832 134.203C101.489 134.4 101.208 134.691 100.99 135.075C100.781 135.448 100.677 135.894 100.677 136.413C100.677 136.932 100.781 137.389 100.99 137.783C101.208 138.167 101.489 138.463 101.832 138.671C102.186 138.878 102.561 138.982 102.956 138.982C103.362 138.982 103.742 138.883 104.096 138.686C104.449 138.479 104.73 138.188 104.939 137.815C105.147 137.431 105.251 136.974 105.251 136.445ZM115.491 129.237V140.757H113.305V129.237H115.491ZM125.688 136.258C125.688 136.569 125.667 136.849 125.625 137.098H119.304C119.356 137.721 119.574 138.209 119.959 138.562C120.344 138.915 120.818 139.091 121.38 139.091C122.191 139.091 122.769 138.743 123.112 138.048H125.469C125.219 138.878 124.741 139.563 124.033 140.103C123.326 140.632 122.457 140.897 121.427 140.897C120.594 140.897 119.845 140.715 119.179 140.352C118.523 139.978 118.008 139.454 117.634 138.78C117.269 138.105 117.087 137.327 117.087 136.445C117.087 135.552 117.269 134.768 117.634 134.094C117.998 133.419 118.508 132.9 119.163 132.537C119.819 132.174 120.573 131.992 121.427 131.992C122.249 131.992 122.982 132.169 123.627 132.522C124.283 132.874 124.788 133.378 125.141 134.032C125.506 134.675 125.688 135.417 125.688 136.258ZM123.424 135.635C123.414 135.075 123.211 134.628 122.816 134.296C122.42 133.954 121.936 133.782 121.364 133.782C120.823 133.782 120.365 133.949 119.991 134.281C119.626 134.602 119.403 135.054 119.319 135.635H123.424ZM126.721 136.413C126.721 135.542 126.893 134.768 127.236 134.094C127.59 133.419 128.063 132.9 128.657 132.537C129.26 132.174 129.931 131.992 130.67 131.992C131.315 131.992 131.877 132.122 132.356 132.381C132.845 132.641 133.235 132.968 133.527 133.362V132.132H135.727V140.757H133.527V139.496C133.246 139.901 132.855 140.238 132.356 140.508C131.867 140.767 131.3 140.897 130.655 140.897C129.926 140.897 129.26 140.71 128.657 140.336C128.063 139.963 127.59 139.439 127.236 138.764C126.893 138.079 126.721 137.296 126.721 136.413ZM133.527 136.445C133.527 135.915 133.422 135.464 133.214 135.09C133.006 134.706 132.725 134.416 132.371 134.218C132.018 134.011 131.638 133.907 131.232 133.907C130.826 133.907 130.452 134.006 130.108 134.203C129.765 134.4 129.484 134.691 129.265 135.075C129.057 135.448 128.953 135.894 128.953 136.413C128.953 136.932 129.057 137.389 129.265 137.783C129.484 138.167 129.765 138.463 130.108 138.671C130.462 138.878 130.837 138.982 131.232 138.982C131.638 138.982 132.018 138.883 132.371 138.686C132.725 138.479 133.006 138.188 133.214 137.815C133.422 137.431 133.527 136.974 133.527 136.445ZM140.046 133.471C140.327 133.015 140.692 132.656 141.139 132.397C141.597 132.138 142.117 132.008 142.7 132.008V134.296H142.122C141.436 134.296 140.915 134.457 140.562 134.779C140.218 135.101 140.046 135.661 140.046 136.46V140.757H137.861V132.132H140.046V133.471ZM148.964 132.008C149.994 132.008 150.826 132.335 151.461 132.989C152.096 133.632 152.413 134.535 152.413 135.697V140.757H150.228V135.993C150.228 135.308 150.056 134.784 149.713 134.421C149.369 134.047 148.901 133.86 148.308 133.86C147.704 133.86 147.226 134.047 146.872 134.421C146.529 134.784 146.357 135.308 146.357 135.993V140.757H144.172V132.132H146.357V133.206C146.648 132.833 147.018 132.542 147.465 132.335C147.923 132.117 148.422 132.008 148.964 132.008Z" fill="white"/>
<path d="M57.9473 28.5859C57.6308 28.5859 57.3446 28.5319 57.0888 28.4238C56.8373 28.3157 56.6379 28.16 56.4905 27.9568C56.343 27.7535 56.2672 27.5135 56.2628 27.2368H57.2384C57.2514 27.4227 57.3164 27.5697 57.4335 27.6778C57.5549 27.786 57.7197 27.84 57.9278 27.84C58.1402 27.84 58.3071 27.7902 58.4286 27.6908C58.55 27.587 58.6107 27.453 58.6107 27.2886C58.6107 27.1546 58.5695 27.0443 58.4871 26.9578C58.4047 26.8714 58.3006 26.8043 58.1749 26.7568C58.0535 26.7049 57.8844 26.6486 57.6676 26.5881C57.3728 26.5016 57.1322 26.4173 56.9457 26.3351C56.7636 26.2487 56.6054 26.1211 56.471 25.9524C56.3409 25.7794 56.2759 25.5503 56.2759 25.2649C56.2759 24.9968 56.343 24.7633 56.4775 24.5643C56.6119 24.3654 56.8005 24.2141 57.0433 24.1103C57.2861 24.0021 57.5636 23.9481 57.8757 23.9481C58.344 23.9481 58.7234 24.0627 59.0139 24.2919C59.3087 24.5168 59.4713 24.8324 59.5016 25.2389H58.5001C58.4914 25.0832 58.4242 24.9557 58.2985 24.8562C58.1771 24.7524 58.0145 24.7005 57.8107 24.7005C57.633 24.7005 57.4899 24.7459 57.3815 24.8368C57.2774 24.9276 57.2254 25.0594 57.2254 25.2324C57.2254 25.3535 57.2644 25.4551 57.3424 25.5373C57.4248 25.6151 57.5245 25.68 57.6416 25.7319C57.763 25.7794 57.9321 25.8357 58.1489 25.9005C58.4437 25.987 58.6843 26.0735 58.8708 26.16C59.0573 26.2465 59.2176 26.3762 59.3521 26.5492C59.4865 26.7222 59.5537 26.9492 59.5537 27.2303C59.5537 27.4724 59.4908 27.6973 59.3651 27.9049C59.2394 28.1124 59.055 28.2789 58.8123 28.4043C58.5695 28.5254 58.2811 28.5859 57.9473 28.5859ZM62.3722 24.8951C62.6454 24.8951 62.8882 24.9557 63.1006 25.0768C63.313 25.1935 63.4778 25.3686 63.5949 25.6022C63.7163 25.8313 63.777 26.1081 63.777 26.4324V28.5405H62.8665V26.5557C62.8665 26.2703 62.795 26.0519 62.6519 25.9005C62.5088 25.7449 62.3137 25.667 62.0665 25.667C61.8151 25.667 61.6156 25.7449 61.4682 25.9005C61.3251 26.0519 61.2536 26.2703 61.2536 26.5557V28.5405H60.3431V23.7405H61.2536V25.3946C61.3707 25.2389 61.5267 25.1178 61.7219 25.0314C61.917 24.9405 62.1337 24.8951 62.3722 24.8951ZM64.4087 26.7308C64.4087 26.3676 64.4802 26.0454 64.6233 25.7643C64.7707 25.4833 64.968 25.267 65.2151 25.1157C65.4668 24.9643 65.7464 24.8886 66.0541 24.8886C66.3226 24.8886 66.5568 24.9427 66.7564 25.0508C66.96 25.1589 67.1226 25.2952 67.2442 25.4595V24.947H68.1612V28.5405H67.2442V28.0151C67.1271 28.1838 66.9646 28.3243 66.7564 28.4368C66.5529 28.5449 66.3161 28.5989 66.0475 28.5989C65.7438 28.5989 65.4668 28.5211 65.2151 28.3654C64.968 28.2097 64.7707 27.9913 64.6233 27.7103C64.4802 27.4249 64.4087 27.0984 64.4087 26.7308ZM67.2442 26.7438C67.2442 26.5232 67.2006 26.3351 67.1141 26.1795C67.0276 26.0194 66.9106 25.8984 66.7629 25.8162C66.6153 25.7298 66.4573 25.6865 66.2882 25.6865C66.1191 25.6865 65.963 25.7275 65.8199 25.8097C65.6768 25.8919 65.5598 26.013 65.4687 26.173C65.3822 26.3286 65.3386 26.5146 65.3386 26.7308C65.3386 26.947 65.3822 27.1373 65.4687 27.3016C65.5598 27.4616 65.6768 27.5849 65.8199 27.6714C65.9676 27.7578 66.1236 27.8011 66.2882 27.8011C66.4573 27.8011 66.6153 27.76 66.7629 27.6778C66.9106 27.5914 67.0276 27.4703 67.1141 27.3146C67.2006 27.1546 67.2442 26.9643 67.2442 26.7438ZM69.9608 25.5049C70.0778 25.3146 70.23 25.1654 70.416 25.0573C70.6072 24.9492 70.8238 24.8951 71.0664 24.8951V25.8486H70.8258C70.5396 25.8486 70.323 25.9157 70.1754 26.0497C70.0323 26.1838 69.9608 26.4173 69.9608 26.7503V28.5405H69.0503V24.947H69.9608V25.5049ZM75.029 26.6659C75.029 26.7957 75.0206 26.9124 75.003 27.0162H72.3691C72.3912 27.2757 72.4822 27.4789 72.6422 27.6259C72.8029 27.773 72.9999 27.8465 73.234 27.8465C73.5722 27.8465 73.8129 27.7016 73.9559 27.4119H74.938C74.8339 27.7578 74.6349 28.0432 74.3397 28.2681C74.045 28.4886 73.6828 28.5989 73.2536 28.5989C72.9069 28.5989 72.5947 28.5232 72.317 28.3719C72.0439 28.2162 71.8293 27.9978 71.6732 27.7168C71.5216 27.4357 71.4456 27.1114 71.4456 26.7438C71.4456 26.3719 71.5216 26.0454 71.6732 25.7643C71.8254 25.4833 72.0374 25.267 72.3105 25.1157C72.5837 24.9643 72.8985 24.8886 73.2536 24.8886C73.5963 24.8886 73.902 24.9621 74.1706 25.1092C74.4437 25.2562 74.6544 25.4659 74.8014 25.7384C74.9536 26.0065 75.029 26.3157 75.029 26.6659ZM74.086 26.4065C74.0821 26.173 73.9976 25.987 73.8324 25.8486C73.6678 25.7059 73.4662 25.6346 73.2275 25.6346C73.0025 25.6346 72.8113 25.7038 72.6552 25.8422C72.5037 25.9762 72.4107 26.1643 72.3756 26.4065H74.086ZM57.2904 37.5503H58.7863V38.2703H56.3799V33.7427H57.2904V37.5503ZM62.7143 36.3957C62.7143 36.5254 62.7057 36.6422 62.6883 36.7459H60.0543C60.076 37.0054 60.1671 37.2086 60.3275 37.3557C60.4879 37.5027 60.6852 37.5762 60.9193 37.5762C61.2575 37.5762 61.4981 37.4314 61.6412 37.1416H62.6233C62.5192 37.4875 62.3198 37.773 62.0249 37.9978C61.7301 38.2184 61.3681 38.3286 60.9388 38.3286C60.592 38.3286 60.2798 38.253 60.0023 38.1016C59.7291 37.9459 59.5145 37.7275 59.3584 37.4465C59.2067 37.1654 59.1308 36.8411 59.1308 36.4735C59.1308 36.1016 59.2067 35.7751 59.3584 35.4941C59.5102 35.213 59.7226 34.9967 59.9958 34.8454C60.2689 34.6941 60.5833 34.6184 60.9388 34.6184C61.2814 34.6184 61.587 34.6919 61.8558 34.8389C62.129 34.986 62.3393 35.1957 62.4867 35.4681C62.6385 35.7362 62.7143 36.0454 62.7143 36.3957ZM61.7713 36.1362C61.767 35.9027 61.6824 35.7167 61.5176 35.5784C61.3529 35.4357 61.1513 35.3643 60.9128 35.3643C60.6874 35.3643 60.4966 35.4335 60.3405 35.5719C60.1888 35.706 60.0956 35.8941 60.0608 36.1362H61.7713ZM63.1448 36.4605C63.1448 36.0973 63.2163 35.7751 63.3594 35.4941C63.5068 35.213 63.7041 34.9967 63.9512 34.8454C64.2027 34.6941 64.4824 34.6184 64.7902 34.6184C65.059 34.6184 65.2931 34.6724 65.4928 34.7805C65.6964 34.8887 65.8589 35.0249 65.9806 35.1892V34.6768H66.8976V38.2703H65.9806V37.7449C65.8635 37.9135 65.7009 38.0541 65.4928 38.1665C65.2886 38.2746 65.0525 38.3286 64.7837 38.3286C64.4802 38.3286 64.2027 38.2508 63.9512 38.0951C63.7041 37.9395 63.5068 37.7211 63.3594 37.44C63.2163 37.1546 63.1448 36.8281 63.1448 36.4605ZM65.9806 36.4735C65.9806 36.253 65.937 36.0649 65.8505 35.9092C65.7633 35.7492 65.6463 35.6281 65.4993 35.5459C65.3517 35.4595 65.1936 35.4162 65.0243 35.4162C64.8552 35.4162 64.6992 35.4573 64.5561 35.5395C64.413 35.6216 64.2959 35.7427 64.2049 35.9027C64.1182 36.0584 64.0748 36.2443 64.0748 36.4605C64.0748 36.6767 64.1182 36.867 64.2049 37.0314C64.2959 37.1914 64.413 37.3146 64.5561 37.4011C64.7035 37.4875 64.8596 37.5308 65.0243 37.5308C65.1936 37.5308 65.3517 37.4897 65.4993 37.4076C65.6463 37.3211 65.7633 37.2 65.8505 37.0443C65.937 36.8843 65.9806 36.6941 65.9806 36.4735ZM68.6971 35.2346C68.8142 35.0443 68.9657 34.8952 69.1524 34.787C69.3429 34.6789 69.5602 34.6249 69.8027 34.6249V35.5784H69.5621C69.2759 35.5784 69.0594 35.6454 68.9117 35.7795C68.7687 35.9135 68.6971 36.147 68.6971 36.48V38.2703H67.7866V34.6768H68.6971V35.2346ZM72.4126 34.6249C72.8419 34.6249 73.1885 34.7611 73.4532 35.0335C73.7179 35.3016 73.8499 35.6778 73.8499 36.1622V38.2703H72.9394V36.2854C72.9394 36 72.8679 35.7816 72.7248 35.6303C72.5817 35.4746 72.3866 35.3968 72.1395 35.3968C71.8878 35.3968 71.6888 35.4746 71.5412 35.6303C71.3981 35.7816 71.3265 36 71.3265 36.2854V38.2703H70.416V34.6768H71.3265V35.1243C71.4481 34.9686 71.6016 34.8475 71.7883 34.7611C71.9789 34.6703 72.187 34.6249 72.4126 34.6249Z" fill="white"/>
<path d="M81.2823 28.5405H80.1702L78.3101 25.7319V28.5405H77.198V23.987H78.3101L80.1702 26.8087V23.987H81.2823V28.5405Z" fill="#1D91FF"/>
<path d="M45.541 26.0416H34.661V37.7276H45.541V26.0416Z" fill="white"/>
<path d="M47.3681 29.092C47.065 27.4783 46.295 26.0042 45.1646 24.8736C44.0342 23.7429 42.5994 23.0117 41.0586 22.7811C39.5179 22.5505 37.9475 22.8318 36.5646 23.5862C35.1817 24.3407 34.0549 25.5308 33.34 26.9921C31.8088 27.1629 30.3982 27.949 29.3996 29.188C28.4011 30.4269 27.8908 32.0241 27.9744 33.6495C28.058 35.2749 28.729 36.8042 29.8487 37.9214C30.9684 39.0387 32.4513 39.6585 33.991 39.6527H47.0198C48.3509 39.6493 49.6262 39.0872 50.5655 38.0901C51.5047 37.093 52.0311 35.7424 52.0289 34.3351C52.0343 32.9966 51.5539 31.7069 50.6869 30.7316C49.8198 29.7562 48.6321 29.1693 47.3681 29.092ZM41.6084 32.2177V36.2421H38.3989V32.2177H34.9945L40.0037 26.9176L45.0128 32.2177H41.6084Z" fill="#884E88"/>
<path fill-rule="evenodd" clip-rule="evenodd" d="M359 65.5135L281.922 55.0639C272.313 53.7611 265.394 44.9122 266.468 35.2994L270.416 0H359V65.5135Z" fill="#884E88"/>
<path d="M305.914 19.4324L326.306 18.2703L325.093 37.784L320.307 40.7639H312.528L306.544 37.1881L304.749 32.4202V27.6523L305.914 19.4324Z" fill="white"/>
<path d="M316.401 13.6216C308.68 13.6216 302.418 19.8659 302.418 27.5676C302.418 33.7293 306.425 38.9567 311.981 40.8011C312.679 40.9301 312.906 40.4978 312.906 40.1305V37.5343C309.016 38.378 308.206 35.8886 308.206 35.8886C307.57 34.2767 306.653 33.8479 306.653 33.8479C305.384 32.9821 306.75 33.0007 306.75 33.0007C308.154 33.0983 308.893 34.4383 308.893 34.4383C310.14 36.5697 312.163 35.9538 312.961 35.5969C313.086 34.6963 313.449 34.0803 313.849 33.7329C310.744 33.3784 307.479 32.1825 307.479 26.8401C307.479 25.3164 308.025 24.073 308.919 23.0968C308.775 22.7446 308.296 21.3256 309.055 19.4057C309.055 19.4057 310.23 19.0315 312.902 20.8352C314.017 20.526 315.212 20.3715 316.401 20.3656C317.589 20.3715 318.787 20.526 319.904 20.8352C322.573 19.0315 323.746 19.4057 323.746 19.4057C324.507 21.3268 324.027 22.7458 323.883 23.0968C324.781 24.073 325.322 25.3176 325.322 26.8401C325.322 32.1965 322.052 33.376 318.938 33.7212C319.439 34.1536 319.897 35.0019 319.897 36.3036V40.1305C319.897 40.5013 320.121 40.9371 320.83 40.7999C326.382 38.9533 330.384 33.727 330.384 27.5676C330.384 19.8659 324.123 13.6216 316.401 13.6216Z" fill="#884E88"/>
<defs>
<radialGradient id="paint0_radial" cx="0" cy="0" r="1" gradientUnits="userSpaceOnUse" gradientTransform="translate(-1.00045e-06 60.6487) rotate(64.2775) scale(119.879 162.856)">
<stop offset="0.0825573" stop-color="#0A0604"/>
<stop offset="1" stop-color="#0A0605"/>
</radialGradient>
</defs>
</svg>
