<svg width="52" height="51" viewBox="0 0 52 51" fill="none" xmlns="http://www.w3.org/2000/svg">
<path d="M26.0002 8.92496C29.2775 8.92496 32.4811 9.89681 35.206 11.7176C37.9309 13.5384 40.0547 16.1263 41.3087 19.1542C42.5627 22.182 42.8907 25.5137 42.2512 28.7279C41.6117 31.9422 40.0333 34.8946 37.7158 37.2118C35.3983 39.5289 32.4456 41.1068 29.2313 41.7459C26.017 42.385 22.6853 42.0565 19.6577 40.802C16.63 39.5476 14.0424 37.4234 12.222 34.6983C10.4016 31.9731 9.43023 28.7693 9.4307 25.4921C9.43134 21.098 11.1773 16.8841 14.2847 13.7772C17.392 10.6703 21.6061 8.92496 26.0002 8.92496ZM26.0002 4.83313C21.9137 4.83313 17.9189 6.04496 14.5211 8.31536C11.1233 10.5858 8.47514 13.8128 6.9114 17.5883C5.34766 21.3638 4.93864 25.5182 5.73605 29.5262C6.53347 33.5342 8.50151 37.2157 11.3913 40.1051C14.2811 42.9946 17.9628 44.9622 21.9709 45.7591C25.9789 46.5561 30.1333 46.1466 33.9086 44.5824C37.684 43.0182 40.9107 40.3696 43.1807 36.9716C45.4507 33.5735 46.6621 29.5786 46.6616 25.4921C46.6552 20.0145 44.4763 14.7632 40.6028 10.8902C36.7294 7.01719 31.4778 4.83886 26.0002 4.83313Z" fill="#FF742E"/>
<path d="M27.7832 0H22.9404V5.09794H27.7832V0Z" fill="#FF742E"/>
<path d="M40.573 4.5621L36.4219 2.06787L33.7962 6.43766L37.9473 8.93189L40.573 4.5621Z" fill="#FF742E"/>
<path d="M49.0851 14.6516L46.7373 10.416L42.2785 12.8875L44.6264 17.1232L49.0851 14.6516Z" fill="#FF742E"/>
<path d="M46.6739 40.4294L49.2402 36.3225L44.9169 33.621L42.3506 37.7279L46.6739 40.4294Z" fill="#FF742E"/>
<path d="M7.37482 17.1215L9.72266 12.8859L5.2639 10.4143L2.91606 14.6499L7.37482 17.1215Z" fill="#FF742E"/>
<path d="M9.65126 37.7261L7.08496 33.6191L2.76166 36.3206L5.32796 40.4276L9.65126 37.7261Z" fill="#FF742E"/>
<path d="M14.052 8.93161L18.2031 6.43738L15.5775 2.06759L11.4264 4.56182L14.052 8.93161Z" fill="#FF742E"/>
<path d="M27.7832 45.8864H22.9404V50.9843H27.7832V45.8864Z" fill="#FF742E"/>
<path d="M37.948 42.0535L33.7969 44.5477L36.4225 48.9175L40.5736 46.4233L37.948 42.0535Z" fill="#FF742E"/>
<path d="M11.427 46.4236L15.5781 48.9178L18.2038 44.5481L14.0527 42.0538L11.427 46.4236Z" fill="#FF742E"/>
<path d="M5.86335 23.4534H0V27.7859H5.86335V23.4534Z" fill="#FF742E"/>
<path d="M46.1366 27.786H52V23.4535H46.1366V27.786Z" fill="#FF742E"/>
</svg>
