<svg class="edit" width="16" height="16" viewBox="0 0 16 16" fill="none" xmlns="http://www.w3.org/2000/svg">
<path fill-rule="evenodd" clip-rule="evenodd" d="M11.0131 1.42704C11.3412 1.09912 11.7862 0.914917 12.2501 0.914917C12.714 0.914917 13.1589 1.09912 13.4871 1.42704L14.5731 2.51304C14.901 2.8412 15.0852 3.28613 15.0852 3.75004C15.0852 4.21396 14.901 4.65889 14.5731 4.98704L5.9631 13.597C5.7531 13.807 5.4931 13.961 5.2071 14.042L1.9561 14.972C1.82742 15.0088 1.69124 15.0105 1.5617 14.9769C1.43216 14.9433 1.31396 14.8756 1.21938 14.781C1.1248 14.6863 1.05728 14.568 1.02382 14.4384C0.99036 14.3089 0.992181 14.1727 1.0291 14.044L1.9581 10.794C2.03953 10.5076 2.19269 10.2467 2.4031 10.036L11.0131 1.42604V1.42704ZM12.4271 2.48704C12.4039 2.46376 12.3763 2.44529 12.3459 2.43269C12.3155 2.42008 12.283 2.4136 12.2501 2.4136C12.2172 2.4136 12.1847 2.42008 12.1543 2.43269C12.1239 2.44529 12.0963 2.46376 12.0731 2.48704L10.8111 3.75004L12.2501 5.19004L13.5131 3.92704C13.5364 3.90382 13.5548 3.87623 13.5675 3.84586C13.5801 3.81549 13.5865 3.78293 13.5865 3.75004C13.5865 3.71716 13.5801 3.6846 13.5675 3.65423C13.5548 3.62385 13.5364 3.59627 13.5131 3.57304L12.4271 2.48704ZM11.1891 6.25004L9.7501 4.81004L3.4641 11.097C3.43392 11.127 3.4119 11.1642 3.4001 11.205L2.8421 13.158L4.7951 12.6C4.83597 12.5883 4.87315 12.5663 4.9031 12.536L11.1891 6.25004Z" fill="#C2C2C2" data-opposite="hsla(0, 0%, 8%, 0.76)"/>
</svg>
