<svg width="52" height="51" viewBox="0 0 52 51" fill="none" xmlns="http://www.w3.org/2000/svg">
<path d="M26 8.92496C29.2772 8.92496 32.4809 9.89681 35.2058 11.7176C37.9307 13.5384 40.0544 16.1263 41.3085 19.1542C42.5625 22.182 42.8905 25.5137 42.251 28.7279C41.6114 31.9422 40.0331 34.8946 37.7156 37.2118C35.398 39.5289 32.4454 41.1068 29.2311 41.7459C26.0167 42.385 22.6851 42.0565 19.6574 40.802C16.6298 39.5476 14.0422 37.4234 12.2218 34.6983C10.4014 31.9731 9.42998 28.7693 9.43046 25.4921C9.4311 21.098 11.1771 16.8841 14.2844 13.7772C17.3917 10.6703 21.6059 8.92496 26 8.92496ZM26 4.83313C21.9135 4.83313 17.9187 6.04496 14.5209 8.31536C11.1231 10.5858 8.4749 13.8128 6.91116 17.5883C5.34742 21.3638 4.93839 25.5182 5.73581 29.5262C6.53323 33.5342 8.50127 37.2157 11.3911 40.1051C14.2808 42.9946 17.9626 44.9622 21.9706 45.7591C25.9787 46.5561 30.1331 46.1466 33.9084 44.5824C37.6837 43.0182 40.9104 40.3696 43.1805 36.9716C45.4505 33.5735 46.6618 29.5786 46.6613 25.4921C46.655 20.0145 44.476 14.7632 40.6026 10.8902C36.7291 7.01719 31.4775 4.83886 26 4.83313Z" fill="#884E88" data-opposite="#FF742E"/>
<path d="M27.7835 0H22.9407V5.09794H27.7835V0Z" fill="#884E88" data-opposite="#FF742E"/>
<path d="M40.5725 4.5621L36.4214 2.06787L33.7958 6.43766L37.9468 8.93189L40.5725 4.5621Z" fill="#884E88" data-opposite="#FF742E"/>
<path d="M49.0855 14.6516L46.7377 10.416L42.2789 12.8875L44.6267 17.1232L49.0855 14.6516Z" fill="#884E88" data-opposite="#FF742E"/>
<path d="M46.6742 40.4294L49.2405 36.3225L44.9172 33.621L42.3509 37.7279L46.6742 40.4294Z" fill="#884E88" data-opposite="#FF742E"/>
<path d="M7.37482 17.1215L9.72266 12.8859L5.2639 10.4143L2.91606 14.6499L7.37482 17.1215Z" fill="#884E88" data-opposite="#FF742E"/>
<path d="M9.65126 37.7261L7.08496 33.6191L2.76166 36.3206L5.32796 40.4276L9.65126 37.7261Z" fill="#884E88" data-opposite="#FF742E"/>
<path d="M14.052 8.93161L18.2031 6.43738L15.5775 2.06759L11.4264 4.56182L14.052 8.93161Z" fill="#884E88" data-opposite="#FF742E"/>
<path d="M27.7835 45.8864H22.9407V50.9843H27.7835V45.8864Z" fill="#884E88" data-opposite="#FF742E"/>
<path d="M37.9475 42.0535L33.7964 44.5477L36.422 48.9175L40.5731 46.4233L37.9475 42.0535Z" fill="#884E88" data-opposite="#FF742E"/>
<path d="M11.4272 46.4236L15.5782 48.9178L18.2039 44.5481L14.0528 42.0538L11.4272 46.4236Z" fill="#884E88" data-opposite="#FF742E"/>
<path d="M5.86335 23.4534H0V27.7859H5.86335V23.4534Z" fill="#884E88" data-opposite="#FF742E"/>
<path d="M46.1366 27.786H52V23.4535H46.1366V27.786Z" fill="#884E88" data-opposite="#FF742E"/>
</svg>
