<svg width="16" height="16" viewBox="0 0 16 16" fill="none" xmlns="http://www.w3.org/2000/svg" class="status" title="Pending">
<g clip-path="url(#clip0)">
<path fill-rule="evenodd" clip-rule="evenodd" d="M1.49983 7.99997C1.49978 6.76575 1.85113 5.55703 2.51277 4.51515C3.17442 3.47328 4.11902 2.6413 5.23612 2.11653C6.35321 1.59176 7.59662 1.39588 8.82095 1.55179C10.0453 1.7077 11.1999 2.20897 12.1498 2.99697C12.3032 3.11943 12.4986 3.17687 12.6938 3.15695C12.8891 3.13703 13.0688 3.04134 13.1944 2.89042C13.3199 2.7395 13.3812 2.54538 13.3652 2.34973C13.3493 2.15409 13.2572 1.97251 13.1088 1.84397C11.7813 0.74286 10.1335 0.100258 8.41103 0.0119596C6.68855 -0.0763387 4.98366 0.394395 3.55051 1.35399C2.11737 2.31358 1.03272 3.71064 0.458253 5.33689C-0.116209 6.96315 -0.149716 8.73152 0.362726 10.3784C0.875169 12.0252 1.90612 13.4624 3.30188 14.4756C4.69765 15.4888 6.38348 16.0237 8.10807 16.0008C9.83265 15.9778 11.5036 15.3981 12.8719 14.348C14.2402 13.298 15.2325 11.8339 15.7008 10.174C15.7276 10.0792 15.7353 9.98 15.7237 9.88218C15.7122 9.78436 15.6814 9.68977 15.6333 9.60383C15.5851 9.51789 15.5205 9.44228 15.4431 9.3813C15.3658 9.32033 15.2771 9.27519 15.1823 9.24847C15.0875 9.22174 14.9884 9.21396 14.8905 9.22555C14.7927 9.23715 14.6981 9.26789 14.6122 9.31604C14.5263 9.36419 14.4506 9.42879 14.3897 9.50616C14.3287 9.58353 14.2836 9.67215 14.2568 9.76697C13.8314 11.2788 12.8731 12.5854 11.5589 13.4453C10.2447 14.3053 8.66367 14.6603 7.10801 14.4448C5.55236 14.2294 4.12733 13.4579 3.09638 12.2732C2.06543 11.0884 1.4983 9.57047 1.49983 7.99997ZM7.99983 12C8.26505 12 8.5194 11.8946 8.70694 11.7071C8.89447 11.5195 8.99983 11.2652 8.99983 11C8.99983 10.7348 8.89447 10.4804 8.70694 10.2929C8.5194 10.1053 8.26505 9.99997 7.99983 9.99997C7.73462 9.99997 7.48026 10.1053 7.29273 10.2929C7.10519 10.4804 6.99983 10.7348 6.99983 11C6.99983 11.2652 7.10519 11.5195 7.29273 11.7071C7.48026 11.8946 7.73462 12 7.99983 12ZM7.99983 3.99997C8.19874 3.99997 8.38951 4.07899 8.53016 4.21964C8.67081 4.36029 8.74983 4.55106 8.74983 4.74997V8.24997C8.74983 8.44888 8.67081 8.63965 8.53016 8.7803C8.38951 8.92095 8.19874 8.99997 7.99983 8.99997C7.80092 8.99997 7.61015 8.92095 7.4695 8.7803C7.32885 8.63965 7.24983 8.44888 7.24983 8.24997V4.74997C7.24983 4.55106 7.32885 4.36029 7.4695 4.21964C7.61015 4.07899 7.80092 3.99997 7.99983 3.99997Z" fill="#FF7A7A" data-opposite="#FF0000"/>
</g>
<defs>
<clipPath id="clip0">
<rect width="16" height="16" fill="white"/>
</clipPath>
</defs>
</svg>
