<svg width="24" height="24" viewBox="0 0 24 24" fill="none" xmlns="http://www.w3.org/2000/svg">
<path d="M19.396 20.708C18.586 20.646 18.663 19.896 19.427 19.755C20.696 19.521 21.254 18.841 21.254 18.212C21.254 17.683 20.858 17.19 20.156 17.031C19.319 16.842 19.492 16.274 20.187 16.219C21.319 16.129 21.875 15.455 21.875 14.809C21.875 14.244 21.45 13.701 20.614 13.589C19.757 13.474 20.036 12.855 20.645 12.667C21.166 12.507 21.999 12.167 21.999 11.157C21.999 10.485 21.499 9.595 19.728 9.667C18.5 9.717 16.061 9.469 14.749 8.782C15.656 5.125 15.438 0 13.062 0C11.468 0 11.166 1.807 10.687 3.469C8.969 9.438 5.531 10.531 2 11.072V21C8.688 21 10.5 24 15.505 24C18.704 24 20.357 22.265 20.357 21.334C20.356 21 20.084 20.762 19.396 20.708Z" fill="hsla(0, 0%, 98%, 0.82)" data-opposite="hsla(0, 0%, 8%, 0.52)"/>
</svg>
