<svg width="16" height="16" viewBox="0 0 16 16" fill="none" xmlns="http://www.w3.org/2000/svg">
<path fill-rule="evenodd" clip-rule="evenodd" d="M0 8.41296C0 11.7558 1.85392 14.6432 4.53948 16.0003C4.56736 15.9738 4.58332 15.9605 4.58332 15.9605L4.58346 15.9605L4.74934 15.8365L5.09056 15.5813L5.45463 15.3091L5.54929 15.2382L6.97781 14.1699L7.08323 14.0911L7.8252 13.5362C7.79367 13.328 7.75777 13.1019 7.72717 12.9123C7.14491 12.6552 6.68035 12.1672 6.4334 11.5605L6.43128 11.5622C6.10154 11.8208 5.58405 8.92939 6.62878 8.42583C6.62878 8.42583 7.45585 6.69771 8.91958 7.15548C10.3833 7.61325 11.1984 8.25069 11.243 8.86068C11.2877 9.47067 11.162 10.3788 11.162 10.3788C11.162 10.3788 11.1343 10.0896 10.9908 9.81469C11.0663 10.0762 11.1029 10.355 11.0936 10.6434C11.0741 11.2484 10.856 11.797 10.5075 12.2225C10.6024 12.493 10.7514 12.8017 10.8783 13.0454L10.8783 13.0439L13.7768 14.233C15.1539 12.7218 16 10.6713 16 8.41296C16 3.76661 12.4183 0 8 0C3.58172 0 0 3.76661 0 8.41296Z" fill="#FAFAFA" data-opposite="#151515"/>
</svg>
