<svg width="17" height="16" viewBox="0 0 17 16" fill="none" xmlns="http://www.w3.org/2000/svg">
<path fill-rule="evenodd" clip-rule="evenodd" d="M4.53948 16.0003C1.85392 14.6432 0 11.7558 0 8.41296C0 3.76661 3.58172 0 8 0C12.4183 0 16 3.76661 16 8.41296C16 9.39973 15.8385 10.3468 15.5417 11.2266L15.5026 11.2026L15.2534 11.6257C15.0686 11.5484 14.8723 11.4995 14.6711 11.4816V11H14.2054V11.4966C14.0482 11.5207 13.8945 11.564 13.7477 11.6254L13.4988 11.203L13.0997 11.4476L13.3402 11.8559C13.1842 11.9705 13.0459 12.1071 12.9292 12.261L12.5055 12.0215L12.2798 12.4368L12.6895 12.6685C12.6812 12.6871 12.6732 12.706 12.6655 12.7249C12.5906 12.9095 12.5432 13.1032 12.5241 13.2998H12V13.5041L10.8783 13.0439L10.8783 13.0454C10.7514 12.8017 10.6024 12.493 10.5075 12.2225C10.856 11.797 11.0741 11.2484 11.0936 10.6434C11.1029 10.355 11.0663 10.0762 10.9908 9.81469C11.1343 10.0896 11.162 10.3788 11.162 10.3788C11.162 10.3788 11.2877 9.47067 11.243 8.86068C11.1984 8.25069 10.3833 7.61325 8.91958 7.15548C7.45585 6.69771 6.62878 8.42583 6.62878 8.42583C5.58405 8.92939 6.10154 11.8208 6.43128 11.5622L6.4334 11.5605C6.68035 12.1672 7.14491 12.6552 7.72717 12.9123C7.75777 13.1019 7.79367 13.328 7.8252 13.5362L7.08323 14.0911L6.97781 14.1699L5.54929 15.2382L5.45463 15.3091L5.09056 15.5813L4.74934 15.8365L4.58346 15.9605L4.58332 15.9605C4.58332 15.9605 4.56736 15.9738 4.53948 16.0003ZM12.526 13.7199L12 13.5041V13.7247H12.5265C12.5328 13.7819 12.5414 13.8389 12.5525 13.8957C12.5797 14.0351 12.6211 14.1705 12.6755 14.2998L12.2646 14.5616L12.5114 14.9644L12.9083 14.7115C12.9654 14.7896 13.0282 14.8637 13.0963 14.9331C13.1719 15.0103 13.2531 15.0807 13.3391 15.1439L13.0983 15.5528L13.4974 15.7974L13.7464 15.3747C13.8644 15.4241 13.9873 15.462 14.1136 15.4876C14.1441 15.4938 14.1747 15.4993 14.2054 15.504V16.0003H14.6711V15.5191C14.87 15.5017 15.0662 15.4537 15.253 15.3758L15.5012 15.797L15.9003 15.5524L15.6606 15.1455C15.8249 15.0251 15.9708 14.8793 16.0927 14.7129L16.4879 14.9648L16.7347 14.562L16.3258 14.3014C16.4032 14.1181 16.4536 13.9239 16.4754 13.725H17V13.3001H16.4778C16.4562 13.0803 16.3996 12.8667 16.3114 12.6675L16.7196 12.4367L16.4938 12.0213L16.0712 12.2603C16.0201 12.193 15.9647 12.1288 15.9051 12.0681C15.8289 11.9903 15.7472 11.9196 15.6608 11.8562L15.9017 11.4472L15.5417 11.2266C15.4898 11.3801 15.4339 11.5316 15.374 11.681C15.3344 11.6612 15.2942 11.6427 15.2534 11.6257L15.2501 11.6312L15.3656 11.7019C15.3183 11.8188 15.2686 11.9343 15.2165 12.0484C14.9953 11.935 14.7504 11.8753 14.501 11.8753C14.0785 11.8753 13.6733 12.0465 13.3745 12.3512C13.0757 12.6559 12.9078 13.0691 12.9078 13.5001C12.9078 13.6343 12.924 13.7673 12.9558 13.8962L12.5378 13.7247H12.5638V13.2998H12.5241C12.5105 13.4391 12.5111 13.5799 12.526 13.7199ZM12.526 13.7199L12.5378 13.7247H12.5265L12.526 13.7199ZM12.9558 13.8962L13.7768 14.233C14.3599 13.5931 14.8478 12.8565 15.2165 12.0484C15.2749 12.0783 15.3315 12.1119 15.3862 12.1492C15.6482 12.3278 15.8524 12.5816 15.973 12.8785C16.0935 13.1754 16.1251 13.5022 16.0636 13.8174C16.0021 14.1326 15.8503 14.4221 15.6275 14.6494C15.4047 14.8766 15.1207 15.0314 14.8117 15.0941C14.5026 15.1567 14.1823 15.1245 13.8911 15.0015C13.6 14.8785 13.3512 14.6702 13.1762 14.4029C13.0742 14.2473 13 14.0758 12.9558 13.8962ZM15.3656 11.7019L15.374 11.681C15.474 11.7309 15.5699 11.7895 15.6608 11.8562L15.6493 11.8758L15.3656 11.7019ZM16.0712 12.2603C16.167 12.3865 16.2475 12.5232 16.3114 12.6675L16.2908 12.6791L16.0651 12.2637L16.0712 12.2603ZM16.4778 13.3001H16.4362V13.725H16.4754C16.4836 13.6506 16.4877 13.5755 16.4877 13.5001C16.4876 13.433 16.4843 13.3663 16.4778 13.3001ZM16.3258 14.3014L16.319 14.2971L16.0722 14.6998L16.0927 14.7129C16.1135 14.6844 16.1336 14.6554 16.153 14.6258C16.2204 14.5228 16.2782 14.4142 16.3258 14.3014ZM15.6606 15.1455C15.5372 15.236 15.4033 15.3123 15.2614 15.3722L15.253 15.3758L15.2487 15.3685L15.6478 15.1239L15.6606 15.1455ZM14.6711 15.5191V15.5003H14.2054V15.504C14.3601 15.5277 14.5164 15.5327 14.6711 15.5191ZM13.7464 15.3747L13.7499 15.3688L13.3507 15.1242L13.3391 15.1439C13.4656 15.2369 13.6023 15.3143 13.7464 15.3747ZM12.9083 14.7115L12.9271 14.6995L12.6803 14.2967L12.6755 14.2998C12.7369 14.4457 12.8151 14.5839 12.9083 14.7115ZM12.6895 12.6685L12.7085 12.6792L12.9342 12.2638L12.9292 12.261C12.8343 12.3862 12.7537 12.5229 12.6895 12.6685ZM13.3402 11.8559C13.359 11.8421 13.378 11.8287 13.3972 11.8155C13.5081 11.74 13.6255 11.6764 13.7477 11.6254L13.7513 11.6315L13.3522 11.8761L13.3402 11.8559ZM14.2054 11.4966V11.5H14.6711V11.4816C14.6147 11.4767 14.558 11.4741 14.501 11.474C14.4016 11.474 14.3028 11.4816 14.2054 11.4966Z" fill="#FAFAFA" data-opposite="#151515"/>
</svg>
