<svg width="16" height="16" viewBox="0 0 16 16" fill="none" xmlns="http://www.w3.org/2000/svg">
<g clip-path="url(#clip0)">
<path fill-rule="evenodd" clip-rule="evenodd" d="M1.50032 7.99997C1.50027 6.76575 1.85161 5.55703 2.51326 4.51515C3.17491 3.47328 4.11951 2.6413 5.2366 2.11653C6.3537 1.59176 7.59711 1.39588 8.82144 1.55179C10.0458 1.7077 11.2004 2.20897 12.1503 2.99697C12.3037 3.11943 12.499 3.17687 12.6943 3.15695C12.8896 3.13703 13.0693 3.04134 13.1948 2.89042C13.3204 2.7395 13.3817 2.54538 13.3657 2.34973C13.3497 2.15409 13.2577 1.97251 13.1093 1.84397C11.7818 0.74286 10.134 0.100258 8.41151 0.0119596C6.68904 -0.0763387 4.98415 0.394395 3.551 1.35399C2.11785 2.31358 1.0332 3.71064 0.458742 5.33689C-0.11572 6.96315 -0.149228 8.73152 0.363215 10.3784C0.875657 12.0252 1.90661 13.4624 3.30237 14.4756C4.69814 15.4888 6.38397 16.0237 8.10856 16.0008C9.83314 15.9778 11.5041 15.3981 12.8724 14.348C14.2407 13.298 15.2329 11.8339 15.7013 10.174C15.728 10.0792 15.7358 9.98 15.7242 9.88218C15.7126 9.78436 15.6819 9.68977 15.6337 9.60383C15.5856 9.51789 15.521 9.44228 15.4436 9.3813C15.3663 9.32033 15.2776 9.27519 15.1828 9.24847C15.088 9.22174 14.9889 9.21396 14.891 9.22555C14.7932 9.23715 14.6986 9.26789 14.6127 9.31604C14.5267 9.36419 14.4511 9.42879 14.3902 9.50616C14.3292 9.58353 14.284 9.67215 14.2573 9.76697C13.8319 11.2788 12.8735 12.5854 11.5594 13.4453C10.2452 14.3053 8.66416 14.6603 7.1085 14.4448C5.55285 14.2294 4.12781 13.4579 3.09687 12.2732C2.06592 11.0884 1.49879 9.57047 1.50032 7.99997ZM8.00032 12C8.26554 12 8.51989 11.8946 8.70743 11.7071C8.89496 11.5195 9.00032 11.2652 9.00032 11C9.00032 10.7348 8.89496 10.4804 8.70743 10.2929C8.51989 10.1053 8.26554 9.99997 8.00032 9.99997C7.7351 9.99997 7.48075 10.1053 7.29321 10.2929C7.10568 10.4804 7.00032 10.7348 7.00032 11C7.00032 11.2652 7.10568 11.5195 7.29321 11.7071C7.48075 11.8946 7.7351 12 8.00032 12ZM8.00032 3.99997C8.19923 3.99997 8.39 4.07899 8.53065 4.21964C8.6713 4.36029 8.75032 4.55106 8.75032 4.74997V8.24997C8.75032 8.44888 8.6713 8.63965 8.53065 8.7803C8.39 8.92095 8.19923 8.99997 8.00032 8.99997C7.80141 8.99997 7.61064 8.92095 7.46999 8.7803C7.32934 8.63965 7.25032 8.44888 7.25032 8.24997V4.74997C7.25032 4.55106 7.32934 4.36029 7.46999 4.21964C7.61064 4.07899 7.80141 3.99997 8.00032 3.99997Z" fill="#FF0000"/>
</g>
<defs>
<clipPath id="clip0">
<rect width="16" height="16" fill="white"/>
</clipPath>
</defs>
</svg>
