<svg width="134" height="133" viewBox="0 0 134 133" fill="none" xmlns="http://www.w3.org/2000/svg">
<path d="M66.9996 14.7777C56.7699 14.7777 46.7699 17.8112 38.2643 23.4945C29.7586 29.1778 23.1292 37.2557 19.2145 46.7067C15.2998 56.1577 14.2755 66.5573 16.2712 76.5904C18.2669 86.6235 23.193 95.8395 30.4264 103.073C37.6599 110.307 46.876 115.233 56.9091 117.228C66.9422 119.224 77.3418 118.2 86.7928 114.285C96.2438 110.37 104.322 103.741 110.005 95.2352C115.688 86.7296 118.722 76.7296 118.722 66.4999C118.722 59.7077 117.384 52.9819 114.785 46.7067C112.185 40.4314 108.376 34.7296 103.573 29.9268C98.7699 25.1239 93.068 21.3141 86.7928 18.7148C80.5176 16.1155 73.7918 14.7777 66.9996 14.7777V14.7777ZM76.276 67.7426V92.2334H57.9919V67.7426C55.4616 65.8273 53.5968 63.1657 52.6607 60.1335C51.7246 57.1014 51.7645 53.8517 52.7747 50.8434C53.7849 47.8351 55.7144 45.2201 58.2908 43.3674C60.8673 41.5148 63.9605 40.5181 67.1339 40.5181C70.3073 40.5181 73.4006 41.5148 75.977 43.3674C78.5535 45.2201 80.483 47.8351 81.4932 50.8434C82.5034 53.8517 82.5432 57.1014 81.6071 60.1335C80.671 63.1657 78.8062 65.8273 76.276 67.7426V67.7426Z" fill="#ACB0FF"/>
<path opacity="0.05" d="M66.9996 14.7777C56.7699 14.7777 46.7699 17.8112 38.2643 23.4945C29.7586 29.1778 23.1292 37.2557 19.2145 46.7067C15.2998 56.1577 14.2755 66.5573 16.2712 76.5904C18.2669 86.6235 23.193 95.8395 30.4264 103.073C37.6599 110.307 46.876 115.233 56.9091 117.228C66.9422 119.224 77.3418 118.2 86.7928 114.285C96.2438 110.37 104.322 103.741 110.005 95.2352C115.688 86.7296 118.722 76.7296 118.722 66.4999C118.722 59.7077 117.384 52.9819 114.785 46.7067C112.185 40.4314 108.376 34.7296 103.573 29.9268C98.7699 25.1239 93.068 21.3141 86.7928 18.7148C80.5176 16.1155 73.7918 14.7777 66.9996 14.7777V14.7777ZM76.276 67.7426V92.2334H57.9919V67.7426C55.4616 65.8273 53.5968 63.1657 52.6607 60.1335C51.7246 57.1014 51.7645 53.8517 52.7747 50.8434C53.7849 47.8351 55.7144 45.2201 58.2908 43.3674C60.8673 41.5148 63.9605 40.5181 67.1339 40.5181C70.3073 40.5181 73.4006 41.5148 75.977 43.3674C78.5535 45.2201 80.483 47.8351 81.4932 50.8434C82.5034 53.8517 82.5432 57.1014 81.6071 60.1335C80.671 63.1657 78.8062 65.8273 76.276 67.7426V67.7426Z" fill="black"/>
<path d="M67 0C53.8476 0 40.9905 3.90016 30.0546 11.2073C19.1187 18.5144 10.5953 28.9003 5.56204 41.0515C0.528812 53.2028 -0.788108 66.5737 1.77781 79.4735C4.34373 92.3732 10.6772 104.222 19.9774 113.523C29.2776 122.823 41.1268 129.156 54.0265 131.722C66.9263 134.288 80.2972 132.971 92.4484 127.938C104.6 122.905 114.986 114.381 122.293 103.445C129.6 92.5095 133.5 79.6524 133.5 66.5C133.5 48.8631 126.494 31.9486 114.023 19.4774C101.551 7.00623 84.6369 0 67 0V0ZM78.923 68.0987V99.582H55.4129V68.0987C52.1585 65.6358 49.7598 62.213 48.5555 58.3135C47.3512 54.4139 47.4022 50.2346 48.7011 46.3655C50.0001 42.4965 52.4815 39.1331 55.795 36.7503C59.1085 34.3675 63.0867 33.0856 67.1679 33.0856C71.2492 33.0856 75.2274 34.3675 78.5409 36.7503C81.8544 39.1331 84.3358 42.4965 85.6348 46.3655C86.9337 50.2346 86.9847 54.4139 85.7804 58.3135C84.5761 62.213 82.1774 65.6358 78.923 68.0987V68.0987Z" fill="#ACB0FF"/>
</svg>
