<svg width="24" height="24" viewBox="0 0 24 24" fill="none" xmlns="http://www.w3.org/2000/svg">
<path d="M19.396 3.292C18.585 3.354 18.662 4.104 19.427 4.245C20.695 4.479 21.253 5.159 21.253 5.788C21.253 6.317 20.857 6.81 20.155 6.969C19.318 7.158 19.491 7.726 20.186 7.781C21.319 7.871 21.874 8.545 21.874 9.191C21.874 9.756 21.45 10.299 20.614 10.411C19.757 10.526 20.036 11.145 20.645 11.333C21.166 11.493 21.999 11.833 21.999 12.843C21.999 13.515 21.499 14.405 19.728 14.333C18.5 14.283 16.062 14.531 14.749 15.218C15.656 18.875 15.438 24 13.062 24C11.468 24 11.166 22.193 10.687 20.531C8.969 14.562 5.531 13.469 2 12.928V3C8.688 3 10.5 0 15.505 0C18.703 0 20.357 1.735 20.357 2.666C20.356 3 20.084 3.238 19.396 3.292Z" fill="hsla(0, 0%, 98%, 0.82)" data-opposite="hsla(0, 0%, 8%, 0.52)"/>
</svg>
