<svg width="52" height="51" viewBox="0 0 52 51" fill="none" xmlns="http://www.w3.org/2000/svg">
<path d="M26 50.98C40.3594 50.98 52 39.5677 52 25.49C52 11.4123 40.3594 0 26 0C11.6406 0 0 11.4123 0 25.49C0 39.5677 11.6406 50.98 26 50.98Z" fill="#884E88" data-opposite="#FF742E"/>
<path d="M23.4236 35.2136C22.8387 35.2146 22.2693 35.0291 21.8013 34.6851L21.7723 34.6637L15.6619 30.0812C15.3789 29.8685 15.1414 29.6032 14.963 29.3005C14.7846 28.9979 14.6687 28.6637 14.622 28.3171C14.5753 27.9705 14.5987 27.6183 14.6909 27.2806C14.783 26.9429 14.9421 26.6262 15.159 26.3488C15.376 26.0713 15.6466 25.8385 15.9553 25.6636C16.2641 25.4887 16.6049 25.3751 16.9584 25.3293C17.312 25.2835 17.6712 25.3064 18.0157 25.3968C18.3602 25.4871 18.6831 25.6431 18.9661 25.8558L22.9239 28.8313L32.2764 16.8693C32.4933 16.5919 32.7637 16.3592 33.0723 16.1843C33.3809 16.0095 33.7217 15.8959 34.075 15.8502C34.4284 15.8044 34.7875 15.8273 35.1319 15.9177C35.4762 16.008 35.799 16.1639 36.0819 16.3765L36.0827 16.3771L36.0246 16.4561L36.0843 16.3771C36.6549 16.8071 37.0283 17.4415 37.1225 18.1411C37.2166 18.8407 37.0238 19.5483 36.5863 20.1087L25.5858 34.1723C25.3313 34.4964 25.0041 34.7586 24.6295 34.9386C24.2549 35.1187 23.8431 35.2117 23.426 35.2105L23.4236 35.2136Z" fill="white"/>
</svg>
