<svg width="180" height="172" viewBox="0 0 180 172" fill="none" xmlns="http://www.w3.org/2000/svg">
<path fill-rule="evenodd" clip-rule="evenodd" d="M0 90C0 125.757 20.8525 156.644 51.0603 171.163C51.3712 170.882 51.5491 170.742 51.5491 170.742L51.5494 170.742L53.4156 169.415L57.2542 166.685L61.35 163.773L62.4149 163.014L78.4858 151.586L79.6718 150.743L88.025 144.803L88.0271 144.801C87.6726 142.575 87.2691 140.159 86.9252 138.132C80.3743 135.382 75.1479 130.16 72.37 123.67L72.3438 123.689C68.6342 126.456 62.8124 95.5242 74.5656 90.1372C74.5656 90.1372 83.8702 71.6502 100.337 76.5473C116.804 81.4444 125.974 88.2637 126.476 94.7892C126.978 101.315 125.564 111.03 125.564 111.03C125.564 111.03 125.253 107.945 123.646 105.008C124.492 107.802 124.902 110.78 124.798 113.861C124.578 120.332 122.125 126.202 118.204 130.753C119.269 133.641 120.942 136.937 122.367 139.541L154.985 152.265C170.479 136.098 180 114.161 180 90C180 40.2944 139.706 0 90 0C40.2944 0 0 40.2944 0 90Z" fill="#3A3A3A" />
</svg>
