<svg width="16" height="21" viewBox="0 0 16 21" fill="none" xmlns="http://www.w3.org/2000/svg">
<path fill-rule="evenodd" clip-rule="evenodd" d="M13.7808 5.46444C13.9213 5.64654 14.0002 5.89338 14.0002 6.15074C14.0002 6.4081 13.9213 6.65494 13.7808 6.83704L6.53082 16.2251C6.3902 16.4069 6.19957 16.5091 6.00082 16.5091C5.80207 16.5091 5.61145 16.4069 5.47082 16.2251L2.22082 12.0166C2.08834 11.8325 2.01622 11.589 2.01965 11.3374C2.02308 11.0858 2.10179 10.8458 2.2392 10.6678C2.37661 10.4899 2.562 10.388 2.7563 10.3835C2.9506 10.3791 3.13865 10.4725 3.28082 10.644L6.00082 14.1662L12.7208 5.46444C12.8614 5.28257 13.0521 5.18042 13.2508 5.18042C13.4496 5.18042 13.6402 5.28257 13.7808 5.46444Z" fill="#006400"/>
</svg>
