<svg width="16" height="17" viewBox="0 0 16 17" fill="none" xmlns="http://www.w3.org/2000/svg">
<path fill-rule="evenodd" clip-rule="evenodd" d="M15.5841 14.0551C15.6105 14.0902 15.6253 14.1379 15.6253 14.1876C15.6253 14.2373 15.6105 14.2849 15.5841 14.3201L14.2248 16.1326C14.1984 16.1677 14.1627 16.1874 14.1254 16.1874C14.0881 16.1874 14.0524 16.1677 14.026 16.1326L13.4166 15.3201C13.3918 15.2845 13.3783 15.2375 13.3789 15.1889C13.3796 15.1404 13.3943 15.094 13.4201 15.0597C13.4459 15.0253 13.4806 15.0056 13.5171 15.0048C13.5535 15.0039 13.5887 15.022 13.6154 15.0551L14.1254 15.7351L15.3854 14.0551C15.4118 14.02 15.4475 14.0002 15.4848 14.0002C15.522 14.0002 15.5578 14.02 15.5841 14.0551Z" fill="#FAFAFA" data-opposite="#151515"/>
<path fill-rule="evenodd" clip-rule="evenodd" d="M0 8.41296C0 11.7558 1.85392 14.6432 4.53948 16.0003C4.56736 15.9738 4.58332 15.9605 4.58332 15.9605L4.58346 15.9605L4.74934 15.8365L5.09056 15.5813L5.45463 15.3091L5.54929 15.2382L6.97781 14.1699L7.08323 14.0911L7.8252 13.5362C7.79367 13.328 7.75777 13.1019 7.72717 12.9123C7.14491 12.6552 6.68035 12.1672 6.4334 11.5605L6.43128 11.5622C6.10154 11.8208 5.58405 8.92939 6.62878 8.42583C6.62878 8.42583 7.45585 6.69771 8.91958 7.15548C10.3833 7.61325 11.1984 8.25069 11.243 8.86068C11.2877 9.47067 11.162 10.3788 11.162 10.3788C11.162 10.3788 11.1343 10.0896 10.9908 9.81469C11.0663 10.0762 11.1029 10.355 11.0936 10.6434C11.0741 11.2484 10.856 11.797 10.5075 12.2225C10.6024 12.493 10.7514 12.8017 10.8783 13.0454L10.8783 13.0439L13.7768 14.233C15.1539 12.7218 16 10.6713 16 8.41296C16 3.76661 12.4183 0 8 0C3.58172 0 0 3.76661 0 8.41296Z" fill="#FAFAFA" data-opposite="#151515"/>
</svg>
