<svg width="16" height="21" viewBox="0 0 16 21" fill="none" xmlns="http://www.w3.org/2000/svg" class="status" title="Accepted">
<path fill-rule="evenodd" clip-rule="evenodd" d="M13.7798 5.46444C13.9203 5.64654 13.9992 5.89338 13.9992 6.15074C13.9992 6.4081 13.9203 6.65494 13.7798 6.83704L6.52985 16.2251C6.38922 16.4069 6.1986 16.5091 5.99985 16.5091C5.8011 16.5091 5.61047 16.4069 5.46985 16.2251L2.21985 12.0166C2.08737 11.8325 2.01524 11.589 2.01867 11.3374C2.0221 11.0858 2.10081 10.8458 2.23822 10.6678C2.37564 10.4899 2.56102 10.388 2.75532 10.3835C2.94963 10.3791 3.13767 10.4725 3.27985 10.644L5.99985 14.1662L12.7198 5.46444C12.8605 5.28257 13.0511 5.18042 13.2498 5.18042C13.4486 5.18042 13.6392 5.28257 13.7798 5.46444Z" fill="#56D364" data-opposite="#006400" />
</svg>
