<svg width="190" height="160" viewBox="0 0 190 160" fill="none" xmlns="http://www.w3.org/2000/svg">
<path d="M154.375 87.9167C134.718 87.9167 118.75 103.869 118.75 123.542C118.75 143.215 134.718 159.167 154.375 159.167C174.032 159.167 190 143.215 190 123.542C190 103.869 174.032 87.9167 154.375 87.9167ZM174.167 127.5H158.333V143.333H150.417V127.5H134.583V119.583H150.417V103.75H158.333V119.583H174.167V127.5ZM117.325 159.167H0V0.833374H55.4167C68.8354 16.2075 74.1871 24.5834 87.0833 24.5834H190V86.4917C180.745 77.5934 168.197 72.0834 154.375 72.0834C126.002 72.0834 102.917 95.1684 102.917 123.542C102.917 137.372 108.419 149.912 117.325 159.167Z" fill="#1DA1F2"/>
</svg>
