<svg width="49" height="48" viewBox="0 0 49 48" fill="none" xmlns="http://www.w3.org/2000/svg">
<circle cx="24.5" cy="24" r="24" fill="#1DA1F2"/>
<g clip-path="url(#clip0)">
<path d="M36.5 16.557C35.617 16.949 34.668 17.213 33.672 17.332C34.689 16.723 35.47 15.758 35.837 14.608C34.886 15.172 33.832 15.582 32.71 15.803C31.813 14.846 30.532 14.248 29.116 14.248C25.937 14.248 23.601 17.214 24.319 20.293C20.228 20.088 16.6 18.128 14.171 15.149C12.881 17.362 13.502 20.257 15.694 21.723C14.888 21.697 14.128 21.476 13.465 21.107C13.411 23.388 15.046 25.522 17.414 25.997C16.721 26.185 15.962 26.229 15.19 26.081C15.816 28.037 17.634 29.46 19.79 29.5C17.72 31.123 15.112 31.848 12.5 31.54C14.679 32.937 17.268 33.752 20.048 33.752C29.19 33.752 34.355 26.031 34.043 19.106C35.005 18.411 35.84 17.544 36.5 16.557Z" fill="white"/>
</g>
<defs>
<clipPath id="clip0">
<rect width="24" height="24" fill="white" transform="translate(12.5 12)"/>
</clipPath>
</defs>
</svg>
