<svg width="201" height="622" viewBox="0 0 201 622" fill="none" xmlns="http://www.w3.org/2000/svg">
<path d="M125.436 578.183L131.075 573.993C131.075 573.993 134.808 594.845 130.643 597.969C126.477 601.093 110.856 606.3 110.856 612.549C110.856 618.797 75.4492 627.128 74.4079 617.756C73.3665 608.383 77.532 603.176 77.532 603.176C77.532 603.176 94.1941 586.514 96.2769 583.39C98.3596 580.266 103.567 574.018 103.567 574.018L125.436 578.183Z" fill="#2F2E41"/>
<path d="M42.1255 318.879C42.1255 318.879 42.2817 319.795 42.5524 321.472C42.8024 322.961 43.146 325.065 43.5626 327.658C47.9365 354.348 60.6934 432.921 59.829 435.514C58.7876 438.638 51.4979 450.093 59.829 453.217C60.6309 453.519 61.4952 454.498 62.422 456.039C64.2109 459.359 65.6857 462.838 66.827 466.432C71.7945 480.845 77.1056 503.912 80.1776 519.886C81.5211 526.905 82.4374 532.55 82.7081 535.507C82.8023 536.191 82.8128 536.883 82.7394 537.569C81.698 541.735 88.9877 556.314 92.1118 560.479C95.236 564.645 100.443 568.81 99.4015 572.976C98.3601 577.142 125.436 588.597 128.56 581.307C131.684 574.017 131.684 569.852 132.726 567.769C133.767 565.686 134.809 551.107 129.602 549.024C124.395 546.942 127.519 510.493 122.312 503.203C120.573 500.777 117.917 492.56 115.137 482.678C114.043 478.804 112.939 474.68 111.856 470.546C107.462 453.602 103.567 436.555 103.567 436.555L104.608 314.713L47.3324 307.424L45.8641 310.662L42.9378 317.088L42.1255 318.879Z" fill="#464353"/>
<path d="M39.0012 518.824C39.0012 518.824 30.6701 510.493 26.5046 518.824C22.339 527.155 18.1735 559.438 10.8838 566.728C3.59415 574.017 -5.77828 610.466 4.63554 612.549C15.0494 614.631 26.5046 609.424 27.5459 603.176C28.5873 596.928 50.4563 564.645 50.4563 561.521C50.4563 558.397 35.8769 546.942 35.8769 546.942L39.0012 518.824Z" fill="#2F2E41"/>
<path d="M167.091 261.603C167.091 261.603 153.553 383.445 150.429 394.9C147.305 406.355 130.643 450.093 125.436 457.383C120.229 464.672 86.9048 524.031 82.7393 527.155C78.5738 530.279 70.2427 538.61 70.2427 538.61C70.2427 538.61 54.622 554.231 52.5392 557.355C50.4564 560.479 32.7529 551.107 31.7116 544.859C30.6702 538.61 32.7529 528.197 33.7943 524.031C34.8357 519.866 31.7116 513.617 34.8357 510.493C37.9598 507.369 53.5806 491.748 53.5806 484.459C53.5806 477.169 80.6565 434.472 91.0704 425.1C101.484 415.727 99.4014 400.107 99.4014 400.107V336.582L42.1254 318.879C42.1254 318.879 45.2495 268.892 52.5392 268.892C59.8289 268.892 155.636 252.23 167.091 261.603Z" fill="#464353"/>
<path d="M82.7387 87.6919C101.718 87.6919 117.104 72.3059 117.104 53.3263C117.104 34.3467 101.718 18.9607 82.7387 18.9607C63.7591 18.9607 48.373 34.3467 48.373 53.3263C48.373 72.3059 63.7591 87.6919 82.7387 87.6919Z" fill="#9F616A"/>
<path d="M94.1939 80.4022C94.1939 80.4022 98.3594 96.0229 103.566 100.188C108.773 104.354 90.0283 122.057 90.0283 122.057L54.6213 124.14L48.373 104.354C48.373 104.354 59.8282 81.4436 56.7041 66.8642C53.58 52.2849 94.1939 80.4022 94.1939 80.4022Z" fill="#9F616A"/>
<path d="M108.774 98.1057C108.774 98.1057 99.4015 99.1471 97.3187 102.271C95.236 105.395 80.6566 114.768 69.2014 112.685C57.7462 110.602 50.4565 107.478 48.3738 108.52C46.291 109.561 42.1255 131.43 42.1255 131.43L53.5807 164.754L51.4979 256.396L48.3738 281.389C48.3738 281.389 42.1255 273.058 67.1187 278.265C92.1118 283.472 124.395 274.099 134.809 273.058C145.222 272.017 162.926 268.892 163.967 262.644C165.009 256.396 160.843 233.485 160.843 233.485L144.181 163.713L133.767 126.223L108.774 98.1057Z" fill="#274DBB"/>
<path d="M98.9233 93.4057C98.9233 93.4057 107.732 88.7334 110.856 92.8989C113.981 97.0645 153.553 103.313 153.553 106.437C153.553 109.561 161.884 193.913 159.801 201.203C157.719 208.492 163.967 216.823 163.967 216.823L171.257 248.065C171.257 248.065 191.043 307.424 182.712 309.506C174.381 311.589 167.091 309.506 163.967 309.506C160.843 309.506 161.884 269.934 153.553 259.52C145.222 249.106 133.767 223.072 131.684 217.865C129.601 212.658 103.567 140.803 104.608 132.472C105.65 124.14 98.9233 93.4057 98.9233 93.4057Z" fill="#D0CDE1" data-opposite="#FD8244"/>
<path d="M55.6628 98.1057C55.6628 98.1057 47.3318 98.1057 46.2904 100.188C45.249 102.271 34.8352 115.809 30.6697 118.933C26.5041 122.058 11.9248 135.595 11.9248 138.72C11.9248 141.844 42.1249 164.754 42.1249 164.754C42.1249 164.754 54.6215 226.196 48.3732 247.023C42.1249 267.851 32.7525 317.837 36.918 320.962C41.0835 324.086 50.4559 325.127 50.4559 320.962C50.4559 316.796 56.7043 272.017 61.9112 262.644C67.1181 253.272 82.7388 193.913 76.4905 177.251C70.2422 160.589 55.6628 98.1057 55.6628 98.1057Z" fill="#D0CDE1" data-opposite="#FD8244"/>
<path d="M193.126 201.203C193.126 201.203 194.167 233.485 182.712 250.148C171.257 266.81 163.967 285.555 163.967 285.555C163.967 285.555 145.222 280.348 142.098 274.099C138.974 267.851 119.188 273.058 119.188 270.975C119.188 268.892 143.139 258.479 145.222 256.396C147.305 254.313 154.595 254.313 158.76 250.148C162.926 245.982 163.967 236.61 163.967 236.61L168.132 209.534L193.126 201.203Z" fill="#9F616A"/>
<path d="M106.408 32.1372C109.052 31.8971 111.779 31.6328 114.115 30.3727C119.351 27.5493 120.739 19.5089 116.754 15.0933C115.655 13.9698 114.426 12.9815 113.092 12.1494L105.177 6.76144C101.676 4.37847 98.0918 1.95644 94.0085 0.833073C90.3152 -0.182974 86.4145 -0.0785585 82.5914 0.159081C75.1697 0.620362 67.7021 1.57322 60.7215 4.13564C53.7409 6.69806 47.2293 10.9849 43.0015 17.1022C36.2992 26.7998 36.2071 39.8789 39.8985 51.0743C43.59 62.2698 50.602 72.0188 57.5113 81.5701L61.0963 64.0779C61.4156 62.5199 61.8285 60.8123 63.1243 59.8902C66.3449 57.5984 70.2845 62.3039 74.2372 62.2734C76.7769 62.2538 78.9092 60.1648 79.8717 57.8144C80.8342 55.464 80.8976 52.8612 81.1203 50.3311C81.5919 44.9723 83.465 37.5159 88.5398 34.5605C93.2688 31.8066 101.093 32.62 106.408 32.1372Z" fill="#2F2E41"/>
<path opacity="0.1" d="M104.48 319.719C104.48 319.719 100.963 421.455 98.8803 424.579C96.7975 427.703 98.8803 319.399 98.8803 319.399L104.48 319.719Z" fill="black"/>
<path d="M145.222 106.437H153.553C153.553 106.437 188.96 154.34 184.795 157.465C180.629 160.589 184.795 168.92 184.795 168.92L193.126 184.54C193.126 184.54 203.54 193.913 200.415 195.996C197.291 198.078 193.126 206.409 193.126 206.409C193.126 206.409 172.298 203.285 166.05 215.782L152.543 198.731L145.222 106.437Z" fill="#D0CDE1" data-opposite="#FD8244"/>
<path d="M148.167 121.845L119.58 133.65L141.578 186.923L170.166 175.118L148.167 121.845Z" fill="#2F2E41"/>
<path d="M144.816 153.09C147.974 151.786 149.562 148.378 148.365 145.477C147.167 142.576 143.636 141.282 140.478 142.586C137.321 143.889 135.732 147.298 136.93 150.199C138.128 153.1 141.658 154.394 144.816 153.09Z" fill="#6C63FF"/>
<path d="M124.395 189.747C124.395 189.747 49.415 252.23 36.9184 232.444C24.4218 212.658 50.4564 195.996 50.4564 195.996C50.4564 195.996 73.3668 197.037 99.4013 180.375L125.436 168.92C125.436 168.92 149.203 134.987 157.303 147.908C165.402 160.83 143.477 183.318 124.395 189.747Z" fill="#9F616A"/>
<path d="M23.38 134.554L11.9248 138.72V169.961L7.75928 176.209C7.75928 176.209 8.80066 188.706 11.9248 191.83C15.049 194.954 21.2972 193.913 19.2145 201.203C17.9627 205.955 17.6095 210.9 18.1731 215.782C18.1731 215.782 36.918 239.734 37.9594 236.61C39.0007 233.485 53.5801 194.954 55.6629 194.954C57.7456 194.954 34.8352 134.554 34.8352 134.554H23.38Z" fill="#D0CDE1" data-opposite="#FD8244"/>
<path d="M160.322 292.324C160.322 292.324 171.09 281.91 165.706 281.389C160.322 280.868 141.577 270.455 138.453 275.661C135.329 280.868 160.322 292.324 160.322 292.324Z" fill="#464353"/>
</svg>
