<svg width="381" height="288" viewBox="0 0 381 288" fill="none" xmlns="http://www.w3.org/2000/svg">
<path opacity="0.1" d="M222.482 256.886C236.396 256.886 247.676 254.352 247.676 251.227C247.676 248.103 236.396 245.569 222.482 245.569C208.568 245.569 197.288 248.103 197.288 251.227C197.288 254.352 208.568 256.886 222.482 256.886Z" fill="#274DBB"/>
<path opacity="0.1" d="M281.025 272.929C306.127 272.929 326.476 271.258 326.476 269.197C326.476 267.136 306.127 265.465 281.025 265.465C255.922 265.465 235.573 267.136 235.573 269.197C235.573 271.258 255.922 272.929 281.025 272.929Z" fill="#274DBB"/>
<path opacity="0.1" d="M98.532 269.197C123.634 269.197 143.984 266.663 143.984 263.538C143.984 260.414 123.634 257.88 98.532 257.88C73.4298 257.88 53.0804 260.414 53.0804 263.538C53.0804 266.663 73.4298 269.197 98.532 269.197Z" fill="#274DBB"/>
<path opacity="0.1" d="M167.831 240.873C186.719 240.873 202.03 238.339 202.03 235.215C202.03 232.09 186.719 229.557 167.831 229.557C148.943 229.557 133.632 232.09 133.632 235.215C133.632 238.339 148.943 240.873 167.831 240.873Z" fill="#274DBB"/>
<path d="M193.387 100.61C192.663 95.7387 188.24 84.3723 188.24 84.3723C188.162 84.0373 188.075 83.7023 187.978 83.3673C184.84 72.5804 180.497 71.6424 180.497 71.6424L164.938 68.2924C165.068 68.3739 165.182 68.4797 165.273 68.604C165.19 68.6116 165.109 68.6239 165.028 68.6408C164.316 67.7995 163.845 66.7807 163.665 65.6929C163.635 65.5321 163.608 65.3579 163.588 65.1937C164.706 64.1041 165.577 62.7881 166.144 61.3339C166.712 59.8797 166.962 58.321 166.877 56.7623C166.793 55.2035 166.376 53.6809 165.655 52.2965C164.934 50.912 163.926 49.6978 162.697 48.7353C162.533 48.608 162.362 48.4841 162.198 48.3668C162.932 47.5863 162.955 46.5009 162.406 45.4155C161.18 42.8695 158.514 41.2582 155.775 40.4709C153.682 39.8713 151.421 39.677 149.338 40.3336C148.156 40.7088 147.078 41.3386 145.969 41.898C143.903 42.9298 141.616 43.7472 140.072 45.4456C139.71 45.8409 139.375 46.3468 139.483 46.8694C139.563 47.258 139.871 47.5595 140.069 47.9045C140.514 48.6784 140.404 49.6532 140.099 50.4974C139.794 51.3416 139.349 52.1255 139.138 52.9898C138.927 53.8541 139.007 54.8725 139.657 55.4922C139.968 55.7327 140.292 55.9564 140.628 56.1622C140.983 56.4653 141.296 56.8158 141.556 57.204C142.172 58.0304 142.786 58.86 143.397 59.6931C144.261 60.7971 145.033 61.9702 145.705 63.2005C146.164 64.105 146.519 65.0698 147.131 65.8804C147.311 66.1171 147.517 66.3328 147.744 66.5236L147.564 66.4533C147.83 66.7244 148.149 66.9382 148.501 67.0817C148.852 67.2251 149.23 67.2951 149.61 67.2874C149.643 67.2874 149.673 67.2874 149.703 67.2874C149.843 67.2845 149.977 67.2295 150.079 67.1333C150.079 67.2472 150.079 67.3611 150.079 67.4683C150.115 68.6643 150.109 69.9373 150.025 71.1332L149.881 71.0595C149.667 70.9533 149.428 70.9101 149.191 70.935C148.953 70.9599 148.728 71.0519 148.541 71.2002L134.218 82.6973C134.218 82.6973 131.104 86.9584 131.539 94.315L129.027 105.346C129.027 105.346 125.889 114.706 128.304 121.389C130.718 128.073 132.118 131.895 132.118 131.895C132.118 131.895 133.083 139.489 134.533 140.109C135.983 140.729 136.609 141.064 136.609 141.064L136.897 142.879C136.897 142.879 136.994 143.057 137.165 143.355C138.22 145.191 142.128 151.67 144.399 150.976C144.685 152.736 144.808 154.518 144.767 156.299L147.014 171.391C147.014 171.391 148.582 175.495 148.484 177.645C148.387 179.796 150.313 182.861 150.313 182.861C149.143 185.004 148.8 187.501 149.348 189.879C150.266 193.899 151.425 212.418 151.425 212.418L153.099 216.907L153.052 222.17C152.915 223.028 152.557 223.836 152.014 224.515C150.929 225.694 151.01 227.057 148.394 228.669C145.779 230.28 144.121 230.89 144.121 233.024C144.118 233.321 144.091 233.618 144.04 233.911C143.799 235.479 143.33 236.33 148.14 236.786C153.789 237.322 157.557 233.637 157.557 233.637C157.557 233.637 158.387 232.129 162.299 231.52C162.299 231.52 163.638 231.449 163.709 230.267C163.735 229.858 163.729 229.077 163.709 228.217C163.645 226.578 163.488 224.666 163.28 224.572C163.019 224.454 162.563 222.806 162.406 222.21H163.494C163.494 222.21 164.499 214.616 163.494 209.698C162.49 204.78 163.397 201.293 163.397 201.293L163.203 188.305C163.203 188.305 161.863 186.871 162.915 184.339C163.967 181.806 162.915 169.297 162.915 169.297C162.915 169.297 163.303 164.808 164.412 163.756C165.52 162.705 164.466 157.18 164.412 156.892L166.388 163.522C166.388 163.522 167.255 176.701 169.094 179.086L169.623 185.056C169.623 185.056 173.387 190.549 172.664 193.508C171.94 196.466 173.437 207.165 173.437 207.165V218.103C173.437 218.103 171.746 222.495 174.107 224.073L175.112 224.032C174.777 224.344 174.519 224.813 174.127 225.218C173.675 225.684 173.417 227.456 173.273 228.98C173.153 230.27 173.112 231.379 173.112 231.379C173.112 231.379 174.117 232.987 176.009 233.097C177.901 233.208 184.137 237.952 184.137 237.952C184.137 237.952 190.296 237.952 191.89 237.617L191.984 237.593C192.495 237.432 192.926 237.081 193.186 236.612C193.505 236.067 193.608 235.423 193.474 234.806C193.276 233.865 192.529 232.833 190.875 231.955C186.759 229.784 186.146 227.751 186.146 227.751L183.444 223.694H183.829C183.829 223.694 183.591 219.396 186.532 214.572L186.341 193.323C186.341 193.323 187.546 186.017 185.473 182.051C185.473 182.051 185.303 177.85 186.689 176.56C188.075 175.27 184.844 162.236 184.844 162.236C184.844 162.236 184.174 155.237 183.387 148.852C186.645 151.944 190.024 140.813 190.594 138.833H190.678L190.641 138.689C190.664 138.595 190.678 138.548 190.678 138.548C190.678 138.548 189.954 135.975 190.483 136.498C191.012 137.02 192.318 135.064 192.318 135.064C192.318 135.064 192.124 124.414 194.395 119.048C196.665 113.681 193.387 100.61 193.387 100.61ZM183.675 107.387L183.692 107.356C184.027 113.859 183.628 127.734 183.628 127.734C183.628 127.734 183.179 129.513 182.7 131.607L182.366 118.425L182.031 106.006L183.675 107.387ZM142.111 102.904C142.111 102.904 143.752 123.436 142.111 126.398C141.646 127.242 141.254 128.743 140.929 130.454C140.387 129.031 139.238 125.687 139.65 123.915C140.182 121.624 138.588 115.604 138.588 115.463C138.588 115.323 138.444 112.113 139.593 109.661C140.742 107.209 139.988 106.147 139.988 106.147C139.988 106.147 140.953 102.127 142.111 102.904Z" fill="url(#paint0_linear)"/>
<path d="M146.11 149.147C144.68 155.435 138.994 145.928 137.697 143.647C137.53 143.348 137.436 143.174 137.436 143.174L138.052 140.283L141.311 138.943C141.827 139.213 142.316 139.532 142.771 139.895C144.556 141.298 147.212 144.276 146.11 149.147Z" fill="#D38884"/>
<path d="M190.225 138.86C190.225 138.86 190.225 138.906 190.189 139C190.189 139.04 190.162 139.094 190.145 139.151C189.586 141.114 186.27 152.166 183.069 149.097C179.566 145.747 181.267 138.002 181.267 138.002H181.29L188.658 137.248L190.118 138.749L190.225 138.86Z" fill="#D38884"/>
<path d="M185.962 193.246L186.15 214.351C183.26 219.141 183.497 223.396 183.497 223.396L173.973 223.771C171.649 222.207 173.303 217.848 173.303 217.848V206.981C173.303 206.981 171.833 196.365 172.543 193.424C173.253 190.482 169.559 185.049 169.559 185.049L169.037 179.123C167.235 176.754 166.381 163.673 166.381 163.673L164.449 157.067C164.502 157.351 165.507 162.865 164.449 163.88C163.39 164.895 162.979 169.378 162.979 169.378C162.979 169.378 164.02 181.799 162.979 184.308C161.937 186.818 163.26 188.245 163.26 188.245L163.451 201.139C163.451 201.139 162.55 204.599 163.545 209.48C164.539 214.361 163.545 221.902 163.545 221.902H153.327L153.374 216.639L151.719 212.184C151.719 212.184 150.581 193.792 149.68 189.809C149.141 187.449 149.476 184.973 150.624 182.841C150.624 182.841 148.732 179.809 148.826 177.676C148.92 175.542 147.366 171.471 147.366 171.471L145.162 156.494C145.223 153.611 144.855 150.736 144.071 147.961C142.791 143.693 140.896 138.099 140.896 138.099L143.036 138.29L153.833 139.251C153.833 139.251 180.085 137.486 181.26 138.953C181.508 139.433 181.676 139.95 181.756 140.484C182.935 145.78 184.492 162.373 184.492 162.373C184.492 162.373 187.667 175.314 186.304 176.593C184.941 177.873 185.108 182.041 185.108 182.041C187.151 185.977 185.962 193.246 185.962 193.246Z" fill="#464353"/>
<path d="M163.769 229.905C163.695 231.081 162.386 231.151 162.386 231.151C158.548 231.754 157.731 233.248 157.731 233.248C157.731 233.248 154.047 236.91 148.491 236.377C143.769 235.921 144.228 235.08 144.472 233.523C144.52 233.233 144.546 232.939 144.549 232.645C144.549 230.511 146.184 229.905 148.742 228.29C151.301 226.675 151.231 225.339 152.295 224.166C153.36 222.994 153.471 220.719 153.471 220.719C154.677 218.619 157.734 221.054 157.734 221.054C157.878 221.798 162.423 221.694 162.423 221.694C162.423 221.694 163.025 224.113 163.337 224.253C163.541 224.347 163.695 226.243 163.755 227.871C163.789 228.726 163.796 229.499 163.769 229.905Z" fill="#B07473"/>
<path opacity="0.1" d="M163.769 229.905C163.695 231.081 162.386 231.151 162.386 231.151C158.548 231.754 157.731 233.248 157.731 233.248C157.731 233.248 154.047 236.91 148.491 236.377C143.769 235.921 144.228 235.081 144.472 233.523C146.582 234.045 150.614 234.776 152.969 233.496C156.24 231.721 158.588 230.481 158.588 230.481L163.759 227.878C163.789 228.726 163.796 229.5 163.769 229.905Z" fill="black"/>
<path d="M192.694 236.233C192.442 236.698 192.019 237.048 191.515 237.208L191.424 237.231C189.86 237.566 183.816 237.566 183.816 237.566C183.816 237.566 177.704 232.839 175.855 232.732C174.007 232.625 173.012 231.024 173.012 231.024C173.012 231.024 173.049 229.925 173.166 228.645C173.31 227.131 173.561 225.372 174.007 224.91C174.824 224.056 175.011 222.9 176.85 223.63C176.85 223.63 179.475 219.001 182.57 222.578L185.771 227.436C185.771 227.436 186.374 229.446 190.43 231.627C192.051 232.498 192.774 233.523 192.978 234.457C193.107 235.064 193.006 235.697 192.694 236.233Z" fill="#B07473"/>
<path opacity="0.1" d="M192.694 236.233C192.332 236.538 191.933 236.866 191.515 237.208L191.424 237.231C189.86 237.566 183.816 237.566 183.816 237.566C183.816 237.566 177.704 232.839 175.855 232.732C174.007 232.625 173.012 231.024 173.012 231.024C173.012 231.024 173.049 229.925 173.166 228.645C175.048 229.208 177.898 230.203 178.662 231.275C179.834 232.906 183.394 235.184 183.394 235.184C183.394 235.184 190.031 234.545 192.978 234.457C193.107 235.064 193.006 235.697 192.694 236.233Z" fill="black"/>
<path d="M166.863 70.815L158.123 80.0576C158.123 80.0576 147.53 79.277 149.379 76.1482C150.32 74.5536 150.467 71.217 150.383 68.3159C150.306 65.5187 150.018 63.1369 150.018 63.1369C150.018 63.1369 164.874 55.7402 163.749 62.6377C163.506 63.9375 163.493 65.2695 163.709 66.5739C164.342 70.0579 166.863 70.815 166.863 70.815Z" fill="#D38884"/>
<path opacity="0.1" d="M163.735 62.6377C163.493 63.9375 163.479 65.2695 163.695 66.574C162.679 67.604 161.468 68.4214 160.133 68.9787C158.798 69.536 157.366 69.822 155.919 69.8201C153.91 69.8201 151.736 68.1685 150.112 67.2138C150.035 64.4132 150.018 63.1369 150.018 63.1369C150.018 63.1369 164.874 55.7402 163.735 62.6377Z" fill="black"/>
<path d="M166.863 58.2995C166.864 60.7806 166.023 63.1886 164.477 65.1289C162.931 67.0692 160.772 68.4268 158.354 68.9794C155.936 69.5319 153.402 69.2467 151.167 68.1704C148.932 67.0941 147.129 65.2905 146.052 63.055C144.976 60.8195 144.691 58.2848 145.243 55.8658C145.795 53.4469 147.152 51.2872 149.091 49.7405C151.031 48.1937 153.438 47.3517 155.918 47.3523C158.399 47.3529 160.805 48.196 162.744 49.7436C164.029 50.769 165.066 52.0706 165.779 53.5517C166.492 55.0328 166.863 56.6555 166.863 58.2995Z" fill="#D38884"/>
<path opacity="0.1" d="M181.756 140.484C179.03 146.973 161.495 147.107 161.495 147.107V140.032L160.433 139.962C160.892 141.988 159.79 146.93 159.79 146.93C145.933 148.886 142.553 140.987 142.553 140.987L143.036 138.283L153.833 139.245C153.833 139.245 180.085 137.479 181.26 138.947C181.509 139.428 181.676 139.948 181.756 140.484Z" fill="black"/>
<path d="M161.495 146.253V139.178L160.433 139.111C160.892 141.121 159.79 146.079 159.79 146.079C149.362 147.549 144.868 143.442 143.284 141.318C142.999 140.953 142.754 140.557 142.553 140.139L146.787 116.321L147.791 81.2668L149.308 75.1163L149.66 72.165V72.1315H149.697L150.775 72.5938L157.228 75.3843L164.559 69.8468L164.666 69.7697L165.031 69.4917L165.638 69.9774L167.145 71.1868L171.977 102.405C171.977 102.405 180.349 126.441 181.917 136.143C181.98 136.531 182.031 136.893 182.071 137.231C183.106 146.089 161.495 146.253 161.495 146.253Z" fill="#274DBB"/>
<path d="M158.012 76.6975C158.356 76.6975 158.635 76.4185 158.635 76.0744C158.635 75.7303 158.356 75.4513 158.012 75.4513C157.668 75.4513 157.389 75.7303 157.389 76.0744C157.389 76.4185 157.668 76.6975 158.012 76.6975Z" fill="#CCCCCC"/>
<path d="M158.3 82.3857C158.644 82.3857 158.923 82.1067 158.923 81.7626C158.923 81.4185 158.644 81.1395 158.3 81.1395C157.956 81.1395 157.677 81.4185 157.677 81.7626C157.677 82.1067 157.956 82.3857 158.3 82.3857Z" fill="#CCCCCC"/>
<path d="M158.923 91.5948C159.267 91.5948 159.546 91.3159 159.546 90.9717C159.546 90.6276 159.267 90.3486 158.923 90.3486C158.579 90.3486 158.3 90.6276 158.3 90.9717C158.3 91.3159 158.579 91.5948 158.923 91.5948Z" fill="#CCCCCC"/>
<path d="M159.951 101.514C160.295 101.514 160.574 101.235 160.574 100.891C160.574 100.547 160.295 100.268 159.951 100.268C159.607 100.268 159.328 100.547 159.328 100.891C159.328 101.235 159.607 101.514 159.951 101.514Z" fill="#CCCCCC"/>
<path d="M160.574 110.827C160.918 110.827 161.197 110.548 161.197 110.204C161.197 109.86 160.918 109.581 160.574 109.581C160.23 109.581 159.951 109.86 159.951 110.204C159.951 110.548 160.23 110.827 160.574 110.827Z" fill="#CCCCCC"/>
<path d="M161.197 120.746C161.541 120.746 161.82 120.467 161.82 120.123C161.82 119.779 161.541 119.5 161.197 119.5C160.853 119.5 160.574 119.779 160.574 120.123C160.574 120.467 160.853 120.746 161.197 120.746Z" fill="#CCCCCC"/>
<path d="M160.949 130.558C161.293 130.558 161.572 130.279 161.572 129.935C161.572 129.591 161.293 129.312 160.949 129.312C160.605 129.312 160.326 129.591 160.326 129.935C160.326 130.279 160.605 130.558 160.949 130.558Z" fill="#CCCCCC"/>
<path opacity="0.1" d="M150.075 119.785C150.075 119.785 149.379 128.907 148.099 131.56C146.82 134.213 146.251 141.657 146.251 141.657L143.28 141.322C142.995 140.956 142.751 140.561 142.55 140.143L146.783 116.324L147.788 81.2702L149.308 75.1163L149.66 72.165L149.7 72.1482C149.866 72.0698 150.048 72.0306 150.231 72.0335C150.415 72.0364 150.595 72.0814 150.758 72.165L150.899 72.2387C150.857 72.3593 150.816 72.4832 150.778 72.6105C149.62 76.2385 149.188 82.9251 149.188 82.9251C149.188 82.9251 150.862 95.1558 151.036 100.844C151.21 106.532 150.075 119.785 150.075 119.785Z" fill="black"/>
<path opacity="0.1" d="M142.771 139.905C142.739 139.981 142.701 140.055 142.657 140.126C141.505 142.072 138.585 143.308 137.697 143.647C137.53 143.348 137.436 143.174 137.436 143.174L138.052 140.283L141.311 138.943C141.827 139.216 142.316 139.538 142.771 139.905Z" fill="black"/>
<path d="M134.878 93.3535L132.175 94.9648L129.714 105.916C129.714 105.916 126.633 115.205 129 121.842C131.368 128.478 132.745 132.277 132.745 132.277C132.745 132.277 133.692 139.814 135.116 140.431C136.539 141.047 137.152 141.379 137.152 141.379L137.436 143.181C137.436 143.181 141.294 141.871 142.657 139.563C144.02 137.255 141.653 131.523 141.653 131.523C141.653 131.523 139.617 126.639 140.139 124.364C140.661 122.09 139.094 116.117 139.094 115.989C139.094 115.862 138.953 112.669 140.099 110.227C141.244 107.785 140.481 106.743 140.481 106.743L139.767 99.7754L134.878 93.3535Z" fill="#CCCCCC"/>
<path opacity="0.1" d="M181.98 138.434C181.98 138.434 174.824 141.134 172.55 138.769C170.276 136.404 170.51 125.305 170.51 125.305C170.51 125.305 168.334 104.827 166.957 101.464C165.581 98.1004 166.287 73.8265 166.287 73.8265C166.287 73.8265 165.363 70.6876 164.556 69.8668C164.505 69.8141 164.448 69.768 164.385 69.7295L164.663 69.7898L165.634 69.9975L167.141 71.2068L171.974 102.425C171.974 102.425 180.346 126.461 181.913 136.163L181.98 138.434Z" fill="black"/>
<path opacity="0.1" d="M190.225 139.144H190.145C189.244 139.262 181.294 140.223 181.26 138.568C181.259 138.377 181.269 138.185 181.291 137.995L188.658 137.241L190.118 138.742C190.145 138.839 190.165 138.923 190.185 138.99L190.225 139.144Z" fill="black"/>
<path d="M182.596 82.3857L187.821 85.1126C187.821 85.1126 192.174 96.3886 192.871 101.223C192.871 101.223 196.096 114.174 193.876 119.5C191.655 124.826 191.839 135.399 191.839 135.399C191.839 135.399 190.56 137.342 190.038 136.823C189.515 136.303 190.229 138.859 190.229 138.859C190.229 138.859 181.297 140.045 181.26 138.29C181.223 136.535 183.31 128.146 183.31 128.146C183.31 128.146 183.879 108.191 183.072 105.062C182.265 101.933 182.596 82.3857 182.596 82.3857Z" fill="#CCCCCC"/>
<path opacity="0.1" d="M167.007 103.641C167.007 103.641 164.067 110.844 163.119 111.319C162.171 111.795 163.31 113.688 163.31 113.688C163.31 113.688 168.665 106.201 167.007 103.641Z" fill="black"/>
<path opacity="0.1" d="M165.252 78.3758C165.286 78.2384 161.746 81.8497 160.798 82.3957C159.851 82.9418 164.258 82.3622 165.252 78.3758Z" fill="black"/>
<path opacity="0.1" d="M155.397 103.072C155.397 103.072 149.995 106.566 150.708 107.949C151.421 109.333 155.397 103.072 155.397 103.072Z" fill="black"/>
<path opacity="0.1" d="M165.206 154.075C165.206 154.075 169.804 157.033 176.957 157.76L165.206 154.075Z" fill="black"/>
<path opacity="0.1" d="M154.164 161.187C154.164 161.187 158.427 166.547 160.373 166.684C162.319 166.822 154.164 161.187 154.164 161.187Z" fill="black"/>
<path opacity="0.1" d="M160.135 182.191C159.944 182.285 157.717 187.025 155.447 187.169C153.176 187.313 160.135 182.191 160.135 182.191Z" fill="black"/>
<path opacity="0.1" d="M179.894 192.576C179.894 192.576 184.12 191.628 185.061 194.66C185.061 194.65 184.777 193.702 179.894 192.576Z" fill="black"/>
<path opacity="0.1" d="M177.051 209.916C177.051 209.916 182.171 208.87 183.26 210.294C184.348 211.718 177.051 209.916 177.051 209.916Z" fill="black"/>
<path opacity="0.1" d="M162.567 212.341C162.567 212.388 157.356 213.386 157.543 214.049C157.731 214.713 163.102 214.619 163.293 213.574C163.328 213.445 163.336 213.311 163.318 213.179C163.3 213.047 163.255 212.92 163.188 212.805C163.12 212.691 163.03 212.59 162.924 212.511C162.817 212.431 162.696 212.373 162.567 212.341Z" fill="black"/>
<path opacity="0.1" d="M175.346 216.837C175.346 216.837 183.909 215.792 183.384 217.594C182.858 219.396 175.346 216.837 175.346 216.837Z" fill="black"/>
<path opacity="0.1" d="M130.517 111.319C130.564 111.46 136.157 112.22 136.914 114.023C136.914 114.023 131.418 111.46 130.551 111.46" fill="black"/>
<path opacity="0.1" d="M138.384 125.965C138.384 125.965 133.739 127.436 134.071 129.65C134.402 131.865 133.598 128.625 138.384 125.965Z" fill="black"/>
<path opacity="0.1" d="M136.221 137.248C136.221 137.248 137.912 134.927 139.523 135.352C141.134 135.778 136.221 137.248 136.221 137.248Z" fill="black"/>
<path opacity="0.1" d="M162.744 49.7437C162.581 49.9015 162.399 50.0378 162.202 50.149C160.862 50.9295 160.494 52.1322 159.857 53.5191C159.265 54.7887 158.612 56.132 157.416 56.8523C155.872 57.7836 153.839 57.4419 152.235 58.2526C151.523 58.6234 150.938 59.1991 150.556 59.9055C150.174 60.6118 150.013 61.4164 150.092 62.2156C150.194 62.8322 150.346 63.4395 150.547 64.0313C150.912 65.3126 151.077 66.6425 151.036 67.9742C151.04 68.0132 151.04 68.0524 151.036 68.0914C149.664 67.4055 148.451 66.4386 147.476 65.2534C146.501 64.0682 145.787 62.6913 145.378 61.2119C144.97 59.7325 144.877 58.1838 145.106 56.6663C145.334 55.1487 145.88 53.6962 146.706 52.4029C147.532 51.1097 148.621 50.0047 149.901 49.1596C151.182 48.3145 152.626 47.7482 154.14 47.4975C155.653 47.2467 157.203 47.3171 158.687 47.7041C160.172 48.091 161.559 48.7859 162.758 49.7437H162.744Z" fill="black"/>
<path d="M162.459 46.4473C161.257 43.9214 158.642 42.3202 155.952 41.5396C153.9 40.9467 151.669 40.7524 149.633 41.4056C148.471 41.7741 147.416 42.4106 146.328 42.9567C144.298 43.9817 142.068 44.7924 140.541 46.4775C140.182 46.8694 139.871 47.3719 139.961 47.8912C140.038 48.2764 140.34 48.5611 140.534 48.9162C140.973 49.6867 140.869 50.6549 140.564 51.4924C140.259 52.3299 139.827 53.107 139.62 53.968C139.412 54.8289 139.493 55.8373 140.129 56.4503C140.413 56.7217 140.779 56.8925 141.087 57.1203C141.435 57.4212 141.74 57.7683 141.994 58.1521L143.803 60.6244C144.652 61.72 145.409 62.8842 146.066 64.105C146.515 65.0028 146.864 65.9609 147.466 66.7615C148.069 67.5621 149.007 68.2053 150.005 68.1182C150.082 68.1202 150.159 68.1039 150.229 68.0708C150.298 68.0376 150.359 67.9884 150.407 67.9273C150.444 67.8489 150.461 67.7626 150.457 67.676C150.501 66.3493 150.339 65.0238 149.978 63.7465C149.776 63.1549 149.624 62.5476 149.523 61.9309C149.446 61.132 149.608 60.3283 149.99 59.6224C150.372 58.9165 150.955 58.3404 151.666 57.9678C153.273 57.1572 155.306 57.4988 156.847 56.5709C158.046 55.8473 158.699 54.504 159.288 53.2209C159.934 51.8341 160.293 50.6314 161.632 49.8509C162.972 49.0703 163.126 47.7772 162.459 46.4473Z" fill="#585268"/>
<path opacity="0.1" d="M157.557 225.426C157.557 225.426 159.231 227.56 158.796 228.776C158.36 229.992 157.557 225.426 157.557 225.426Z" fill="black"/>
<path opacity="0.1" d="M180.212 230.766C180.212 230.766 180.584 227.905 182.074 227.878C183.564 227.851 183.638 227.724 184.777 228.163C185.915 228.602 186.984 229.282 186.642 229.382C186.301 229.483 184.683 227.747 183.022 228.635C181.985 229.203 181.038 229.921 180.212 230.766Z" fill="black"/>
<path opacity="0.1" d="M152.56 78.9721L157.249 75.6858C157.249 75.6858 150.39 71.6323 149.573 72.2018C148.756 72.7713 148.193 77.8968 148.193 77.8968L152.56 78.9721Z" fill="black"/>
<path d="M152.54 78.7611L157.228 75.4111C157.228 75.4111 150.37 71.3577 149.553 71.9272C148.736 72.4967 148.173 77.9035 148.173 77.9035L152.54 78.7611Z" fill="#E1E7EF"/>
<path d="M152.54 78.7611L157.228 75.4111C157.228 75.4111 150.37 71.3577 149.553 71.9272C148.736 72.4967 148.173 77.9035 148.173 77.9035L152.54 78.7611Z" fill="#274DBB"/>
<path d="M150.33 71.9539L150.189 71.8836C149.98 71.7769 149.744 71.733 149.511 71.7574C149.277 71.7818 149.056 71.8733 148.873 72.0209L134.807 83.4343C134.807 83.4343 131.75 87.6653 132.175 94.9648L140.47 106.72C140.47 106.72 141.418 102.74 142.554 103.497C142.554 103.497 144.164 123.882 142.554 126.82C140.943 129.758 140.233 140.756 140.233 140.756L145.681 141.372C145.681 141.372 146.251 133.928 147.53 131.275C148.809 128.622 149.506 119.5 149.506 119.5C149.506 119.5 150.658 106.248 150.467 100.559C150.276 94.871 148.618 82.6403 148.618 82.6403C148.618 82.6403 149.084 75.4714 150.33 71.9539Z" fill="#CCCCCC"/>
<path opacity="0.1" d="M164.342 76.8952L158.498 74.7311C158.498 74.7311 165.939 66.5773 166.87 71.0997L164.342 76.8952Z" fill="black"/>
<path d="M164.342 76.6104L158.498 74.4463C158.498 74.4463 165.939 66.2925 166.87 70.815L164.342 76.6104Z" fill="#E1E7EF"/>
<path d="M164.342 76.6104L158.498 74.4463C158.498 74.4463 165.939 66.2925 166.87 70.815L164.342 76.6104Z" fill="#274DBB"/>
<path opacity="0.1" d="M164.151 69.6726C164.235 69.659 164.321 69.6782 164.392 69.7262L164.151 69.6726Z" fill="black"/>
<path d="M164.713 69.1065L180.219 72.4565C180.219 72.4565 184.485 73.4045 187.566 84.1177C190.647 94.8309 183.347 107.956 183.347 107.956L181.736 106.586L182.543 137.871C182.543 137.871 175.386 140.571 173.112 138.206C170.839 135.841 171.076 124.733 171.076 124.733C171.076 124.733 168.896 104.258 167.52 100.891C166.143 97.5243 166.85 73.2571 166.85 73.2571C166.85 73.2571 165.584 68.9189 164.713 69.1065Z" fill="#CCCCCC"/>
<path opacity="0.1" d="M178.899 89.0421C178.682 89.2431 178.427 98.7101 179.375 105.916C179.954 110.304 180.85 114.645 182.054 118.904L180.648 90.0371C180.648 90.0371 179.562 88.4257 178.899 89.0421Z" fill="black"/>
<path opacity="0.1" d="M177.004 80.8883C177.382 81.1262 179.043 85.059 178.283 86.6703C177.523 88.2817 177.004 80.8883 177.004 80.8883Z" fill="black"/>
<path opacity="0.1" d="M162.369 46.4473C161.608 44.9479 160.422 43.7059 158.96 42.8762C160.047 43.655 160.925 44.6908 161.515 45.8912C162.185 47.2312 161.987 48.5712 160.685 49.3048C159.382 50.0385 158.977 51.288 158.34 52.6749C157.748 53.9445 157.094 55.2878 155.896 56.0248C154.355 56.9561 152.322 56.6111 150.715 57.4218C150.004 57.7956 149.421 58.3724 149.04 59.0787C148.658 59.785 148.495 60.5889 148.571 61.3881C148.674 62.0038 148.828 62.61 149.03 63.2005C149.395 64.4818 149.56 65.8118 149.519 67.1434C149.522 67.2303 149.504 67.3166 149.466 67.3946C149.419 67.4561 149.359 67.5056 149.29 67.5388C149.22 67.5721 149.144 67.5881 149.067 67.5856C148.665 67.6164 148.262 67.5413 147.898 67.3678C148.162 67.6293 148.476 67.834 148.822 67.9694C149.167 68.1048 149.537 68.168 149.908 68.1551C149.968 68.1639 150.03 68.1585 150.088 68.1395C150.146 68.1205 150.198 68.0883 150.242 68.0455C150.285 68.0027 150.318 67.9503 150.338 67.8926C150.358 67.8349 150.364 67.7734 150.356 67.7129C150.4 66.3813 150.236 65.0512 149.871 63.77C149.667 63.1789 149.513 62.5715 149.412 61.9543C149.335 61.1554 149.498 60.3517 149.879 59.6458C150.261 58.9399 150.845 58.3639 151.555 57.9913C153.163 57.1806 155.196 57.5223 156.736 56.5943C157.935 55.8707 158.588 54.5274 159.177 53.2444C159.824 51.8575 160.182 50.6548 161.522 49.8743C162.861 49.0938 163.039 47.7772 162.369 46.4473Z" fill="black"/>
<path d="M257.77 88.5162C253.155 88.4258 249.083 85.1662 246.775 81.1831C246.17 80.2354 245.79 79.1617 245.663 78.0442C245.679 77.7903 245.722 77.5388 245.791 77.2938C245.932 76.92 246.044 76.5358 246.126 76.1448C246.144 75.989 246.144 75.8316 246.126 75.6758C246.126 75.6758 246.126 75.6758 246.126 75.649C246.236 74.8014 245.737 73.974 245.121 73.3945C244.505 72.8149 243.731 72.3895 243.088 71.8133C241.106 70.0713 240.503 67.2774 240.466 64.6175V64.4768C240.489 63.3379 240.58 62.1955 240.57 61.0565C240.585 60.4099 240.557 59.7631 240.486 59.1202C240.295 57.5089 239.682 55.8674 238.416 54.839C235.114 52.159 229.562 54.9495 226.143 52.417C225.312 51.7972 224.639 50.8827 223.631 50.6415C222.871 50.4572 222.08 50.7051 221.337 50.953C218.818 51.7838 216.009 52.8759 215.024 55.308C214.462 56.7049 214.619 58.2995 214.103 59.7132C213.768 60.6612 213.129 61.4753 212.663 62.3731C212.281 63.049 212.095 63.8183 212.127 64.5941C212.086 64.9957 212.142 65.4014 212.291 65.7766C212.466 66.2289 212.748 66.6322 213.112 66.9525C212.981 67.2322 212.816 67.4953 212.623 67.7364C211.98 68.5236 210.992 69.0763 210.322 69.8602C209.083 71.2974 209.13 73.2504 209.74 74.9388C210.349 76.6272 211.451 78.1648 212.211 79.8096C212.546 80.5232 212.8 81.3205 212.462 82.0307C212.224 82.5231 211.732 82.8983 211.35 83.3238C210.792 83.9502 210.441 84.7342 210.346 85.5682C202.807 87.2901 202.801 93.3502 202.801 93.3502L198.728 103.594C198.728 103.594 198.075 105.32 197.308 107.598L192.489 106.733L195.838 112.341C195.205 114.626 194.756 116.743 194.904 117.808C194.904 117.808 193.407 124.843 196.069 126.073L201.943 128.716C202.198 128.872 202.471 128.995 202.757 129.081L202.995 129.188C203.08 129.23 203.174 129.251 203.269 129.251C203.365 129.251 203.458 129.23 203.544 129.188H203.561H203.624C203.738 129.196 203.853 129.179 203.959 129.138C204.09 129.067 204.194 128.955 204.254 128.82C204.252 128.809 204.252 128.797 204.254 128.786L206.012 128.277L207.502 130.042C208.172 130.515 208.842 130.923 209.475 131.292L207.168 154.212C207.168 154.212 206.796 184.697 205.671 191.645C205.255 194.218 205.252 195.973 205.409 197.166L205.366 197.239C205.644 199.199 206.371 199.584 206.371 199.584V199.558C206.384 199.568 206.399 199.577 206.414 199.584C206.753 198.694 207.156 197.83 207.62 196.998C207.62 197.162 207.62 197.333 207.62 197.501C207.596 200.087 207.516 203.708 207.248 206.063C206.793 210.083 208.413 223.332 208.413 223.332L208.973 235.392C209.064 237.44 208.589 239.473 207.6 241.268C206.26 243.677 204.549 247.067 204.425 248.571C204.418 248.652 204.418 248.734 204.425 248.815L201.551 252.273C201.551 252.273 200.43 254.008 202.965 254.708C204.328 255.087 206.679 254.708 208.567 254.262C209.392 254.072 210.128 253.609 210.655 252.947C211.182 252.285 211.47 251.464 211.471 250.618C211.948 248.957 212.755 247.408 213.842 246.065L214.314 248.842L217.476 249.626L217.881 242.015C218.044 241.588 218.118 241.132 218.098 240.675C218.721 235.261 216.632 235.747 216.632 235.747C216.688 235.795 216.723 235.862 216.732 235.935L216.632 235.751C215.349 233.218 215.962 229.051 215.962 229.051C215.962 229.051 217.636 216.991 218.209 213.805C218.621 211.554 218.45 204.184 218.313 200.07C218.313 199.899 218.313 199.735 218.296 199.571C223.199 199.507 229.207 199.343 233.423 198.934V199.43L232.646 227.922C232.593 229.738 232.223 231.532 231.554 233.221C231.554 233.255 231.531 233.285 231.518 233.319C230.593 235.705 230.072 238.228 229.974 240.786L229.612 249.83V250.082C228.982 250.323 227.988 251.023 227.961 253.053C227.917 256.028 233.159 255.036 233.159 255.036C238.396 255.036 238.44 249.583 238.44 249.583C238.44 249.583 238.604 244.581 238.855 241.234C239.106 237.888 238.065 238.625 238.065 238.625L237.984 248.145C237.984 248.169 237.984 248.192 237.984 248.219V239.874L238.065 238.665V238.632V238.374L238.724 228.555C238.724 228.555 243.55 212.194 244.297 209.055C244.83 206.824 244.609 200.104 244.434 196.388C244.434 196.218 244.434 196.053 244.408 195.896C245.905 195.762 247.227 195.749 247.757 195.749H248.001C248.001 195.749 247.753 169.472 247.127 159.569C246.501 149.666 245.506 140.605 243.011 137.878C241.504 136.23 239.404 131.141 237.988 127.372C240.966 128.66 244.057 129.67 247.221 130.387C255.121 132.042 254.039 125.182 254.039 125.182L253.239 112.207H253.292C253.263 108.809 252.972 105.417 252.422 102.063C252.003 99.4907 251.363 96.8308 250.385 94.6935C251.243 94.3585 252.09 94.0001 252.921 93.6316C255.067 92.6836 257.485 91.3402 257.793 89.0254H257.689C257.731 88.8583 257.758 88.6879 257.77 88.5162ZM208.799 107.276C208.815 108.616 208.765 110.941 208.685 113.51L206.176 110.16L208.691 106.08L208.799 107.276ZM243.453 119.148L239.274 117.808C240.015 116.652 240.881 115.58 241.856 114.612L242.217 114.277L242.087 114.304L242.288 114.12L242.408 114.093L242.217 114.277L242.445 114.231C242.697 115.281 243.183 116.26 243.868 117.095C245.369 118.733 243.456 119.148 243.456 119.148H243.453Z" fill="url(#paint1_linear)"/>
<path d="M218.065 239.744L217.576 249.016L214.458 248.236L213.802 244.38L218.065 239.744Z" fill="#A27772"/>
<path opacity="0.1" d="M218.065 239.744L217.576 249.016L214.458 248.236L213.802 244.38L218.065 239.744Z" fill="black"/>
<path d="M229.508 250.246L234.264 251.231L237.79 248.115V239.335L237.871 238.136V238.099V237.844L238.527 228.086C238.527 228.086 243.286 211.842 244.026 208.723C244.548 206.512 244.331 199.839 244.156 196.151C244.086 194.64 244.026 193.628 244.026 193.628L233.527 191.085L233.306 199.159L232.539 227.446C232.486 229.249 232.122 231.029 231.464 232.709L231.427 232.806C230.514 235.175 229.999 237.679 229.903 240.216L229.548 249.211V249.459L229.508 250.246Z" fill="#CC818C"/>
<path opacity="0.1" d="M229.508 250.246L234.264 251.231L237.79 248.115V247.368C237.779 247.533 237.726 247.693 237.638 247.834C237.55 247.974 237.428 248.09 237.284 248.172L237.234 248.202C235.596 249.068 233.74 249.435 231.896 249.258L230.041 249.1C229.872 249.116 229.706 249.157 229.548 249.221V249.469L229.508 250.246Z" fill="black"/>
<path d="M237.234 248.447L237.284 248.42C237.439 248.333 237.568 248.207 237.658 248.054C237.748 247.901 237.796 247.727 237.797 247.549L237.874 238.099C237.874 238.099 238.899 237.365 238.651 240.688C238.403 244.012 238.242 248.976 238.242 248.976C238.242 248.976 238.202 254.39 233.035 254.39C233.035 254.39 227.867 255.375 227.907 252.42C227.948 249.465 230.041 249.345 230.041 249.345L231.896 249.506C233.741 249.684 235.597 249.316 237.234 248.447Z" fill="#B07473"/>
<path d="M204.74 248.236C204.86 250.37 211.136 249.137 211.136 249.137L215.359 240.936C215.359 240.936 218.885 238.226 217.121 235.848C217.026 235.718 216.94 235.583 216.863 235.442C216.863 235.442 216.863 235.442 216.846 235.422C216.809 235.362 216.776 235.298 216.742 235.231C215.476 232.719 216.099 228.598 216.099 228.598C216.099 228.598 217.737 216.619 218.313 213.46C218.718 211.229 218.551 203.909 218.417 199.815C218.363 198.114 218.313 196.971 218.313 196.971L207.894 194.181C207.894 194.181 207.894 195.481 207.894 197.29C207.871 199.859 207.79 203.454 207.526 205.792C207.077 209.768 208.675 222.937 208.675 222.937L209.227 234.92C209.323 236.95 208.859 238.967 207.888 240.752C206.581 243.144 204.873 246.514 204.756 248.005C204.745 248.081 204.739 248.158 204.74 248.236Z" fill="#CC818C"/>
<path opacity="0.1" d="M204.74 248.236C204.86 250.37 211.136 249.137 211.136 249.137L215.359 240.936C215.359 240.936 218.885 238.226 217.121 235.848C217.026 235.718 216.94 235.583 216.863 235.442C216.806 236.685 215.443 239.797 215.443 239.797C215.443 239.797 211.957 246.775 210.848 248.373C209.74 249.971 204.924 248.075 204.743 248.008C204.736 248.084 204.735 248.16 204.74 248.236Z" fill="black"/>
<path d="M216.742 235.221C216.742 235.221 218.805 234.742 218.189 240.115C218.212 240.726 218.074 241.332 217.787 241.871C217.501 242.411 217.077 242.865 216.558 243.187C215.081 244.115 212.804 246.112 211.652 249.995C211.653 250.832 211.37 251.646 210.85 252.303C210.331 252.96 209.604 253.421 208.788 253.613C206.926 254.048 204.606 254.43 203.263 254.055C200.761 253.358 201.87 251.636 201.87 251.636L204.74 248.229C204.74 248.229 209.743 250.199 210.848 248.598C211.953 246.996 215.443 240.025 215.443 240.025C215.443 240.025 217.355 235.673 216.742 235.221Z" fill="#B07473"/>
<path opacity="0.1" d="M233.527 192.08L233.306 200.154C236.102 199.883 238.105 199.504 238.446 198.971C239.187 197.826 241.872 197.343 244.156 197.146C244.086 195.635 244.026 194.623 244.026 194.623L233.527 192.08Z" fill="black"/>
<path opacity="0.1" d="M207.894 198.271C208.162 197.724 208.555 197.249 209.043 196.884C210.148 196.271 210.028 200.824 210.028 200.824C210.028 200.824 213.711 200.857 218.417 200.797C218.363 199.095 218.313 197.95 218.313 197.95L207.894 195.162C207.894 195.162 207.914 196.455 207.894 198.271Z" fill="black"/>
<path d="M206.705 199.35C206.705 199.35 207.938 196 209.05 195.404C210.162 194.807 210.034 199.34 210.034 199.34C210.034 199.34 237.1 199.588 238.453 197.494C239.806 195.4 247.679 195.524 247.679 195.524C247.679 195.524 247.435 169.435 246.819 159.592C246.203 149.75 245.221 140.762 242.76 138.055C241.169 136.303 238.905 130.635 237.505 126.857C236.745 124.793 236.24 123.289 236.24 123.289L210.406 124.763L210.195 126.857L207.452 154.299C207.452 154.299 207.084 184.573 205.975 191.464C204.867 198.355 206.705 199.35 206.705 199.35Z" fill="#464353"/>
<g opacity="0.1">
<path opacity="0.1" d="M236.35 197.494C237.69 195.404 245.576 195.524 245.576 195.524C245.576 195.524 245.332 169.435 244.716 159.592C244.099 149.75 243.118 140.762 240.657 138.055C239.059 136.297 236.802 130.635 235.402 126.857C234.763 125.121 234.304 123.785 234.177 123.403L236.186 123.289C236.186 123.289 236.692 124.793 237.455 126.857C238.855 130.635 241.116 136.303 242.706 138.055C245.168 140.762 246.152 149.747 246.765 159.592C247.378 169.438 247.629 195.524 247.629 195.524C247.629 195.524 239.756 195.404 238.4 197.494C237.244 199.279 217.328 199.363 211.548 199.347C218.966 199.33 235.305 199.109 236.35 197.494Z" fill="black"/>
<path opacity="0.1" d="M206.947 195.404C207.446 195.125 207.693 195.896 207.817 196.831C207.37 197.641 206.982 198.483 206.655 199.35C206.655 199.35 205.942 198.965 205.651 197.005C206.059 196.305 206.511 195.645 206.947 195.404Z" fill="black"/>
</g>
<path d="M214.689 60.1655C212.901 62.6042 214.709 66.0714 212.79 68.4432C212.158 69.2271 211.183 69.7832 210.523 70.5537C209.301 71.9808 209.348 73.9204 209.947 75.5954C210.547 77.2704 211.622 78.798 212.385 80.4328C212.72 81.1396 212.968 81.9335 212.633 82.637C212.399 83.1261 211.913 83.498 211.535 83.9201C210.302 85.2969 210.269 87.2097 210.932 88.8311C211.595 90.4525 212.861 91.8461 214.11 93.2196C214.602 93.7589 215.225 94.3552 216.046 94.3385C216.477 94.3057 216.894 94.169 217.261 93.9398C220.102 92.4882 222.274 89.9962 223.325 86.9829C224.375 83.9695 224.223 80.667 222.901 77.7628C221.863 75.2738 220.131 72.8886 220.115 70.2589C220.115 68.1719 221.186 66.1786 221.377 64.1017C221.608 61.5758 220.115 57.5659 217.067 56.4637C217.268 58.0851 215.597 58.9126 214.689 60.1655Z" fill="#585268"/>
<path opacity="0.1" d="M214.689 60.1655C212.901 62.6042 214.709 66.0714 212.79 68.4432C212.158 69.2271 211.183 69.7832 210.523 70.5537C209.301 71.9808 209.348 73.9204 209.947 75.5954C210.547 77.2704 211.622 78.798 212.385 80.4328C212.72 81.1396 212.968 81.9335 212.633 82.637C212.399 83.1261 211.913 83.498 211.535 83.9201C210.302 85.2969 210.269 87.2097 210.932 88.8311C211.595 90.4525 212.861 91.8461 214.11 93.2196C214.602 93.7589 215.225 94.3552 216.046 94.3385C216.477 94.3057 216.894 94.169 217.261 93.9398C220.102 92.4882 222.274 89.9962 223.325 86.9829C224.375 83.9695 224.223 80.667 222.901 77.7628C221.863 75.2738 220.131 72.8886 220.115 70.2589C220.115 68.1719 221.186 66.1786 221.377 64.1017C221.608 61.5758 220.115 57.5659 217.067 56.4637C217.268 58.0851 215.597 58.9126 214.689 60.1655Z" fill="black"/>
<path opacity="0.1" d="M234.522 148.876C230.942 149.063 227.573 150.604 224.438 152.346C221.303 154.088 218.269 156.062 214.897 157.298" fill="black"/>
<path opacity="0.1" d="M232.298 157.314C228.757 157.652 225.456 159.258 223.005 161.837C222.134 162.758 221.384 163.79 220.476 164.674C219.087 166.031 217.37 167.004 215.493 167.498" fill="black"/>
<path opacity="0.1" d="M233.031 163.736C230.175 164.529 227.59 166.089 225.556 168.245C225.007 168.838 224.508 169.471 223.959 170.064C220.995 173.247 216.809 174.935 212.767 176.533" fill="black"/>
<path d="M232.727 74.6774C232.806 77.539 233.052 80.3936 233.463 83.2265C233.798 85.2365 234.267 87.0455 234.94 87.8461C236.909 90.1911 225.346 93.3233 225.346 93.3233L218.517 88.0304C218.517 88.0304 223.929 83.0456 221.407 78.1848C218.885 73.324 232.727 74.6774 232.727 74.6774Z" fill="#CC818C"/>
<path opacity="0.1" d="M210.188 126.857H237.499C236.738 124.793 236.233 123.289 236.233 123.289L210.399 124.763L210.188 126.857Z" fill="black"/>
<path d="M208.43 126.364H237.629C236.809 123.426 237.629 120.709 238.798 118.619C239.617 117.154 240.648 115.818 241.856 114.653L242.057 114.468L252.251 112.21L252.8 112.09C252.8 112.09 252.884 93.5478 246.32 91.0018C239.756 88.4559 235.821 85.0154 235.821 85.0154L226.802 87.8026L220.158 84.4526C218.025 86.7474 212.365 85.8462 212.365 85.8462C203.099 86.9115 203.099 93.8861 203.099 93.8861C203.099 93.8861 208.51 106.519 208.922 106.519C209.334 106.519 208.43 126.364 208.43 126.364Z" fill="#274DBB"/>
<path opacity="0.1" d="M218.51 114.576C218.51 114.576 212.556 113.256 210.53 110.948L218.51 114.576Z" fill="black"/>
<path opacity="0.1" d="M248.533 107.658L241.628 113.319C241.678 113.77 241.754 114.217 241.856 114.659L242.057 114.475L252.251 112.217L248.533 107.658Z" fill="black"/>
<path opacity="0.1" d="M229.836 124.394C229.836 124.394 231.347 125.245 233.661 126.364H237.629C236.809 123.426 237.629 120.709 238.798 118.619L231.802 116.354C234.183 118.569 229.836 124.394 229.836 124.394Z" fill="black"/>
<path d="M207.198 91.6617L203.099 93.8761L199.08 104.05C199.08 104.05 194.897 115.205 195.306 118.16C195.306 118.16 193.832 125.135 196.454 126.364L203.286 129.459C203.407 129.513 203.541 129.527 203.67 129.501C203.8 129.474 203.918 129.408 204.008 129.312C204.098 129.215 204.156 129.093 204.174 128.963C204.191 128.832 204.168 128.699 204.107 128.582C203.132 126.736 202.06 123.848 203.772 122.26L201.803 118.16L208.919 106.509L211.297 102.489L207.198 91.6617Z" fill="#274DBB"/>
<path opacity="0.1" d="M216.317 112.247C216.672 113.695 217.871 115.932 221.839 116.766L226.193 120.334L230.824 122.435L232.713 123.289L233.514 117.503L231.695 116.498L229.575 115.339C229.575 115.339 224.793 106.673 217.221 110.314C216.869 110.481 216.586 110.765 216.421 111.118C216.256 111.471 216.219 111.87 216.317 112.247Z" fill="black"/>
<path d="M216.565 111.755C216.92 113.205 218.115 115.44 222.084 116.274L226.437 119.842L231.072 121.942L232.958 122.796L233.758 117.011L231.94 116.006L229.836 114.857C229.836 114.857 225.051 106.191 217.479 109.849C217.131 110.013 216.85 110.292 216.683 110.639C216.517 110.986 216.475 111.38 216.565 111.755Z" fill="#CC818C"/>
<path opacity="0.1" d="M225.098 82.1813C230.94 82.1813 235.677 77.4434 235.677 71.5988C235.677 65.7542 230.94 61.0162 225.098 61.0162C219.255 61.0162 214.518 65.7542 214.518 71.5988C214.518 77.4434 219.255 82.1813 225.098 82.1813Z" fill="black"/>
<path d="M225.098 81.9368C230.94 81.9368 235.677 77.1988 235.677 71.3543C235.677 65.5097 230.94 60.7717 225.098 60.7717C219.255 60.7717 214.518 65.5097 214.518 71.3543C214.518 77.1988 219.255 81.9368 225.098 81.9368Z" fill="#CC818C"/>
<path opacity="0.1" d="M231.652 93.9666L228.47 87.7825C228.47 87.7825 233.125 85.8998 233.463 83.719C233.802 81.5382 237.924 86.275 237.033 87.8462C236.142 89.4173 231.652 93.9666 231.652 93.9666Z" fill="black"/>
<path d="M231.652 93.4741L228.47 87.2901C228.47 87.2901 233.125 85.4074 233.463 83.2265C233.802 81.0457 237.924 85.7859 237.033 87.3537C236.142 88.9215 231.652 93.4741 231.652 93.4741Z" fill="#274DBB"/>
<path d="M205.614 109.45L223.192 133.091C223.192 133.091 216.712 136.618 207.787 130.304L203.933 125.708L192.928 107.152L205.614 109.45Z" fill="#F6F8FB"/>
<path d="M202.154 122.304L203.755 122.26C203.755 122.26 213.534 112.767 215.935 117.57C218.336 122.374 209.843 126.863 209.843 126.863L207.261 128.257L203.896 129.262L201.742 126.371L202.154 122.304Z" fill="#CC818C"/>
<path opacity="0.1" d="M204.515 127.433C204.663 127.979 204.803 128.582 204.555 129.088C204.496 129.223 204.394 129.335 204.264 129.406C204.158 129.447 204.043 129.463 203.929 129.453C203.082 129.381 202.294 128.99 201.722 128.361C201.161 127.733 200.681 127.038 200.292 126.29C199.857 125.53 199.405 124.689 199.559 123.825C199.733 122.883 200.564 122.23 201.377 121.701C202.998 120.629 203.052 121.878 203.407 123.259C203.762 124.639 204.144 126.039 204.515 127.433Z" fill="black"/>
<path d="M204.271 127.433C204.415 127.979 204.559 128.582 204.311 129.088C204.252 129.223 204.149 129.335 204.02 129.406C203.913 129.447 203.798 129.463 203.685 129.453C202.837 129.382 202.048 128.992 201.478 128.361C200.914 127.734 200.433 127.038 200.044 126.29C199.609 125.53 199.157 124.689 199.314 123.825C199.485 122.883 200.319 122.23 201.129 121.701C202.754 120.629 202.804 121.878 203.162 123.259C203.521 124.639 203.896 126.039 204.271 127.433Z" fill="#274DBB"/>
<path opacity="0.1" d="M208.922 106.509L209.74 105.125L209.026 107.695L208.922 106.509Z" fill="black"/>
<path opacity="0.1" d="M231.086 121.942L232.971 122.796L233.771 117.011L231.953 116.006C233.209 117.446 232.11 120.11 231.086 121.942Z" fill="black"/>
<path opacity="0.1" d="M238.654 115.225C238.654 115.225 232.566 115.597 229.98 113.936L238.654 115.225Z" fill="black"/>
<g opacity="0.1">
<path opacity="0.1" d="M237.897 119.111C238.717 117.646 239.747 116.308 240.955 115.142C241.245 114.96 241.546 114.797 241.856 114.653L251.347 112.703L251.896 112.582C251.896 112.582 251.98 94.0403 245.419 91.4943C241.739 90.0945 238.289 88.1512 235.185 85.729L235.905 85.5079C235.905 85.5079 239.84 88.9517 246.404 91.4943C252.967 94.0369 252.88 112.582 252.88 112.582H251.896L242.184 114.442C242.184 114.442 241.765 114.847 241.638 114.964C240.42 116.185 239.376 117.566 238.534 119.071C237.248 121.458 236.956 124.255 237.72 126.857H236.715C235.905 123.919 236.742 121.202 237.897 119.111Z" fill="black"/>
<path opacity="0.1" d="M211.977 86.3823C212.134 86.3588 212.285 86.3354 212.449 86.3186C213.115 86.4131 213.786 86.4679 214.458 86.4828C213.63 86.5056 212.801 86.472 211.977 86.3823Z" fill="black"/>
<path opacity="0.1" d="M225.898 88.2951L219.89 85.2533C220.009 85.1555 220.121 85.0491 220.225 84.9351L226.494 88.1075L225.898 88.2951Z" fill="black"/>
</g>
<path d="M248.771 107.152L252.79 112.077L253.61 125.45C253.61 125.45 254.675 132.257 246.886 130.615C239.096 128.974 230.081 123.902 230.081 123.902C230.081 123.902 234.435 118.076 232.05 115.862L243.205 119.473C243.205 119.473 245.091 119.061 243.614 117.423C242.137 115.785 241.876 112.827 241.876 112.827L248.771 107.152Z" fill="#274DBB"/>
<path opacity="0.1" d="M250.586 121.279L252.8 123.821C252.231 123.646 251.721 123.316 251.33 122.866C250.939 122.417 250.681 121.867 250.586 121.279Z" fill="black"/>
<path opacity="0.1" d="M246.812 120.867L250.258 125.295L248.537 125.708L246.812 120.867Z" fill="black"/>
<path opacity="0.1" d="M212.462 66.4968C212.084 65.5689 212.375 64.4869 212.831 63.6125C213.286 62.7382 213.912 61.9107 214.254 60.9694C214.76 59.5691 214.605 57.9846 215.158 56.6144C216.133 54.1857 218.902 53.1003 221.384 52.2595C222.117 52.0149 222.897 51.7704 223.648 51.9513C224.652 52.1891 225.305 53.1003 226.126 53.7134C229.495 56.2258 234.974 53.4588 238.232 56.1186C239.478 57.1236 240.084 58.7685 240.272 60.3664C240.459 61.9643 240.272 63.5857 240.252 65.1971C240.198 68.0177 240.727 71.103 242.837 72.9723C243.473 73.5351 244.223 73.9572 244.846 74.5401C245.469 75.123 245.958 75.9371 245.851 76.7812C245.769 77.1689 245.657 77.5497 245.516 77.9202C245.097 79.3909 245.724 80.9352 246.487 82.2752C248.764 86.2181 252.78 89.4676 257.331 89.558C257.026 91.8561 254.652 93.1894 252.525 94.1307C249.846 95.3334 246.993 96.5126 244.043 96.3618C241.092 96.2111 238.014 94.3217 237.499 91.4139C237.321 90.4089 237.345 89.1996 236.494 88.677C235.972 88.3587 235.295 88.4391 234.733 88.2013C233.919 87.8663 233.517 86.9517 233.249 86.1109C232.7 84.3759 232.406 82.5705 232.375 80.751C232.338 78.5936 232.623 76.2385 231.4 74.4631C230.268 72.8182 228.259 71.9841 226.953 70.4733C225.747 69.073 224.438 67.3846 222.462 67.1233C219.729 66.738 214.076 70.4532 212.462 66.4968Z" fill="black"/>
<path d="M212.462 66.0044C212.084 65.0765 212.375 63.9944 212.831 63.1201C213.286 62.2457 213.912 61.4183 214.254 60.477C214.76 59.0767 214.605 57.4921 215.158 56.122C216.133 53.6899 218.902 52.6045 221.384 51.7671C222.117 51.5225 222.897 51.278 223.648 51.4589C224.652 51.6967 225.305 52.6079 226.126 53.2209C229.495 55.7334 234.974 52.9663 238.232 55.6262C239.478 56.6312 240.084 58.276 240.272 59.8773C240.459 61.4786 240.272 63.0933 240.252 64.7046C240.198 67.5253 240.727 70.6106 242.837 72.4799C243.473 73.0427 244.223 73.4648 244.846 74.0477C245.469 74.6306 245.958 75.4446 245.851 76.2888C245.769 76.6765 245.657 77.0572 245.516 77.4278C245.097 78.8984 245.724 80.4428 246.487 81.7827C248.771 85.7123 252.77 88.9718 257.321 89.0622C257.016 91.3603 254.642 92.6936 252.515 93.6383C249.836 94.8376 246.983 96.0168 244.032 95.866C241.082 95.7153 238.004 93.8259 237.489 90.9181C237.311 89.9131 237.335 88.7038 236.484 88.1812C235.962 87.8629 235.285 87.9433 234.722 87.7055C233.909 87.3705 233.507 86.4559 233.239 85.6151C232.69 83.8802 232.395 82.0747 232.365 80.2552C232.328 78.0978 232.613 75.7428 231.39 73.9673C230.258 72.3224 228.249 71.4883 226.943 69.9775C225.737 68.5772 224.428 66.8888 222.452 66.6275C219.729 66.2456 214.076 69.9674 212.462 66.0044Z" fill="#585268"/>
<path opacity="0.1" d="M219.97 93.1994L226.035 88.275C226.035 88.275 221.883 86.0238 221.387 84.1043C220.891 82.1847 217.569 85.0154 217.908 86.7373C218.246 88.4592 219.97 93.1994 219.97 93.1994Z" fill="black"/>
<path d="M220.208 92.4591L226.273 87.538C226.273 87.538 222.12 85.2868 221.645 83.3673C221.169 81.4478 217.827 84.2785 218.165 86.0004C218.504 87.7223 220.208 92.4591 220.208 92.4591Z" fill="#274DBB"/>
<path opacity="0.1" d="M226.511 92.1408C226.777 92.1408 226.993 91.9248 226.993 91.6584C226.993 91.392 226.777 91.176 226.511 91.176C226.245 91.176 226.029 91.392 226.029 91.6584C226.029 91.9248 226.245 92.1408 226.511 92.1408Z" fill="black"/>
<path opacity="0.1" d="M226.511 94.8207C226.777 94.8207 226.993 94.6048 226.993 94.3383C226.993 94.0719 226.777 93.856 226.511 93.856C226.245 93.856 226.029 94.0719 226.029 94.3383C226.029 94.6048 226.245 94.8207 226.511 94.8207Z" fill="black"/>
<path opacity="0.1" d="M226.511 97.4974C226.777 97.4974 226.993 97.2814 226.993 97.015C226.993 96.7486 226.777 96.5326 226.511 96.5326C226.245 96.5326 226.029 96.7486 226.029 97.015C226.029 97.2814 226.245 97.4974 226.511 97.4974Z" fill="black"/>
<g opacity="0.1">
<path opacity="0.1" d="M214.91 59.1638C215.389 57.8473 215.285 56.3699 215.734 55.0433C215.526 55.3366 215.354 55.6538 215.222 55.988C214.666 57.3716 214.823 58.9561 214.314 60.343L214.281 60.4234C214.529 60.0238 214.74 59.6021 214.91 59.1638Z" fill="black"/>
<path opacity="0.1" d="M253.172 92.3251C250.493 93.5244 247.639 94.7036 244.689 94.5529C241.738 94.4021 238.661 92.5127 238.145 89.6083C237.968 88.6033 237.991 87.3906 237.14 86.868C236.618 86.5498 235.941 86.6302 235.379 86.3923C234.565 86.0573 234.163 85.1428 233.895 84.302C233.346 82.5671 233.052 80.7616 233.021 78.942C232.984 76.788 233.272 74.433 232.05 72.6541C230.915 71.0093 228.905 70.1785 227.599 68.6643C226.394 67.2674 225.084 65.5756 223.108 65.3143C220.399 64.9458 214.736 68.6643 213.135 64.7046C212.878 63.9565 212.915 63.1385 213.239 62.4166C213.122 62.6143 213.008 62.8119 212.904 63.0129C212.449 63.904 212.161 64.9726 212.539 65.9006C214.15 69.8536 219.803 66.1384 222.512 66.5103C224.488 66.7783 225.798 68.47 227.003 69.8602C228.309 71.3744 230.319 72.2052 231.451 73.8534C232.676 75.6289 232.388 77.9839 232.425 80.1379C232.455 81.9575 232.75 83.763 233.299 85.4979C233.567 86.3421 233.969 87.2466 234.783 87.5883C235.345 87.8261 236.022 87.7491 236.544 88.064C237.408 88.5866 237.385 89.8093 237.549 90.8043C238.071 93.7087 241.146 95.5981 244.093 95.7488C247.04 95.8996 249.88 94.7237 252.576 93.5211C254.518 92.6568 256.681 91.4608 257.264 89.5011C256.333 90.7741 254.685 91.6518 253.172 92.3251Z" fill="black"/>
</g>
<path d="M312.357 111.232C305.268 107.152 302.588 106.147 302.575 106.147L302.428 106.043C301.655 105.45 301.042 104.674 300.643 103.785C300.634 103.624 300.634 103.461 300.643 103.3C300.641 103.315 300.641 103.331 300.643 103.347C300.753 101.186 302.29 99.2193 303.747 97.5042L307.474 93.119C307.898 92.6852 308.225 92.167 308.436 91.5982C308.511 91.2925 308.545 90.9782 308.536 90.6635C308.536 90.5362 308.536 90.4089 308.536 90.2816C308.516 89.1929 308.486 88.1008 308.446 87.0121C308.412 86.0607 308.168 84.8614 307.217 84.6671C306.721 84.5666 306.065 84.7441 305.803 84.3321C305.715 84.1572 305.692 83.9562 305.74 83.7659C305.738 83.7815 305.738 83.7973 305.74 83.8128V83.7592C305.924 83.0243 306.042 82.2742 306.091 81.5181C306.112 81.1332 306.06 80.7479 305.937 80.3825C305.388 78.8046 303.489 78.1547 301.811 77.8566C300.134 77.5584 298.252 77.3038 297.2 75.9907C296.918 75.5525 296.612 75.1308 296.282 74.7277C295.797 74.2966 295.205 74.0038 294.568 73.8802C292.485 73.367 290.291 73.5578 288.329 74.4229C287.518 74.7847 286.704 75.2738 285.814 75.2202C284.923 75.1666 284.099 74.5234 283.188 74.3693C281.715 74.118 280.305 75.2001 279.578 76.4831C279.148 77.2439 278.917 78.1014 278.908 78.9755V79.1229C278.887 80.0634 279.23 80.9756 279.866 81.6689C280.502 82.3388 281.447 82.781 281.711 83.6487C281.818 84.0004 281.792 84.3823 281.889 84.7408C281.899 84.7852 281.912 84.8289 281.929 84.8714L281.882 84.9351C280.362 86.8807 279.536 89.2795 279.538 91.7489C279.554 94.1475 280.333 96.4787 281.761 98.4056C283.189 100.333 285.192 101.756 287.481 102.469C287.481 102.579 287.481 102.69 287.481 102.804C287.481 104.144 287.096 105.541 285.941 106.556L275.898 110.569C275.898 110.569 269.843 109.849 267.659 118.699C267.31 120.169 267.184 121.682 267.284 123.188C267.364 124.528 267.18 126.873 265.61 129.912C263.128 134.776 263.694 145.941 268.771 147.047C273.563 148.092 275.439 147.657 275.636 147.606V147.801C275.556 149.898 274.796 167.967 272.033 170.152C271.269 170.758 271.41 171.157 272.033 171.441C272.033 171.441 272.033 171.559 272.016 171.776C271.932 173.116 271.507 178.141 269.672 180.995C267.525 184.312 267.75 203.44 267.75 203.44L266.286 214.716C266.286 214.716 267.187 221.681 266.286 222.897C265.479 223.979 264.407 249.743 264.183 255.331H264.089C263.646 255.36 263.216 255.497 262.837 255.731C262.459 255.965 262.144 256.287 261.919 256.671C260.734 258.597 256.581 262.158 256.581 262.158C255.68 263.438 252.348 264.664 250.586 265.24C250.354 265.316 250.13 265.415 249.917 265.535C249.257 265.894 248.727 266.452 248.403 267.13C248.287 267.331 248.213 267.553 248.185 267.783C248.157 268.014 248.177 268.247 248.242 268.47C248.691 269.572 258.058 270.349 260.429 269.24C262.291 268.373 269.672 267.23 272.736 266.781C273.293 266.711 273.81 266.458 274.207 266.061C274.603 265.665 274.856 265.147 274.926 264.59C274.956 264.398 274.946 264.202 274.897 264.014C274.849 263.826 274.763 263.649 274.645 263.495C274.059 262.768 273.761 260.782 273.64 259.475C273.889 259.374 274.122 259.236 274.33 259.066C274.074 255.05 274.644 251.025 276.005 247.238C278.262 241.268 278.938 230.213 278.376 223.027C278.376 223.027 285.258 193.4 290.676 190.637C290.76 190.744 293.389 194.117 293.724 204.566C294.059 215.178 297.897 222.143 297.897 222.143C297.897 222.143 296.202 240.163 297.897 246.906L295.683 257.542C295.519 257.405 295.415 257.298 295.415 257.298C295.415 257.298 295.482 257.592 295.572 258.065L295.526 258.293L295.623 258.313C295.874 259.653 296.246 261.961 296.092 263.338C296.004 264.111 295.787 265.173 295.639 266.215C295.405 267.853 295.341 269.441 296.202 269.79C297.615 270.359 305.914 271.13 307.32 269.307C307.637 268.936 307.843 268.483 307.915 268.001C307.987 267.518 307.923 267.025 307.729 266.577C307.628 266.326 307.49 266.091 307.32 265.88C307.32 265.88 305.117 262.279 305.74 259.74C305.797 259.492 305.803 259.234 305.758 258.984C305.712 258.733 305.616 258.495 305.475 258.283C305.572 257.036 306.075 251.268 307.374 246.37C308.787 241.05 311.764 229.386 309.574 221.718C309.492 221.416 309.398 221.121 309.293 220.833C308.029 216.646 307.607 212.25 308.051 207.899C307.237 204.184 307.237 200.338 308.051 196.623C309.407 190.432 310.355 184.352 310.355 184.352C310.355 184.352 311.101 176.171 310.448 171.157C310.448 171.049 310.418 170.942 310.405 170.822L310.76 170.741C310.76 170.741 308.841 162.229 308.164 156.812C308.004 155.532 307.796 153.914 307.568 152.186C308.192 152.082 308.807 151.929 309.407 151.727C315.499 149.626 317.417 130.622 317.417 130.622V124.592C317.417 124.592 319.467 115.323 312.357 111.232ZM266.959 258.041C266.772 257.947 266.661 257.884 266.661 257.884L266.959 258.041Z" fill="url(#paint2_linear)"/>
<path d="M308.68 220.954C311.322 228.555 308.238 240.893 306.805 246.414C305.371 251.934 304.933 258.534 304.933 258.534C299.316 259.415 295.241 258.313 295.241 258.313L297.555 246.966C295.901 240.246 297.555 222.287 297.555 222.287C297.555 222.287 293.811 215.346 293.479 204.77C293.144 194.362 290.589 190.995 290.509 190.891C285.224 193.645 278.506 223.171 278.506 223.171C279.055 230.33 278.392 241.348 276.192 247.291C274.856 251.069 274.294 255.077 274.541 259.076C273.771 259.746 272.699 259.84 271.527 259.653C268.382 259.143 264.612 256.433 264.612 256.433C264.612 256.433 265.821 224.274 266.705 223.054C267.589 221.835 266.705 214.9 266.705 214.9L268.135 203.665C268.135 203.665 267.914 184.603 270.007 181.3C271.815 178.446 272.23 173.428 272.311 172.111C272.311 171.904 272.311 171.776 272.311 171.776L275.499 167.957C275.499 167.957 306.336 165.642 308.653 167.957C309.219 168.523 309.571 169.816 309.778 171.441C310.415 176.439 309.685 184.59 309.685 184.59C309.685 184.59 308.76 190.65 307.438 196.817C306.645 200.522 306.645 204.352 307.438 208.056C307.012 212.395 307.434 216.776 308.68 220.954Z" fill="#464353"/>
<path d="M306.751 269.26C305.375 271.079 297.28 270.309 295.901 269.743C295.06 269.408 295.124 267.81 295.351 266.178C295.495 265.143 295.706 264.085 295.793 263.314C296.011 261.331 295.124 257.308 295.124 257.308C295.124 257.308 296.939 259.237 297.377 257.308C297.572 256.463 298.248 256.031 298.951 255.814C299.895 255.528 300.91 255.591 301.811 255.991C303.241 256.614 305.626 257.937 305.201 259.726C304.594 262.256 306.741 265.847 306.741 265.847C306.907 266.056 307.043 266.289 307.143 266.537C307.334 266.983 307.398 267.473 307.329 267.954C307.26 268.434 307.06 268.886 306.751 269.26Z" fill="#A27772"/>
<path opacity="0.1" d="M306.751 269.26C305.375 271.079 297.28 270.309 295.901 269.743C295.06 269.408 295.124 267.81 295.351 266.178C296.222 266.587 297.696 266.925 300.164 266.698C300.739 266.643 301.317 266.625 301.895 266.644C303.648 266.723 305.404 266.687 307.153 266.537C307.342 266.984 307.405 267.475 307.334 267.955C307.264 268.435 307.062 268.887 306.751 269.26Z" fill="black"/>
<path opacity="0.1" d="M278.503 223.158C279.052 230.317 278.389 241.335 276.189 247.278C274.852 251.055 274.291 255.063 274.538 259.063C273.768 259.733 272.696 259.827 271.524 259.639C272.194 254.993 275.02 234.973 276.832 219.155C278.898 201.142 288.553 188.75 288.553 188.75L290.479 190.871C285.221 193.631 278.503 223.158 278.503 223.158Z" fill="black"/>
<path d="M303.446 107.37L302.106 113.979L295.519 125.051L287.398 121.58C287.398 121.58 276.346 110.013 283.295 108.361C284.126 108.183 284.91 107.834 285.599 107.336C286.962 106.308 287.391 104.814 287.398 103.35C287.346 101.712 286.966 100.101 286.279 98.613L300.485 94.1509C299.905 96.0183 299.567 97.9526 299.48 99.9061C299.37 103.779 300.82 105.685 301.989 106.606C302.42 106.953 302.915 107.212 303.446 107.37Z" fill="#FBBEBE"/>
<path opacity="0.1" d="M300.472 94.1509C299.892 96.0183 299.554 97.9526 299.467 99.9061C299.208 100.215 298.932 100.509 298.64 100.787C297.173 102.188 295.354 103.166 293.377 103.618C291.4 104.069 289.337 103.976 287.408 103.35C287.353 101.711 286.969 100.1 286.279 98.613L300.472 94.1509Z" fill="black"/>
<path d="M302.103 92.3317C302.104 94.5548 301.445 96.7281 300.211 98.5768C298.977 100.425 297.222 101.867 295.169 102.718C293.116 103.569 290.857 103.792 288.677 103.359C286.498 102.925 284.495 101.855 282.924 100.284C281.352 98.7119 280.282 96.7092 279.848 94.529C279.414 92.3487 279.636 90.0887 280.487 88.0348C281.337 85.981 282.777 84.2254 284.625 82.9903C286.472 81.7552 288.645 81.096 290.867 81.096C292.344 81.0889 293.808 81.3746 295.175 81.9367C296.541 82.4988 297.782 83.3261 298.827 84.3708C299.871 85.4155 300.699 86.6569 301.261 88.0234C301.823 89.3898 302.11 90.8541 302.103 92.3317Z" fill="#FBBEBE"/>
<path opacity="0.1" d="M303.446 107.37L302.106 113.979L295.519 125.051L287.398 121.58C287.398 121.58 276.346 110.013 283.295 108.361C284.126 108.183 284.91 107.834 285.599 107.336C284.347 110.78 289.517 117.946 289.517 117.946C290.12 118.833 291.5 118.281 291.5 118.281C294.832 117.775 300.964 108.191 301.965 106.596C302.403 106.949 302.906 107.212 303.446 107.37Z" fill="black"/>
<path opacity="0.1" d="M309.805 171.448C307.85 171.893 297.029 174.289 292.927 173.689C288.412 173.019 279.635 172.59 279.635 172.59C279.635 172.59 274.046 172.892 272.324 172.105C272.324 171.897 272.324 171.77 272.324 171.77L275.512 167.951C275.512 167.951 306.349 165.636 308.667 167.951C309.246 168.53 309.598 169.823 309.805 171.448Z" fill="black"/>
<path d="M289.514 118.277C289.514 118.277 283.704 110.237 285.894 107.088L276.078 111.108C276.078 111.108 270.171 110.391 268.041 119.212C267.7 120.678 267.578 122.186 267.676 123.688C267.756 125.027 267.575 127.372 266.058 130.387C263.637 135.235 264.186 146.363 269.143 147.472C274.099 148.581 275.857 148.022 275.857 148.022C275.857 148.022 275.187 168.182 272.334 170.497C269.481 172.811 279.635 172.259 279.635 172.259C279.635 172.259 288.412 172.701 292.93 173.361C297.448 174.021 310.11 171.046 310.11 171.046C310.11 171.046 308.238 162.564 307.575 157.167C306.912 151.77 305.368 140.273 305.368 140.273L316.6 125.051C316.6 125.051 318.583 115.852 311.644 111.775C304.705 107.698 302.096 106.7 302.096 106.7C302.096 106.7 295.124 118.056 291.49 118.606C291.497 118.606 290.117 119.162 289.514 118.277Z" fill="#274DBB"/>
<path opacity="0.1" d="M276.628 121.47C276.628 121.47 276.52 125.108 277.18 126.538C277.84 127.969 280.264 135.918 280.264 135.918H274.755C274.755 135.918 277.729 132.722 277.512 131.178C277.294 129.634 276.628 121.47 276.628 121.47Z" fill="black"/>
<path d="M292.93 148.903C292.93 148.903 280.767 145.928 279.635 143.395C278.503 140.863 275.378 135.191 275.378 135.191L276.661 133.463L282.575 138.106C282.575 138.106 289.608 143.724 292.93 144.276C296.252 144.829 292.93 148.903 292.93 148.903Z" fill="#FBBEBE"/>
<path opacity="0.05" d="M292.93 148.903C292.93 148.903 280.767 145.928 279.635 143.395C278.503 140.863 275.378 135.191 275.378 135.191L276.661 133.463L282.575 138.106C282.575 138.106 289.608 143.724 292.93 144.276C296.252 144.829 292.93 148.903 292.93 148.903Z" fill="black"/>
<path d="M303.446 134.582V141.181H302.387C297.147 141.18 291.992 142.515 287.411 145.06L285.422 146.162L284.889 146.46L281.473 138.756L284.668 135.891H284.832C285.613 135.968 288.992 136.25 290.425 135.767C291.785 135.305 293.473 133.841 297.478 134.863C299.45 135.369 301.138 137.58 303.051 136.89L303.446 134.582Z" fill="#FBBEBE"/>
<path opacity="0.1" d="M314.075 122.562L316.275 125.041V131.047C316.275 131.047 314.403 149.995 308.459 152.088C302.515 154.182 291.895 150.876 291.895 150.876C291.895 150.876 289.153 143.606 290.435 143.171C291.718 142.735 301.771 140.075 301.771 140.075C301.771 140.075 301.631 128.96 303.831 125.654C303.831 125.654 302.401 115.299 307.357 115.078C312.314 114.857 314.075 122.562 314.075 122.562Z" fill="black"/>
<path d="M314.41 122.562L316.614 125.041V131.047C316.614 131.047 314.742 149.995 308.794 152.088C302.846 154.182 292.23 150.876 292.23 150.876C292.23 150.876 289.487 143.606 290.773 143.171C292.059 142.735 302.109 140.075 302.109 140.075C302.109 140.075 301.965 128.96 304.169 125.654C304.169 125.654 302.736 115.299 307.692 115.078C312.648 114.857 314.41 122.562 314.41 122.562Z" fill="#274DBB"/>
<path opacity="0.1" d="M299.022 97.1022C299.117 96.3766 299.03 95.6389 298.771 94.9548C298.459 94.2849 297.732 93.779 297.022 93.9499C296.081 94.171 295.683 95.397 294.752 95.6918C293.972 95.9397 293.121 95.387 292.742 94.66C292.364 93.9331 292.361 93.0789 292.361 92.2615C292.361 91.3436 292.361 90.4223 292.361 89.5011C292.361 88.4961 292.327 87.4174 291.711 86.6302C290.944 85.652 289.139 85.2232 287.933 85.2634C287.131 85.2724 286.362 85.582 285.777 86.131C285.134 86.6804 284.387 87.0824 283.51 86.9384C283.144 86.8837 282.801 86.7263 282.521 86.4843C282.241 86.2423 282.036 85.9258 281.929 85.5716V85.5381C282.863 84.2954 284.045 83.2603 285.4 82.4982C286.755 81.7361 288.254 81.2636 289.801 81.1106C291.347 80.9577 292.909 81.1276 294.387 81.6096C295.865 82.0916 297.227 82.8753 298.386 83.9109C299.546 84.9466 300.478 86.2117 301.123 87.6263C301.769 89.0408 302.114 90.574 302.136 92.1288C302.159 93.6836 301.859 95.2262 301.255 96.6589C300.65 98.0916 299.755 99.3832 298.627 100.452C298.82 99.3437 298.952 98.2253 299.022 97.1022Z" fill="black"/>
<path d="M283.51 86.6134C283.143 86.5572 282.801 86.3988 282.52 86.1564C282.24 85.9141 282.034 85.5976 281.926 85.2433C281.835 84.8882 281.859 84.5096 281.755 84.1579C281.497 83.2902 280.573 82.8413 279.953 82.1814C278.714 80.8649 278.794 78.7008 279.672 77.1162C280.382 75.8399 281.755 74.7713 283.195 75.0125C284.086 75.1666 284.869 75.7997 285.76 75.86C286.651 75.9203 287.434 75.4279 288.215 75.0661C290.128 74.1972 292.28 74.0058 294.317 74.5234C294.941 74.6489 295.52 74.9419 295.991 75.3709C296.311 75.7737 296.609 76.193 296.885 76.6271C297.91 77.9336 299.748 78.1916 301.386 78.4864C303.024 78.7812 304.876 79.4311 305.405 81.0056C305.763 82.0507 305.405 83.183 305.211 84.2684C305.146 84.49 305.162 84.7271 305.254 84.9384C305.512 85.3605 306.152 85.183 306.634 85.2734C307.562 85.4711 307.799 86.667 307.836 87.6184C307.874 88.7038 307.903 89.7903 307.923 90.8779C307.95 91.2825 307.917 91.6888 307.826 92.0839C307.625 92.65 307.307 93.1672 306.892 93.6014L303.255 97.9731C301.641 99.9094 299.929 102.167 300.241 104.673C299.477 105.008 298.566 104.355 298.318 103.554C298.071 102.754 298.268 101.879 298.439 101.072C298.736 99.6527 298.93 98.2141 299.022 96.7671C299.117 96.0427 299.03 95.306 298.771 94.6232C298.459 93.9532 297.732 93.4473 297.022 93.6182C296.078 93.8393 295.683 95.0654 294.752 95.3602C293.972 95.6081 293.121 95.0553 292.743 94.3284C292.364 93.6014 292.361 92.7505 292.361 91.9331V89.1694C292.361 88.1644 292.327 87.0857 291.711 86.2985C290.944 85.3203 289.139 84.8915 287.933 84.9317C287.133 84.9416 286.364 85.2511 285.78 85.7994C285.134 86.3521 284.387 86.7574 283.51 86.6134Z" fill="#7C5C5C"/>
<path opacity="0.1" d="M286.045 121.195L289.494 135.369C289.494 135.369 292.213 135.352 286.045 121.195Z" fill="black"/>
<path opacity="0.1" d="M297.829 118.827C297.829 118.827 293.315 126.223 295.077 133.875L295.917 133.935C295.917 133.935 294.417 130.394 297.829 118.827Z" fill="black"/>
<path opacity="0.1" d="M300.679 160.691C300.679 160.691 306.225 158.855 306.627 163.113C306.641 163.113 305.596 160.195 300.679 160.691Z" fill="black"/>
<path opacity="0.1" d="M284.668 136.233C284.668 136.233 283.567 143.938 285.549 147.03C285.549 147.03 281.53 148.682 275.857 148.353L275.188 136.233H284.668Z" fill="black"/>
<path opacity="0.1" d="M285.422 146.162L284.889 146.46L281.473 138.756L284.668 135.891H284.832C284.782 136.273 283.891 142.896 285.422 146.162Z" fill="black"/>
<path d="M284.668 135.905C284.668 135.905 283.567 143.61 285.549 146.698C285.549 146.698 281.53 148.353 275.857 148.022L272.003 135.905H284.668Z" fill="#274DBB"/>
<path d="M275.144 264.57C275.08 265.12 274.835 265.633 274.448 266.029C274.06 266.424 273.552 266.679 273.004 266.754C270.013 267.2 262.81 268.339 260.991 269.207C258.677 270.309 249.538 269.542 249.096 268.436C249.032 268.213 249.013 267.98 249.04 267.75C249.067 267.52 249.14 267.298 249.253 267.096C249.567 266.425 250.084 265.869 250.73 265.508C250.944 265.389 251.168 265.291 251.4 265.213C253.121 264.641 256.373 263.421 257.251 262.142C257.251 262.142 261.306 258.594 262.462 256.678C262.679 256.301 262.985 255.983 263.355 255.753C263.724 255.522 264.144 255.387 264.578 255.358C265.543 255.314 266.618 255.8 267.06 257.914C267.06 257.914 272.341 260.929 273.757 258.286C273.757 258.286 273.979 262.346 274.856 263.458C274.976 263.615 275.063 263.794 275.113 263.985C275.162 264.176 275.173 264.375 275.144 264.57Z" fill="#A27772"/>
<path opacity="0.1" d="M275.144 264.57C275.08 265.12 274.835 265.633 274.448 266.029C274.06 266.424 273.552 266.679 273.004 266.754C270.013 267.2 262.81 268.339 260.991 269.207C258.677 270.309 249.538 269.542 249.096 268.436C249.032 268.213 249.013 267.98 249.04 267.75C249.067 267.52 249.14 267.298 249.253 267.096C249.567 266.425 250.084 265.869 250.73 265.508C252.221 266.513 255.529 267.465 262.807 266.329C269.749 265.244 273.188 264.182 274.863 263.458C274.981 263.615 275.068 263.795 275.116 263.986C275.164 264.177 275.174 264.376 275.144 264.57Z" fill="black"/>
<g opacity="0.1">
<path opacity="0.1" d="M305.194 84.4225V84.3689C305.351 83.5448 305.589 82.6939 305.529 81.8665C305.459 82.5427 305.347 83.214 305.194 83.8764C305.153 84.0561 305.153 84.2428 305.194 84.4225Z" fill="black"/>
<path opacity="0.1" d="M298.767 94.7336C298.943 95.1306 299.035 95.5593 299.039 95.9932C299.088 95.3949 298.995 94.7933 298.767 94.2379C298.459 93.5679 297.733 93.062 297.023 93.2329C296.078 93.454 295.683 94.6801 294.749 94.9748C293.972 95.2227 293.121 94.67 292.739 93.9431C292.357 93.2161 292.357 92.3619 292.357 91.5445C292.357 90.6232 292.357 89.7054 292.357 88.7841C292.357 87.7791 292.324 86.7004 291.708 85.9132C290.938 84.9317 289.136 84.5062 287.93 84.5431C287.128 84.5533 286.358 84.8641 285.773 85.414C285.127 85.9634 284.384 86.3654 283.503 86.2214C283.138 86.1656 282.795 86.0077 282.516 85.7659C282.236 85.5241 282.03 85.2082 281.922 84.8546C281.832 84.4995 281.855 84.1176 281.751 83.7659C281.494 82.9016 280.569 82.4493 279.95 81.7927C279.369 81.1481 279.039 80.3156 279.022 79.4478C278.976 79.9568 279.035 80.4699 279.195 80.9555C279.354 81.4411 279.611 81.889 279.95 82.2718C280.569 82.9418 281.494 83.3806 281.751 84.2449C281.855 84.5799 281.832 84.9785 281.922 85.3336C282.03 85.6873 282.236 86.0032 282.516 86.245C282.795 86.4868 283.138 86.6447 283.503 86.7004C284.384 86.8445 285.127 86.4425 285.773 85.8931C286.358 85.3431 287.128 85.0324 287.93 85.0221C289.136 84.9853 290.944 85.4107 291.708 86.3922C292.324 87.1795 292.354 88.2615 292.357 89.2632C292.357 90.1844 292.357 91.1023 292.357 92.0235C292.357 92.8409 292.357 93.6985 292.739 94.4188C293.121 95.139 293.962 95.7018 294.749 95.4539C295.673 95.1591 296.088 93.933 297.023 93.7119C297.733 93.5578 298.459 94.0871 298.767 94.7336Z" fill="black"/>
<path opacity="0.1" d="M307.819 91.7019C307.618 92.2675 307.298 92.7836 306.882 93.2161L303.245 97.5878C301.714 99.427 300.097 101.558 300.231 103.906C300.341 101.752 301.842 99.7921 303.245 98.0836L306.882 93.7119C307.298 93.2794 307.618 92.7633 307.819 92.1977C307.91 91.8015 307.943 91.3941 307.916 90.9884C307.911 91.2292 307.879 91.4685 307.819 91.7019Z" fill="black"/>
<path opacity="0.1" d="M298.335 103.169C298.276 102.977 298.239 102.78 298.225 102.579C298.194 102.945 298.232 103.313 298.335 103.665C298.583 104.462 299.491 105.122 300.258 104.78C300.236 104.62 300.223 104.459 300.217 104.298C299.454 104.603 298.57 103.953 298.335 103.169Z" fill="black"/>
</g>
<path opacity="0.1" d="M261.728 257.686C261.728 257.686 262.88 259.696 267.053 257.927L261.728 257.686Z" fill="black"/>
<path opacity="0.1" d="M296.996 258.175C296.996 258.175 300.592 262.413 305.127 259.566L296.996 258.175Z" fill="black"/>
<path opacity="0.1" d="M307.464 208.063C307.464 208.063 304.923 209.651 304.842 210.559C304.762 211.467 306.155 209.889 306.155 209.889L307.464 208.063Z" fill="black"/>
<path opacity="0.1" d="M308.469 220.244C307.585 220.979 306.486 221.408 305.338 221.466C303.436 221.55 303.596 224.029 304.839 223.285C306.081 222.542 308.469 220.244 308.469 220.244Z" fill="black"/>
<path opacity="0.1" d="M308.951 221.835C308.951 221.835 307.732 227.828 306.741 226.672L308.951 221.835Z" fill="black"/>
<path d="M73.4486 266.751C73.4486 266.751 81.1009 268.852 84.7847 266.058C88.4685 263.264 90.0659 264.162 90.0659 264.162C90.0659 264.162 98.8502 263.676 99.5735 261.599C100.297 259.522 96.2045 251.978 96.2045 251.978C95.9132 251.308 95.4878 250.457 95.297 250.457L95.3371 247.275L96.6097 233.958C99.5467 226.424 96.6633 216.689 96.6633 216.689L96.1375 214.274C95.8421 212.916 96.0181 211.498 96.6365 210.254L101.971 199.534C102.257 198.825 102.593 198.138 102.976 197.477C103.311 196.864 103.756 196.107 104.316 195.199C104.48 194.938 104.65 194.667 104.838 194.382C105.484 193.377 106.268 192.238 107.216 190.925C109.577 187.652 110.819 183.555 111.462 180.54L111.747 181.485H111.764H111.81L111.888 181.501H111.995H112.015L112.152 181.525H112.202L113.843 202.415C113.944 210.562 116.934 215.071 116.934 215.071L116.522 233.057C117.085 237.389 115.853 243.164 115.287 245.469L113.994 248.387C113.485 248.641 113.046 249.016 112.714 249.478C112.382 249.94 112.167 250.476 112.088 251.04C111.834 253.194 109.567 257.837 109.567 257.837C108.689 258.949 106.784 261.954 106.784 261.954C106.784 261.954 105.886 264.855 106.442 265.941C106.998 267.026 111.646 266.915 111.646 266.915C116.954 268.091 121.023 265.24 120.765 263.277C120.508 261.314 121.593 260.815 121.593 260.815C123.702 260.145 123.498 258.715 123.498 258.715C123.952 255.764 123.389 252.747 121.901 250.159L121.566 250.933C121.475 249.384 121.692 247.832 122.202 246.367L122.008 246.501L121.948 246.538H121.928C122.262 243.6 125.347 238.163 125.347 238.163C131.013 228.22 128.954 214.746 128.954 214.746L128.076 210.546L128.026 208.961C127.906 205.178 128.192 201.393 128.88 197.672C129.185 196.023 129.499 194.034 129.741 191.839C130.25 187.203 131.891 182.419 132.647 180.392L132.872 180.352H132.899C133.207 180.299 133.518 180.245 133.833 180.185H133.893C133.893 180.185 134.074 179.207 134.228 177.542C134.319 176.48 134.392 175.133 134.392 173.585C134.415 168.912 133.702 164.265 132.279 159.814L132.45 159.569C132.45 159.569 132.855 159.02 133.595 158.068C134.955 156.34 137.071 153.713 139.68 150.752C144.352 145.422 142.979 140.032 142.979 140.032C142.979 140.032 139.596 127.634 138.089 120.19C137.229 115.949 135.615 113.065 134.379 111.363C134.657 110.19 134.815 108.991 134.848 107.785C134.948 105.581 134.871 103.283 133.88 101.303C132.889 99.3232 130.779 97.7588 128.575 98.0234C128.263 98.0988 127.937 98.0988 127.624 98.0234C127.366 97.9066 127.149 97.7167 126.998 97.4774C125.708 95.6986 125.625 93.3067 126.027 91.1493C126.429 88.9919 127.252 86.9284 127.621 84.7643C127.989 82.6002 127.822 80.1983 126.445 78.4831C124.828 76.4731 122.008 75.907 119.905 74.3961C118.428 73.3342 117.319 71.81 115.762 70.8686C114.205 69.9273 112.748 70.2857 111.057 70.6408C108.214 71.2405 105.511 71.5152 102.822 72.7379C100.099 73.9713 97.6567 75.7486 95.6452 77.9605C94.9312 78.6735 94.3845 79.5362 94.0445 80.4864C93.3747 82.7007 94.6841 85.0591 94.4095 87.3505C94.2153 88.9752 93.2575 90.3889 92.4972 91.8394C91.737 93.2899 91.1577 95.0118 91.7538 96.5294C92.6915 98.9011 95.7491 99.4036 97.9727 100.667C98.2698 100.812 98.5238 101.033 98.7095 101.306C99.2587 102.264 98.1368 103.259 97.4302 104.11C97.0258 104.607 96.7395 105.189 96.593 105.812C95.6725 106.19 94.859 106.789 94.2242 107.555C93.5894 108.321 93.1528 109.232 92.9527 110.207C92.1992 113.581 93.3579 117.838 94.3794 120.652C93.2642 126.92 94.7142 129.393 95.7826 130.341C96.864 131.267 97.5337 132.585 97.6445 134.005V134.123C97.7149 135.262 97.8354 136.397 97.9962 137.53C97.9593 137.265 97.9225 136.984 97.9024 136.86C97.0283 138.478 95.3639 142.611 94.4262 149.566C94.2311 151.057 93.9482 152.534 93.579 153.991C92.9082 156.572 92.6683 159.245 92.869 161.904L93.0364 164.159C92.8717 164.163 92.7107 164.109 92.581 164.008L93.7564 166.162V169.796C93.7551 171.435 93.4532 173.06 92.8656 174.59C92.7819 174.811 92.6915 175.032 92.5944 175.26C92.2923 175.872 92.1561 176.552 92.1992 177.233C89.6708 181.109 83.8738 202.831 83.8738 202.831C80.7291 209.953 84.1317 214.555 84.1317 214.555C84.1317 214.555 85.7793 234.384 86.0874 235.409C86.3955 236.434 87.0787 248.521 87.0787 248.521C87.0787 248.839 87.0787 249.171 87.0787 249.482C86.8959 249.402 86.7033 249.347 86.506 249.318C83.7499 249.164 83.0031 253.519 83.0031 253.519L77.3635 258.906C77.3635 258.906 74.7882 258.47 71.0005 261.314C67.2129 264.158 73.4486 266.751 73.4486 266.751ZM129.761 152.152L129.744 152.092L129.59 152.182L129.526 152.219L129.496 152.239L126.897 143.064C126.202 140.604 126.136 138.008 126.706 135.516L128.716 126.713V124.595L135.102 141.62C135.511 143.915 131.716 149.472 129.761 152.152Z" fill="url(#paint3_linear)"/>
<path d="M132.564 179.846C132.564 179.846 129.985 186.121 129.329 192.141C129.091 194.311 128.783 196.275 128.481 197.903C127.812 201.578 127.536 205.314 127.658 209.048L127.708 210.612L128.545 214.756C128.545 214.756 130.554 228.066 125.005 237.871C125.005 237.871 121.717 243.744 121.616 246.524L119.389 247.385L114.888 246.122C114.888 246.122 117.062 238.327 116.355 232.863L116.76 215.108C116.76 215.108 113.837 210.666 113.736 202.626L112.018 180.563L132.564 179.846Z" fill="#FDC2CC"/>
<path d="M112.018 176.704C112.018 176.704 111.465 185.307 107.212 191.236C102.959 197.166 102.055 199.738 102.055 199.738L96.8173 210.331C96.2108 211.559 96.0373 212.955 96.325 214.294L96.8407 216.679C96.8407 216.679 99.6739 226.294 96.7905 233.734L95.4241 248.105H87.4336C87.4336 248.105 86.7638 236.163 86.4725 235.151C86.1811 234.139 84.5502 214.555 84.5502 214.555C84.5502 214.555 81.2013 209.999 84.2957 202.968C84.2957 202.968 91.2782 176.654 93.1469 177.109C95.0156 177.565 112.018 176.704 112.018 176.704Z" fill="#FDC2CC"/>
<g opacity="0.1">
<path opacity="0.1" d="M96.0302 216.696L95.5179 214.311C95.2222 212.967 95.3948 211.563 96.0068 210.331L101.245 199.728C101.245 199.728 102.152 197.149 106.402 191.226C110.484 185.531 111.157 177.371 111.204 176.744L112.018 176.704C112.018 176.704 111.465 185.307 107.212 191.236C102.959 197.166 102.055 199.738 102.055 199.738L96.8172 210.331C96.2108 211.559 96.0372 212.955 96.325 214.294L96.8407 216.679C96.8407 216.679 99.6739 226.294 96.7904 233.734L95.4241 248.105H94.6136L95.98 233.734C98.8634 226.294 96.0302 216.696 96.0302 216.696Z" fill="black"/>
</g>
<path opacity="0.1" d="M120.819 246.534C120.919 243.754 124.208 237.881 124.208 237.881C129.774 228.066 127.748 214.766 127.748 214.766L126.891 210.619L126.84 209.055C126.719 205.321 126.995 201.585 127.664 197.909C127.962 196.281 128.27 194.318 128.508 192.147C129.141 186.352 131.556 180.322 131.733 179.88L132.564 179.846C132.564 179.846 129.985 186.121 129.329 192.141C129.091 194.311 128.783 196.275 128.481 197.903C127.812 201.578 127.536 205.314 127.658 209.048L127.708 210.612L128.545 214.756C128.545 214.756 130.554 228.066 125.005 237.871C125.005 237.871 121.717 243.744 121.616 246.524L119.389 247.385L118.92 247.254L120.819 246.534Z" fill="black"/>
<path d="M118.24 246.434C118.843 246.672 119.497 246.756 120.14 246.676C120.784 246.597 121.397 246.357 121.924 245.978C121.187 248.13 121.082 250.448 121.623 252.658C122.534 256.303 113.123 249.723 113.123 249.723L115.133 245.13C115.133 245.13 115.913 246.584 118.24 246.434Z" fill="#D39999"/>
<path opacity="0.1" d="M118.94 246.638C119.458 246.742 119.992 246.737 120.507 246.621C121.022 246.506 121.507 246.283 121.931 245.968C121.194 248.12 121.089 250.438 121.629 252.648C122.54 256.293 113.13 249.713 113.13 249.713L115.139 245.12C115.139 245.12 115.722 246.239 117.433 246.413C117.952 246.474 118.448 246.544 118.94 246.638Z" fill="black"/>
<path d="M96.8909 161.301H100.823V138.987L97.8721 138.458L96.8909 161.301Z" fill="#FDC2CC"/>
<path opacity="0.05" d="M96.8909 161.301H100.823V138.987L97.8721 138.458L96.8909 161.301Z" fill="black"/>
<path d="M116.013 248.155C116.013 248.155 118.492 248.001 119.603 250.229L120.97 251.291L121.64 249.723C123.093 252.285 123.638 255.264 123.187 258.175C123.187 258.175 123.388 259.589 121.315 260.249C121.315 260.249 120.253 260.755 120.504 262.678C120.755 264.6 116.763 267.434 111.553 266.269C111.553 266.269 106.998 266.373 106.442 265.307C105.886 264.242 106.797 261.411 106.797 261.411C106.797 261.411 108.669 258.443 109.526 257.348C109.526 257.348 111.753 252.758 112.008 250.648C112.263 248.537 114.697 246.99 116.013 248.155Z" fill="#7E5659"/>
<path d="M95.5011 250.028L95.5413 246.883C95.5413 246.883 91.0169 248.186 87.3532 246.712C87.3532 246.712 87.6613 249.874 87.1523 250.306C86.6432 250.738 88.8468 254.809 88.8468 254.809L91.3083 257.388L95.5413 255.847L96.69 252.229C96.69 252.229 95.8025 250.028 95.5011 250.028Z" fill="#D39999"/>
<path opacity="0.1" d="M95.5011 250.028L95.5413 246.883C95.5413 246.883 91.0169 248.186 87.3532 246.712C87.3532 246.712 87.6613 249.874 87.1523 250.306C86.6432 250.738 88.8468 254.809 88.8468 254.809L91.3083 257.388L95.5413 255.847L96.69 252.229C96.69 252.229 95.8025 250.028 95.5011 250.028Z" fill="black"/>
<path d="M86.8743 248.889C86.8743 248.889 89.2788 249.167 88.9741 252.239C88.6693 255.311 89.1013 252.239 89.1013 252.239C89.1013 252.239 91.6566 253.274 92.5675 254.718C93.4784 256.162 95.1227 253.428 95.2466 252.644C95.3705 251.86 96.3953 251.536 96.3953 251.536C96.3953 251.536 100.414 258.989 99.704 261.039C98.994 263.09 90.3672 263.562 90.3672 263.562C90.3672 263.562 88.7966 262.678 85.1797 265.435C81.5629 268.192 74.0513 266.105 74.0513 266.105C74.0513 266.105 67.9294 263.549 71.6501 260.745C75.3707 257.941 77.8958 258.366 77.8958 258.366L83.4349 253.026C83.4349 253.026 84.1684 248.735 86.8743 248.889Z" fill="#7E5659"/>
<path d="M115.591 72.6776C117.122 73.6055 118.21 75.113 119.66 76.1616C121.723 77.6523 124.493 78.2084 126.08 80.1983C127.42 81.8934 127.594 84.2618 127.232 86.3991C126.871 88.5363 126.06 90.5765 125.668 92.707C125.276 94.8376 125.357 97.1994 126.623 98.9547C126.77 99.1908 126.983 99.3783 127.236 99.4941C127.543 99.5675 127.863 99.5675 128.17 99.4941C130.333 99.2328 132.41 100.78 133.381 102.733C134.352 104.687 134.429 106.958 134.329 109.135C134.245 110.921 134.044 112.743 133.26 114.351C131.921 117.085 129.134 118.773 126.385 120.066C124.598 120.907 122.765 121.647 120.896 122.284C119.61 122.719 118.254 123.111 116.918 122.884C114.63 122.488 113.009 120.408 110.839 119.594C109.061 118.924 107.088 119.165 105.196 119.333C103.582 119.473 101.737 119.47 100.625 118.291C99.1984 116.777 99.8414 114.334 100.571 112.385C99.7982 112.336 99.0536 112.074 98.4198 111.628C97.786 111.182 97.2877 110.57 96.98 109.859C96.6723 109.147 96.5672 108.365 96.6761 107.598C96.7851 106.83 97.104 106.108 97.5976 105.511C98.2875 104.67 99.3893 103.688 98.8501 102.74C98.669 102.47 98.4194 102.252 98.1267 102.11C95.9466 100.864 92.9426 100.365 92.025 98.0268C91.4356 96.5227 92.0049 94.8209 92.7517 93.3904C93.4985 91.96 94.4262 90.5597 94.6305 88.9584C94.8984 86.6939 93.6258 84.3656 94.2721 82.1814C94.6062 81.2433 95.1425 80.3902 95.8428 79.6824C97.8114 77.5025 100.205 75.7481 102.876 74.5268C105.518 73.3174 108.167 73.0461 110.96 72.4565C112.634 72.1014 114.021 71.7262 115.591 72.6776Z" fill="#865A61"/>
<path d="M100.819 106.402C100.819 106.402 94.4128 106.067 93.2005 111.53C91.9881 116.994 95.8294 124.82 95.8294 124.82L100.819 106.402Z" fill="#FDC2CC"/>
<path opacity="0.05" d="M100.819 106.402C100.819 106.402 94.4128 106.067 93.2005 111.53C91.9881 116.994 95.8294 124.82 95.8294 124.82L100.819 106.402Z" fill="black"/>
<path d="M96.7302 122.662L99.1582 124.585L110.488 125.091L117.561 120.234L124.754 107.886C120.357 106.763 118.579 103.725 117.915 100.884C117.494 98.9616 117.446 96.9758 117.775 95.0352C117.775 95.0352 106.241 89.0622 107.658 98.3851C107.852 99.5294 107.888 100.695 107.765 101.849C107.095 107.309 101.797 106.281 101.797 106.281L99.7643 109.417L97.4368 117.121L96.7302 122.662Z" fill="#FDC2CC"/>
<path opacity="0.1" d="M107.668 98.3718C107.862 99.516 107.898 100.682 107.775 101.836C109.402 102.579 111.196 102.883 112.977 102.716C114.758 102.549 116.465 101.917 117.926 100.884C117.504 98.9617 117.456 96.9758 117.785 95.0352C117.785 95.0352 106.251 89.0622 107.668 98.3718Z" fill="black"/>
<path d="M112.025 102.355C117.668 102.355 122.242 97.7789 122.242 92.1341C122.242 86.4893 117.668 81.9133 112.025 81.9133C106.382 81.9133 101.807 86.4893 101.807 92.1341C101.807 97.7789 106.382 102.355 112.025 102.355Z" fill="#FDC2CC"/>
<path d="M104.798 120.713C105.046 120.713 105.29 120.75 105.534 120.773C106.874 120.907 112.47 121.209 115.658 117.4C119.225 113.138 123.974 107.876 124.168 107.661L129 109.122C129 109.122 125.176 107.762 122.637 114.877C122.08 116.37 122.022 118.002 122.47 119.531C122.919 121.059 123.851 122.401 125.126 123.356C126.064 124.036 127.145 124.494 128.287 124.696C128.289 124.698 128.289 124.701 128.289 124.704C128.289 124.707 128.289 124.71 128.287 124.713V127.835L126.311 136.545C125.75 139.006 125.814 141.569 126.499 143.998L129.513 154.655C129.057 154.97 110.357 167.693 97.8655 158.906C97.9123 158.524 99.4562 146.018 98.3845 139.898C98.1094 138.333 97.9226 136.754 97.8253 135.168C97.8253 135.128 97.8253 135.091 97.8253 135.051C97.7147 133.65 97.0565 132.35 95.9934 131.433C94.8682 130.428 93.3444 127.748 94.8514 120.666C95.2322 118.912 95.7933 117.202 96.5259 115.564L100.715 106.094L104.577 106.171V106.197C104.242 106.613 99.7643 112.207 99.2787 115.812C98.8031 119.239 98.2171 120.291 104.798 120.713Z" fill="#274DBB"/>
<path d="M132.252 110.787C132.252 110.787 136.03 114.026 137.513 121.379C138.997 128.733 142.302 140.946 142.302 140.946C142.302 140.946 143.642 146.276 139.064 151.539C134.486 156.802 131.442 160.919 131.442 160.919L128.428 165.361C127.914 166.118 127.143 166.663 126.258 166.895C124.885 167.257 122.775 167.518 120.946 166.517C120.281 166.145 119.776 165.54 119.529 164.818C119.282 164.097 119.309 163.31 119.607 162.607L120.276 161.056C120.276 161.056 114.071 164.969 113.532 162.808C112.993 160.648 120.749 158.49 120.749 158.49C120.749 158.49 127.155 157.412 128.451 154.377C128.451 154.377 135.33 145.536 134.791 142.501L128.146 124.689C128.146 124.689 119.838 123.59 122.671 114.254C125.504 104.918 132.252 110.787 132.252 110.787Z" fill="#FDC2CC"/>
<path d="M92.5239 177.987C92.5239 177.987 107.701 181.022 111.278 180.617L111.663 181.9C111.663 181.9 117.423 183.19 130.447 181.123C131.298 180.989 132.181 180.838 133.096 180.67L133.401 180.617C133.401 180.617 133.578 179.652 133.719 178.007C134.03 174.272 134.141 167.039 131.512 159.636L129.322 152.889C129.322 152.889 115.786 161.006 106.824 160.259C106.023 160.192 105.23 160.128 104.429 160.102C102.591 160.031 99.7408 160.102 97.8889 158.618L94.0041 159.288V170.342C94.0028 171.96 93.7054 173.563 93.1267 175.073C93.043 175.294 92.9559 175.511 92.8588 175.743C92.5024 176.433 92.3846 177.223 92.5239 177.987Z" fill="#464353"/>
<path opacity="0.1" d="M111.66 178.459V181.9C111.66 181.9 118.291 183.384 133.398 180.617C133.398 180.617 133.575 179.652 133.716 178.007C129.081 178.751 116.298 180.54 111.66 178.459Z" fill="black"/>
<path opacity="0.1" d="M92.524 177.987C92.524 177.987 107.701 181.022 111.278 180.617L111.663 181.9V178.459C109.935 179.176 97.5976 176.201 93.1268 175.086C93.043 175.307 92.956 175.525 92.8589 175.756C92.5054 176.443 92.3877 177.227 92.524 177.987Z" fill="black"/>
<path d="M129.319 174.151L130.444 181.133C131.294 180.999 132.177 180.848 133.093 180.68C132.741 178.64 131.974 173.981 132.185 173.207L130.769 171.994L129.319 174.151Z" fill="#65617D"/>
<path opacity="0.1" d="M129.476 174.001L130.601 180.985C131.452 180.849 132.335 180.698 133.25 180.533C132.899 178.493 132.132 173.833 132.343 173.059L130.926 171.843L129.476 174.001Z" fill="black"/>
<g opacity="0.05">
<path opacity="0.05" d="M106.01 160.256C105.213 160.189 104.416 160.125 103.616 160.098C101.827 160.031 99.0978 160.098 97.2358 158.728L97.8855 158.614C99.7475 160.092 102.574 160.028 104.426 160.098C105.226 160.125 106.02 160.189 106.82 160.256C107.082 160.279 107.35 160.293 107.621 160.299C107.084 160.314 106.546 160.299 106.01 160.256Z" fill="black"/>
<path opacity="0.05" d="M129.633 181.123C130.484 180.989 131.367 180.839 132.282 180.674L132.59 180.617C132.59 180.617 132.768 179.652 132.905 178.007C133.22 174.272 133.33 167.039 130.698 159.636L128.635 153.271C129.074 153.023 129.305 152.879 129.305 152.879L131.495 159.626C134.124 167.029 134.014 174.262 133.702 177.997C133.562 179.642 133.384 180.607 133.384 180.607L133.079 180.664C132.166 180.829 131.283 180.979 130.43 181.113C124.345 182.077 119.851 182.312 116.783 182.285C121.09 182.22 125.385 181.831 129.633 181.123Z" fill="black"/>
<path opacity="0.05" d="M110.461 180.617V180.654H110.025C110.191 180.643 110.336 180.63 110.461 180.617Z" fill="black"/>
</g>
<path d="M131.204 175.455C131.52 175.455 131.777 174.927 131.777 174.275C131.777 173.624 131.52 173.096 131.204 173.096C130.888 173.096 130.631 173.624 130.631 174.275C130.631 174.927 130.888 175.455 131.204 175.455Z" fill="#D39999"/>
<path d="M94.6539 150.397C95.5782 143.529 97.2092 139.449 98.0698 137.851C98.1033 138.069 98.1904 138.776 98.2306 138.993C98.4047 139.998 98.2507 141.265 98.3043 142.541L97.4469 158.071L98.5956 162.929C99.674 166.775 95.6787 163.736 95.6787 163.736C94.8515 165.559 93.3345 165.358 93.3345 165.358L93.1268 162.57C92.9302 159.945 93.1655 157.305 93.8234 154.755C94.1866 153.32 94.4639 151.865 94.6539 150.397Z" fill="#FDC2CC"/>
<path opacity="0.05" d="M94.6539 150.397C95.5782 143.529 97.2092 139.449 98.0698 137.851C98.1033 138.069 98.1904 138.776 98.2306 138.993C98.4047 139.998 98.2507 141.265 98.3043 142.541L97.4469 158.071L98.5956 162.929C99.674 166.775 95.6787 163.736 95.6787 163.736C94.8515 165.559 93.3345 165.358 93.3345 165.358L93.1268 162.57C92.9302 159.945 93.1655 157.305 93.8234 154.755C94.1866 153.32 94.4639 151.865 94.6539 150.397Z" fill="black"/>
<path d="M133.093 158.775C132.366 159.716 131.968 160.256 131.968 160.256L128.954 164.694C128.441 165.453 127.669 165.998 126.783 166.229C125.41 166.59 123.301 166.855 121.472 165.85C120.806 165.479 120.301 164.875 120.054 164.154C119.806 163.433 119.834 162.646 120.132 161.944L120.802 160.39C120.802 160.39 114.597 164.302 114.058 162.145C113.518 159.988 121.274 157.827 121.274 157.827C121.274 157.827 127.681 156.748 128.977 153.71C128.977 153.71 129.536 152.993 130.317 151.894" fill="#FDC2CC"/>
<path d="M129.319 166.215C129.319 166.215 121.981 165.502 119.657 161.304L118.592 164.771C118.592 164.771 126.294 170.091 128.053 169.401L129.319 166.215Z" fill="#65617D"/>
<path opacity="0.1" d="M129.057 166.182C129.057 166.182 121.723 165.468 119.396 161.267L118.334 164.724C118.334 164.724 126.037 170.044 127.791 169.354L129.057 166.182Z" fill="black"/>
<path d="M95.9198 164.256C95.9198 164.256 93.3511 165.167 92.8455 164.661L94.0008 166.788L96.1843 165.113L95.9198 164.256Z" fill="#65617D"/>
<path opacity="0.1" d="M95.9198 164.256C95.9198 164.256 93.3511 165.167 92.8455 164.661L94.0008 166.788L96.1843 165.113L95.9198 164.256Z" fill="black"/>
<path opacity="0.1" d="M111.66 178.459V174.021L110.605 178.567L111.66 178.459Z" fill="black"/>
<path opacity="0.1" d="M122.065 86.7373C121.445 87.6083 120.37 88.0505 119.312 88.1879C118.254 88.3252 117.182 88.208 116.114 88.1879C114.439 88.1611 112.658 88.419 111.288 89.4039C110.414 90.0303 109.758 90.9114 109.074 91.7489C107.005 94.2781 104.131 96.6465 100.869 96.3819C100.585 96.3819 100.304 96.325 100.043 96.2145C99.7808 96.1041 99.5439 95.9423 99.3457 95.7387C99.08 95.3259 98.9446 94.8426 98.9572 94.3518C98.817 92.2667 98.8832 90.1728 99.1548 88.1008C99.2857 86.8184 99.6038 85.5622 100.099 84.3723C100.682 83.1795 101.449 82.0854 102.37 81.1295C103.484 79.8364 104.827 78.7598 106.332 77.9537C107.852 77.1472 109.613 76.9199 111.288 77.3139C113.24 77.8465 114.761 79.3741 116.623 80.1614C118.749 81.0558 124.396 83.4443 122.065 86.7373Z" fill="black"/>
<path d="M122.065 86.332C121.445 87.203 120.37 87.6452 119.312 87.7825C118.254 87.9199 117.182 87.8026 116.114 87.7825C114.439 87.7524 112.658 88.0103 111.288 88.9952C110.414 89.6217 109.758 90.5027 109.074 91.3402C107.005 93.8694 104.131 96.2379 100.869 95.9732C100.585 95.974 100.304 95.9174 100.042 95.8069C99.7803 95.6964 99.5434 95.5342 99.3457 95.33C99.0794 94.9175 98.944 94.434 98.9572 93.9431C98.817 91.858 98.8832 89.7642 99.1548 87.6921C99.2857 86.4097 99.6038 85.1535 100.099 83.9636C100.681 82.7713 101.448 81.6781 102.37 80.7241C103.483 79.4291 104.826 78.3512 106.332 77.545C107.852 76.7385 109.613 76.5112 111.288 76.9052C113.24 77.4378 114.761 78.9654 116.623 79.7527C118.749 80.6505 124.396 83.0323 122.065 86.332Z" fill="#865A61"/>
<path d="M97.8889 158.611L97.8621 159.834L97.5875 158.664L97.8889 158.611Z" fill="#FDC2CC"/>
<path opacity="0.05" d="M97.8889 158.611L97.8621 159.834L97.5875 158.664L97.8889 158.611Z" fill="black"/>
<g opacity="0.05">
<path opacity="0.05" d="M123.716 113.614C120.879 122.95 129.148 124.046 129.148 124.046L135.792 141.858C136.331 144.893 129.449 153.733 129.449 153.733C128.97 154.866 127.775 155.727 126.469 156.363C127.232 155.898 127.846 155.224 128.237 154.42C128.237 154.42 135.116 145.583 134.576 142.548L127.932 124.733C127.932 124.733 119.667 123.637 122.5 114.301C123.448 111.182 124.844 109.762 126.258 109.252C125.283 110.036 124.389 111.393 123.716 113.614Z" fill="black"/>
</g>
<g opacity="0.1">
<path opacity="0.1" d="M123.857 122.096C124.245 122.577 124.695 123.004 125.196 123.366C126.134 124.047 127.215 124.506 128.358 124.706C128.358 124.706 128.358 124.706 128.358 124.723V125.058C127.324 124.839 126.348 124.406 125.491 123.788C124.854 123.321 124.301 122.749 123.857 122.096Z" fill="black"/>
<path opacity="0.1" d="M98.1636 135.453C98.1636 135.489 98.1636 135.53 98.1636 135.57C98.2679 137.162 98.4602 138.746 98.7396 140.317C99.7442 146.092 98.4281 157.559 98.2406 159.144C98.1334 159.073 98.0263 159.006 97.9057 158.929C97.9559 158.547 99.4998 146.042 98.4281 139.925C98.1534 138.36 97.9666 136.781 97.8689 135.195C97.8689 135.154 97.8689 135.114 97.8689 135.077C97.8024 134.158 97.4913 133.273 96.968 132.515C97.6622 133.346 98.0801 134.373 98.1636 135.453Z" fill="black"/>
<path opacity="0.1" d="M104.329 106.549L101.054 106.485C101.051 106.484 101.048 106.483 101.045 106.483C101.042 106.483 101.04 106.484 101.037 106.485L96.8508 115.952C96.1188 117.591 95.5577 119.301 95.1764 121.054C93.9574 126.783 94.7243 129.637 95.6553 131.047C94.6071 129.811 93.5254 126.994 94.875 120.662C95.2488 118.908 95.8043 117.197 96.5327 115.557L100.749 106.09L104.61 106.167V106.191C104.58 106.231 104.476 106.358 104.329 106.549Z" fill="black"/>
<path opacity="0.1" d="M129.01 109.118L129.068 109.135L129.01 109.118Z" fill="black"/>
<path opacity="0.1" d="M127.808 109.065L124.526 108.077H124.51C124.315 108.291 119.57 113.554 116.003 117.815C112.815 121.624 107.226 121.326 105.879 121.192C105.635 121.165 105.387 121.145 105.143 121.128C101.482 120.894 100.042 120.458 99.5601 119.534C100.247 120.204 101.757 120.539 104.838 120.726C105.086 120.726 105.33 120.763 105.575 120.786C106.914 120.92 112.51 121.219 115.698 117.413C119.265 113.148 124.014 107.886 124.208 107.671L128.984 109.118C128.599 109.023 128.2 109.004 127.808 109.065Z" fill="black"/>
</g>
<path opacity="0.1" d="M88.9506 253.757C88.9506 253.757 84.3291 255.02 83.4349 253.036L88.9506 253.757Z" fill="black"/>
<path opacity="0.1" d="M118.291 252.809C118.291 252.809 112.932 254.192 111.693 252.052L118.291 252.809Z" fill="black"/>
<path opacity="0.1" d="M168.534 250.393C168.534 250.393 167.258 251.294 165.457 252.758C165.179 252.987 164.884 253.192 164.573 253.371C163.263 252.366 162.898 250.775 162.824 249.964C162.788 249.609 162.731 249.261 162.667 248.909C162.495 247.711 162.623 246.488 163.039 245.352C165.54 245.526 168.534 250.393 168.534 250.393Z" fill="black"/>
<path opacity="0.1" d="M186.833 250.387C186.833 250.387 188.102 251.284 189.89 252.732C190.166 252.96 190.46 253.164 190.771 253.341C192.074 252.353 192.419 250.762 192.509 249.955C192.546 249.62 192.603 249.254 192.667 248.906C192.841 247.716 192.72 246.501 192.315 245.368C189.81 245.549 186.833 250.387 186.833 250.387Z" fill="black"/>
<path d="M168.93 265.043C168.93 265.043 168.441 266.343 168.93 266.343C169.419 266.343 168.93 265.043 168.93 265.043Z" fill="#3F2B3B"/>
<path d="M185.865 262.299C185.865 262.299 186.779 263.143 186.428 263.354C186.076 263.565 185.865 262.299 185.865 262.299Z" fill="#3F2B3B"/>
<path d="M187.091 265.043C187.091 265.043 187.576 266.343 187.091 266.343C186.605 266.343 187.091 265.043 187.091 265.043Z" fill="#3F2B3B"/>
<path opacity="0.1" d="M192.315 276.962C192.181 278.818 191.823 281.796 191.823 281.796C191.823 281.796 190.333 281.977 188.029 282.184C188.016 282.055 188.016 281.925 188.029 281.796C188.343 279.528 188.24 277.776 189.703 277.367C191.076 276.995 191.776 276.858 192.315 276.962Z" fill="black"/>
<path opacity="0.1" d="M166.314 274.624C166.314 274.624 167.989 275.22 168.323 276.362L166.314 274.624Z" fill="black"/>
<path opacity="0.1" d="M189.924 273.779C189.924 273.779 188.735 274.279 188.819 276.362L189.924 273.779Z" fill="black"/>
<path opacity="0.1" d="M64.5002 241.402C69.4811 241.402 73.5189 240.72 73.5189 239.878C73.5189 239.036 69.4811 238.354 64.5002 238.354C59.5194 238.354 55.4816 239.036 55.4816 239.878C55.4816 240.72 59.5194 241.402 64.5002 241.402Z" fill="#274DBB"/>
<path opacity="0.1" d="M28.9715 263.019C33.9524 263.019 37.9902 262.337 37.9902 261.495C37.9902 260.653 33.9524 259.971 28.9715 259.971C23.9907 259.971 19.9529 260.653 19.9529 261.495C19.9529 262.337 23.9907 263.019 28.9715 263.019Z" fill="#274DBB"/>
<path d="M19.5811 244.434C27.0182 244.434 33.0471 243.414 33.0471 242.156C33.0471 240.898 27.0182 239.878 19.5811 239.878C12.144 239.878 6.11511 240.898 6.11511 242.156C6.11511 243.414 12.144 244.434 19.5811 244.434Z" fill="#274DBB"/>
<path d="M14.0119 238.431C13.3962 237.931 12.9476 237.256 12.7259 236.494C12.5618 235.724 12.89 234.803 13.6234 234.521C14.4472 234.206 15.328 234.776 15.9944 235.352C16.6609 235.928 17.4278 236.588 18.3018 236.467C17.8523 236.06 17.5161 235.542 17.3259 234.966C17.1358 234.389 17.0982 233.773 17.2168 233.178C17.2529 232.931 17.3573 232.699 17.5182 232.508C17.9736 232.019 18.8042 232.23 19.3534 232.615C21.0915 233.841 21.5804 236.206 21.5871 238.337C21.7646 237.566 21.6173 236.769 21.6206 235.992C21.624 235.215 21.8416 234.317 22.5047 233.908C22.9143 233.681 23.3762 233.566 23.8443 233.573C24.6279 233.546 25.4987 233.623 26.0345 234.196C26.7043 234.906 26.5268 236.102 25.9474 236.876C25.3681 237.65 24.4906 238.149 23.6835 238.692C23.0335 239.077 22.4793 239.605 22.0627 240.236C22.0139 240.324 21.9735 240.416 21.9421 240.511H17.0493C15.9469 239.959 14.925 239.259 14.0119 238.431Z" fill="#274DBB"/>
<path opacity="0.1" d="M344.882 254.152C349.863 254.152 353.901 253.47 353.901 252.628C353.901 251.786 349.863 251.104 344.882 251.104C339.901 251.104 335.863 251.786 335.863 252.628C335.863 253.47 339.901 254.152 344.882 254.152Z" fill="#274DBB"/>
<path opacity="0.2" d="M355.843 251.871C350.036 251.918 342.35 250.966 340.803 250.021C339.624 249.305 339.155 246.728 338.998 245.539H338.827C338.827 245.539 339.162 249.69 340.699 250.631C342.236 251.572 349.932 252.527 355.739 252.48C357.413 252.48 357.996 251.871 357.963 250.986C357.732 251.536 357.092 251.871 355.843 251.871Z" fill="black"/>
<defs>
<linearGradient id="paint0_linear" x1="161.294" y1="237.952" x2="161.294" y2="39.9383" gradientUnits="userSpaceOnUse">
<stop stop-color="#808080" stop-opacity="0.25"/>
<stop offset="0.54" stop-color="#808080" stop-opacity="0.12"/>
<stop offset="1" stop-color="#808080" stop-opacity="0.1"/>
</linearGradient>
<linearGradient id="paint1_linear" x1="46126.6" y1="160047" x2="46126.6" y2="35064.7" gradientUnits="userSpaceOnUse">
<stop stop-color="#808080" stop-opacity="0.25"/>
<stop offset="0.54" stop-color="#808080" stop-opacity="0.12"/>
<stop offset="1" stop-color="#808080" stop-opacity="0.1"/>
</linearGradient>
<linearGradient id="paint2_linear" x1="61150.1" y1="162930" x2="61150.1" y2="47266.5" gradientUnits="userSpaceOnUse">
<stop stop-color="#808080" stop-opacity="0.25"/>
<stop offset="0.54" stop-color="#808080" stop-opacity="0.12"/>
<stop offset="1" stop-color="#808080" stop-opacity="0.1"/>
</linearGradient>
<linearGradient id="paint3_linear" x1="-35024.3" y1="161548" x2="-35024.3" y2="45412.1" gradientUnits="userSpaceOnUse">
<stop stop-color="#808080" stop-opacity="0.25"/>
<stop offset="0.54" stop-color="#808080" stop-opacity="0.12"/>
<stop offset="1" stop-color="#808080" stop-opacity="0.1"/>
</linearGradient>
</defs>
</svg>
