<svg width="262" height="526" viewBox="0 0 262 526" fill="none" xmlns="http://www.w3.org/2000/svg">
<g id="phone">
<path id="Vector" d="M261.858 124.764H258.972V45.7379C258.972 39.7315 257.789 33.7839 255.49 28.2348C253.19 22.6856 249.82 17.6434 245.572 13.3963C241.324 9.14912 236.28 5.7801 230.73 3.48156C225.179 1.18302 219.23 -1.89469e-05 213.222 2.27587e-10H45.7503C39.7423 -1.42101e-05 33.7931 1.18302 28.2424 3.48156C22.6917 5.7801 17.6483 9.14913 13.3999 13.3963C9.15164 17.6435 5.78169 22.6856 3.48252 28.2348C1.18336 33.784 -6.63324e-06 39.7315 0 45.7379V479.279C-7.58085e-06 485.285 1.18336 491.233 3.48252 496.782C5.78169 502.331 9.15164 507.373 13.3999 511.62C17.6483 515.867 22.6917 519.237 28.2424 521.535C33.7931 523.834 39.7423 525.017 45.7503 525.017H213.222C219.23 525.017 225.179 523.834 230.73 521.535C236.28 519.237 241.324 515.867 245.572 511.62C249.82 507.373 253.19 502.331 255.49 496.782C257.789 491.233 258.972 485.285 258.972 479.279V181.015H261.858V124.764Z" fill="#3F3D56"/>
<path id="Vector_2" d="M215.068 11.8994H193.207C194.213 14.3635 194.596 17.0369 194.325 19.6841C194.053 22.3313 193.134 24.8711 191.65 27.0798C190.165 29.2885 188.16 31.0983 185.81 32.3497C183.461 33.6011 180.84 34.2557 178.179 34.2559H82.2362C79.5744 34.2557 76.9535 33.6011 74.6043 32.3497C72.2551 31.0983 70.2499 29.2885 68.7651 27.0798C67.2804 24.8711 66.3617 22.3313 66.0901 19.6841C65.8185 17.0368 66.2022 14.3635 67.2075 11.8994H46.7897C42.303 11.8994 37.8602 12.7829 33.7151 14.4994C29.5699 16.2159 25.8035 18.7319 22.6309 21.9036C19.4583 25.0753 16.9417 28.8407 15.2247 32.9848C13.5077 37.1288 12.6239 41.5704 12.6239 46.0559V478.961C12.6239 483.446 13.5077 487.888 15.2247 492.032C16.9417 496.176 19.4583 499.941 22.6309 503.113C25.8035 506.285 29.5699 508.801 33.7151 510.517C37.8602 512.234 42.303 513.117 46.7897 513.117H215.068C219.555 513.117 223.997 512.234 228.143 510.517C232.288 508.801 236.054 506.285 239.227 503.113C242.399 499.941 244.916 496.176 246.633 492.032C248.35 487.888 249.234 483.446 249.234 478.961V46.056C249.234 41.5704 248.35 37.1289 246.633 32.9848C244.916 28.8407 242.399 25.0754 239.227 21.9036C236.054 18.7319 232.288 16.216 228.143 14.4994C223.997 12.7829 219.555 11.8994 215.068 11.8994Z" fill="white"/>
<path id="Vector_3" d="M198.637 147.351H94.6778V152.889H198.637V147.351Z" fill="#E6E6E6"/>
<path id="Vector_4" d="M198.535 166.508H94.6778V172.045H198.535V166.508Z" fill="#E6E6E6"/>
<path id="Vector_5" d="M198.637 263.64H94.6778V269.178H198.637V263.64Z" fill="#E6E6E6"/>
<path id="Vector_6" d="M198.535 282.796H94.6778V288.334H198.535V282.796Z" fill="#E6E6E6"/>
<g id="line">
<path id="Vector_7" d="M154.324 128.195H94.6778V133.733H154.324V128.195Z" fill="#1D91FF" data-opposite="#274DBB"/>
<path id="Vector_8" d="M154.324 244.484H94.6778V250.022H154.324V244.484Z" fill="#1D91FF" data-opposite="#274DBB"/>
<path id="Vector_9" d="M154.324 360.773H94.6778V366.31H154.324V360.773Z" fill="#1D91FF" data-opposite="#274DBB"/>
</g>
<path id="Vector_10" d="M198.637 379.929H94.6778V385.466H198.637V379.929Z" fill="#E6E6E6"/>
<path id="Vector_11" d="M198.535 399.085H94.6778V404.623H198.535V399.085Z" fill="#E6E6E6"/>
<g id="square">
<path id="Vector_12" d="M74.3167 128.277H46.0043C41.586 128.277 38.0043 131.859 38.0043 136.277V164.578C38.0043 168.996 41.586 172.578 46.0043 172.578H74.3167C78.735 172.578 82.3167 168.996 82.3167 164.578V136.277C82.3167 131.859 78.735 128.277 74.3167 128.277Z" fill="#884E88" data-opposite="#FF742E"/>
<path id="Vector_13" d="M74.3167 244.566H46.0043C41.586 244.566 38.0043 248.148 38.0043 252.566V280.867C38.0043 285.285 41.586 288.867 46.0043 288.867H74.3167C78.735 288.867 82.3167 285.285 82.3167 280.867V252.566C82.3167 248.148 78.735 244.566 74.3167 244.566Z" fill="#884E88" data-opposite="#FF742E"/>
<path id="Vector_14" d="M74.3167 360.855H46.0043C41.586 360.855 38.0043 364.437 38.0043 368.855V397.155C38.0043 401.574 41.586 405.155 46.0043 405.155H74.3167C78.735 405.155 82.3167 401.574 82.3167 397.155V368.855C82.3167 364.437 78.735 360.855 74.3167 360.855Z" fill="#884E88" data-opposite="#FF742E"/>
</g>
</g>
</svg>
