<svg width="391" height="283" viewBox="0 0 391 283" fill="none" xmlns="http://www.w3.org/2000/svg">
<g id="illust">
<path id="Vector" d="M389.063 261.032C388.568 259.131 388.072 257.203 387.081 255.549C386.162 254.145 385.069 252.878 383.831 251.783C380.239 248.322 375.824 244.809 371.063 245.686C369.586 246.028 368.16 246.579 366.822 247.324C366.128 247.666 365.43 248.007 364.716 248.296C362.706 249.186 360.485 249.392 358.359 248.884C357.269 248.574 356.254 248.018 355.178 247.671C354.666 247.509 354.143 247.39 353.613 247.314C354.651 246.816 355.66 246.253 356.635 245.628C361.981 242.125 366.247 235.823 365.648 229.153C365.449 226.894 364.716 224.736 363.993 222.609C363.359 220.75 362.723 218.889 362.085 217.026C361.263 214.605 360.415 212.142 358.909 210.13C357.235 207.893 354.856 206.375 352.399 205.241C347.117 202.809 341.345 201.953 335.647 201.123L335.251 201.065V135.815C335.254 135.261 335.154 134.712 334.956 134.199C334.759 133.687 334.467 133.22 334.099 132.827C333.73 132.434 333.292 132.123 332.81 131.91C332.327 131.697 331.81 131.587 331.287 131.587H323.791C323.461 129.445 323.13 127.304 322.8 125.164C321.854 119.067 320.878 112.849 318.227 107.355C316.493 103.757 313.728 100.333 310.007 99.6242C309.275 99.5517 308.555 99.3751 307.867 99.099C306.777 98.5317 306.182 97.2713 305.34 96.3364C303.18 93.9363 299.667 93.8995 296.768 92.6601C294.212 91.5834 292.121 89.5509 289.792 87.9911C287.464 86.4313 284.565 85.3179 281.984 86.3367C281.984 86.5363 281.949 86.7306 281.929 86.9302L280.274 86.1424C278.491 85.2706 276.667 84.3673 275.235 82.9282C273.392 81.0848 272.411 78.6532 271.648 76.0587C271.569 75.7856 271.495 75.5335 271.42 75.2446C274.587 71.8151 276.73 67.4733 277.584 62.7608C277.718 63.2177 277.856 63.6799 277.99 64.142C278.112 64.6119 278.278 65.0676 278.486 65.5023C278.555 65.646 278.632 65.7846 278.719 65.9172C278.882 66.175 279.087 66.4007 279.323 66.5842C279.558 66.7653 279.832 66.8793 280.121 66.9151C280.259 66.9358 280.399 66.9358 280.537 66.9151C280.911 66.8313 281.26 66.6494 281.55 66.3861C281.841 66.1228 282.065 65.7864 282.202 65.4078C282.281 65.2013 282.339 64.9865 282.375 64.767C282.394 64.6348 282.406 64.5016 282.41 64.3679C282.41 64.3259 282.41 64.2838 282.41 64.2418C282.41 64.1998 282.41 64.058 282.41 63.9687C282.41 63.8795 282.41 63.869 282.41 63.8217C282.41 63.7744 282.41 63.6431 282.41 63.5591V63.4225C282.41 63.3175 282.38 63.2125 282.36 63.1127C282.34 63.0129 282.36 63.0549 282.36 63.0286C282.335 62.8921 282.306 62.7608 282.281 62.6242C282.279 62.5945 282.279 62.5647 282.281 62.535L282.207 62.2041L282.162 62.0045V61.952C282.113 61.7472 282.068 61.5371 282.023 61.327C281.663 59.5025 281.571 57.63 281.751 55.7757C282.049 53.0557 282.523 50.3604 283.168 47.7087L283.272 47.2308L283.391 46.6741C283.47 46.296 283.544 45.9178 283.619 45.5397C283.683 45.2193 283.743 44.8937 283.797 44.5681C283.852 44.2425 283.891 43.9956 283.931 43.7068C283.931 43.67 283.931 43.6385 283.931 43.6017C284.234 41.6442 284.315 39.6555 284.174 37.6775C283.941 34.9308 283.138 32.3311 281.374 30.2566C280.131 28.7913 278.496 27.7094 277.341 26.1705C276.256 24.7263 275.647 22.9511 274.527 21.5383C271.43 17.6204 263.488 14.6005 258.613 14.0753C253.029 13.4766 244.006 14.9892 239.508 18.487C237.843 19.7789 236.703 21.6381 235.544 23.408C233.413 26.6957 230.991 29.9729 227.577 31.8111C226.284 32.5044 224.807 33.0296 223.95 34.2375C223.432 35.0564 223.094 35.9877 222.959 36.9633C222.301 40.3861 221.959 43.8689 221.939 47.3621C221.864 48.8901 222.049 50.4198 222.484 51.8788C222.553 52.0784 222.637 52.2832 222.726 52.4775C222.806 52.6508 222.895 52.8241 222.989 53.0027L223.048 53.113C223.646 54.0229 224.178 54.9797 224.639 55.9753C224.748 56.2558 224.828 56.5482 224.877 56.8471C224.962 57.6182 224.915 58.3993 224.738 59.1527C224.738 59.2682 224.698 59.3785 224.674 59.4888L224.629 59.7304C224.629 59.8039 224.629 59.8827 224.589 59.9563C224.55 60.1838 224.515 60.4097 224.485 60.6338C224.485 60.7913 224.455 60.9541 224.451 61.1169C224.415 61.7674 224.533 62.417 224.792 63.0076C224.858 63.1484 224.936 63.2821 225.025 63.4068C225.203 63.6586 225.431 63.865 225.694 64.0107C226.284 64.2459 226.9 64.4012 227.527 64.4729C229.38 64.9141 230.54 66.4161 231.293 68.2596C231.46 68.6733 231.607 69.0958 231.734 69.5253C232.043 70.6029 232.275 71.7037 232.428 72.8183C233.27 72.771 233.76 71.9832 234.058 71.1219C234.151 70.8379 234.228 70.5486 234.29 70.2553C234.404 69.7039 234.518 69.1524 234.637 68.601C236.593 72.9996 239.743 76.6791 243.684 79.1678C243.823 79.5985 243.957 80.0344 244.081 80.4756C244.73 82.8547 245.042 85.3494 243.917 87.4292C243.115 88.9049 241.762 89.8188 240.256 90.449C240.039 90.1404 239.76 89.8873 239.438 89.7085C238.13 89.0152 236.565 89.8608 235.475 90.8954C233.493 92.7966 231.878 95.5224 229.266 96.1474C228.325 96.3784 227.285 96.3312 226.497 96.9404C225.978 97.4576 225.544 98.0628 225.214 98.7313C224.647 99.5926 223.886 100.289 222.999 100.757C222.113 101.225 221.13 101.45 220.14 101.41C219.233 101.363 218.158 101.142 217.539 101.846C217.078 102.371 217.043 103.206 216.548 103.705C215.879 104.398 214.794 104.057 213.862 104.015C213.189 104.017 212.524 104.164 211.906 104.447C211.289 104.731 210.732 105.145 210.27 105.664C210.212 103.545 209.446 101.516 208.11 99.9393C206.772 98.4792 204.914 97.7282 203.329 96.5833C199.365 93.7262 197.383 88.7054 195.317 84.1047C193.251 79.504 190.526 74.6512 186.017 72.9758C184.982 72.5872 183.54 72.5557 183.074 73.6218C182.916 74.0668 182.89 74.5525 183 75.0136C183.436 77.461 185.081 79.4252 186.503 81.3947C188.896 84.7139 190.903 88.7736 190.323 92.9227C189.644 97.8332 185.517 101.646 185.022 106.578C184.804 108.752 185.324 110.937 185.319 113.122C185.319 114.487 185.116 115.868 185.393 117.197C185.688 118.207 186.037 119.197 186.439 120.164C186.885 121.751 187.115 123.398 187.122 125.054C187.472 132.015 187.821 138.977 188.168 145.941C188.43 151.135 187.36 156.261 186.28 161.371C184.941 164.4 183.901 167.568 183.178 170.825C181.96 176.513 181.925 182.573 183.674 188.109C184.61 191.118 186.047 193.938 186.815 197C186.815 197.069 186.845 197.132 186.86 197.195C186.934 197.846 187.018 198.497 187.132 199.143C187.273 199.89 187.457 200.626 187.682 201.349C187.907 202.594 188.273 203.805 188.772 204.957C189.467 206.42 190.487 207.682 191.745 208.633C191.032 210.114 189.877 211.307 189.109 212.756C187.771 215.267 187.717 218.349 188.202 221.196C189.139 226.69 191.938 231.6 195.634 235.592C195.469 235.581 195.304 235.581 195.139 235.592C193.93 235.733 192.769 236.174 191.75 236.878C183.927 241.726 179.453 252.109 181.088 261.615C181.41 263.474 181.97 265.354 183.139 266.767C184.112 267.892 185.364 268.705 186.751 269.115C187.617 269.391 188.509 269.567 189.411 269.64C195.511 270.165 201.416 267.166 207.53 266.914C209.558 266.88 211.585 266.98 213.6 267.213C216.543 267.473 219.493 267.637 222.449 267.707C227.25 267.828 229.955 266.473 233.022 262.665C233.776 261.72 234.404 260.671 234.89 259.546C237.496 259.388 240.375 259.146 242.461 258.963L242.49 259.273C242.604 260.323 242.778 261.531 243.57 262.198C244.018 262.519 244.525 262.738 245.057 262.839C250.066 264.146 255.135 265.465 260.287 265.465C262.707 265.411 265.122 265.213 267.521 264.871L276.588 263.763C279.227 264.123 281.831 264.724 284.372 265.559C286.988 266.504 289.435 267.907 291.992 269.01C297.938 271.567 304.339 272.481 310.676 273.374C311.756 273.526 312.995 273.631 313.797 272.849C314.828 271.798 314.481 270.039 314.194 268.568C314.075 267.97 313.986 267.361 313.911 266.751C318.189 267.943 322.373 269.483 326.427 271.357L327.14 271.688C327.343 272.833 328.344 273.752 329.3 274.986C329.614 275.506 329.982 275.987 330.395 276.42C330.867 276.75 331.405 276.956 331.966 277.024C338.662 278.346 345.499 278.673 352.28 277.996C353.667 277.796 355.07 277.745 356.467 277.843C357.492 277.991 358.504 278.233 359.489 278.568L365.226 280.307C369.453 281.593 373.788 282.891 378.173 282.602C379.063 282.54 379.948 282.405 380.819 282.197C384.287 281.346 387.522 279.288 389.187 275.979C391.422 271.478 390.337 265.948 389.063 261.032ZM220.774 178.886C220.598 181.164 220.037 183.389 219.119 185.457C218.505 186.775 217.712 187.988 217.138 189.311C216.592 190.509 216.186 192.773 215.943 195.257C215.646 195.204 215.344 195.157 215.047 195.12C215.488 193.482 215.82 191.801 216.261 190.157C217.306 186.25 219.025 182.558 220.774 178.886Z" fill="url(#paint0_linear)"/>
<path id="Vector_2" d="M228.409 259.661C227.364 257.14 226.373 254.241 227.418 251.72C228.101 250.236 229.273 249.068 230.713 248.438C232.138 247.822 233.64 247.429 235.172 247.272C239.981 246.603 244.846 246.533 249.67 247.062C250.021 250.013 249.278 253.007 248.639 255.859C248.059 258.485 247.727 258.873 245.171 259.01C243.516 259.105 228.801 260.591 228.409 259.661Z" fill="#FBBEBE"/>
<path id="Vector_3" d="M272.53 242.655C311.66 242.655 343.382 233.25 343.382 221.648C343.382 210.045 311.66 200.64 272.53 200.64C233.4 200.64 201.679 210.045 201.679 221.648C201.679 233.25 233.4 242.655 272.53 242.655Z" fill="#464353"/>
<path id="Vector_4" opacity="0.1" d="M272.53 242.655C311.66 242.655 343.382 233.25 343.382 221.648C343.382 210.045 311.66 200.64 272.53 200.64C233.4 200.64 201.679 210.045 201.679 221.648C201.679 233.25 233.4 242.655 272.53 242.655Z" fill="black"/>
<path id="Vector_5" d="M285.234 110.748C282.805 115.722 278.772 119.606 273.868 121.693C270.981 122.808 267.942 123.422 264.87 123.51C261.506 123.673 258.073 123.442 254.912 122.223C250.67 120.595 247.148 117.265 244.507 113.384C241.866 109.503 240.048 105.07 238.467 100.601C237.635 98.2744 236.842 95.7955 237.233 93.3376C239.785 92.7231 242.58 91.8197 243.897 89.4196C245.022 87.3608 244.71 84.8924 244.061 82.5396C243.878 81.8726 243.665 81.2108 243.452 80.5753C242.956 79.0523 241.247 76.1585 242.436 74.856C243.194 74.0314 246.37 73.6113 247.465 73.0756C250.839 71.4265 253.95 69.0421 257.657 68.2596C260.862 67.5821 264.172 68.2175 267.373 68.9213C267.797 68.9867 268.205 69.1421 268.572 69.3782C268.99 69.7517 269.299 70.2435 269.463 70.7962C270.375 73.1491 270.91 75.7488 271.643 78.2015C272.406 80.7697 273.387 83.1803 275.226 85.0027C276.658 86.426 278.481 87.3188 280.265 88.1854L284.654 90.3177C285.435 90.6276 286.143 91.1132 286.73 91.741C287.304 92.5774 287.647 93.5666 287.721 94.598C288.508 100.125 287.638 105.773 285.234 110.748Z" fill="#FBBEBE"/>
<path id="Vector_6" opacity="0.1" d="M271.624 78.2015C268.129 82.0545 263.528 84.5705 258.541 85.3555C253.553 86.1405 248.461 85.1502 244.061 82.5396C243.878 81.8726 243.665 81.2108 243.452 80.5753C242.956 79.0523 241.247 76.1585 242.436 74.856C243.194 74.0314 246.37 73.6113 247.465 73.0756C250.839 71.4265 253.95 69.0421 257.656 68.2596C260.862 67.5821 264.172 68.2175 267.373 68.9213C267.797 68.9867 268.205 69.1421 268.572 69.3782C268.99 69.7517 269.299 70.2435 269.463 70.7962C270.355 73.1491 270.89 75.7488 271.624 78.2015Z" fill="black"/>
<path id="Vector_7" d="M255.189 84.5721C267.776 84.5721 277.98 73.7558 277.98 60.4132C277.98 47.0706 267.776 36.2543 255.189 36.2543C242.602 36.2543 232.398 47.0706 232.398 60.4132C232.398 73.7558 242.602 84.5721 255.189 84.5721Z" fill="#FBBEBE"/>
<path id="Vector_8" d="M324.628 138.819L322.755 126.792C321.809 120.758 320.833 114.608 318.187 109.172C316.448 105.611 313.688 102.219 309.968 101.515C309.235 101.446 308.514 101.269 307.827 100.99C306.737 100.433 306.143 99.183 305.305 98.2587C303.145 95.8848 299.627 95.848 296.734 94.6401C294.177 93.5897 292.086 91.5677 289.758 90.0236C287.429 88.4796 284.53 87.3977 281.954 88.385C281.538 93.0855 281.097 97.891 279.214 102.171C277.989 104.958 276.191 107.419 273.953 109.374C271.715 111.33 269.093 112.73 266.278 113.473C263.464 114.216 260.529 114.283 257.687 113.669C254.845 113.055 252.168 111.775 249.853 109.923C245.438 106.399 242.609 100.963 241.291 95.2756C240.969 93.8891 240.603 92.2977 239.399 91.6622C238.096 90.969 236.53 91.8093 235.435 92.8282C233.428 94.7136 231.833 97.4131 229.227 98.0486C228.285 98.2797 227.245 98.2324 226.462 98.8364C225.942 99.3453 225.506 99.9437 225.174 100.606C224.604 101.46 223.842 102.151 222.957 102.615C222.072 103.079 221.092 103.302 220.105 103.264C219.199 103.217 218.123 102.996 217.504 103.694C217.043 104.22 217.009 105.039 216.513 105.527C215.844 106.215 214.759 105.879 213.828 105.842C212.064 105.764 210.424 106.961 209.413 108.468C208.402 109.976 207.927 111.84 207.431 113.647C212.847 126.43 217.801 139.229 223.217 152.012C223.471 152.494 223.605 153.036 223.608 153.588C223.5 154.161 223.269 154.699 222.934 155.163C220.279 159.685 220.363 165.373 220.655 170.688C220.948 176.003 221.304 181.617 219.065 186.381C218.455 187.689 217.663 188.886 217.083 190.194C215.725 193.156 215.235 202.63 216.028 205.813H328.002C325.867 199.59 326.68 187.1 327.125 180.494C327.438 175.872 326.63 171.255 326.283 166.634C325.555 157.196 326.1 148.241 324.628 138.819Z" fill="#274DBB"/>
<path id="Vector_9" d="M330.361 202.137C332.011 201.47 333.829 201.711 335.598 201.963C341.291 202.788 347.068 203.634 352.344 206.044C354.822 207.168 357.18 208.67 358.855 210.881C360.341 212.872 361.208 215.309 362.031 217.709L363.933 223.218C364.657 225.319 365.39 227.462 365.593 229.694C366.188 236.306 361.922 242.54 356.556 245.975C351.19 249.409 344.873 250.633 338.719 251.915C332.566 253.196 326.387 254.614 320.258 256.116C317.4 256.903 314.499 257.508 311.573 257.928C305.013 258.716 298.156 257.555 291.923 259.856C289.445 260.775 287.013 262.14 284.441 262.776C282.736 263.172 281.01 263.467 279.274 263.658L267.477 265.086C265.078 265.427 262.663 265.623 260.243 265.675C255.09 265.675 250.021 264.383 245.017 263.091C244.485 262.992 243.979 262.775 243.531 262.455C242.738 261.793 242.565 260.622 242.451 259.561C241.945 254.866 241.503 250.166 241.123 245.46C241.004 243.932 240.915 242.277 241.703 240.991C242.693 239.415 244.626 238.921 246.39 238.617C253.869 237.32 261.446 236.762 269.022 236.952C271.901 233.9 276.648 233.885 280.418 232.225C281.805 231.55 283.148 230.776 284.436 229.909C291.178 225.739 298.712 223.215 306.489 222.519C308.013 222.47 309.527 222.241 311.003 221.837C313.921 220.876 316.582 218.26 319.579 218.901C319.951 217.814 320.209 216.359 321.066 215.613C321.492 215.23 322.017 214.972 322.409 214.563C323.236 213.675 323.31 212.278 323.186 211.039C323.063 209.799 322.785 208.528 323.087 207.32C323.213 206.863 323.398 206.426 323.637 206.023C325.129 203.261 327.373 201.874 330.361 202.137Z" fill="#464353"/>
<path id="Vector_10" opacity="0.05" d="M330.361 202.137C332.011 201.47 333.829 201.711 335.598 201.963C341.291 202.788 347.068 203.634 352.344 206.044C354.822 207.168 357.18 208.67 358.855 210.881C360.341 212.872 361.208 215.309 362.031 217.709L363.933 223.218C364.657 225.319 365.39 227.462 365.593 229.694C366.188 236.306 361.922 242.54 356.556 245.975C351.19 249.409 344.873 250.633 338.719 251.915C332.566 253.196 326.387 254.614 320.258 256.116C317.4 256.903 314.499 257.508 311.573 257.928C305.013 258.716 298.156 257.555 291.923 259.856C289.445 260.775 287.013 262.14 284.441 262.776C282.736 263.172 281.01 263.467 279.274 263.658L267.477 265.086C265.078 265.427 262.663 265.623 260.243 265.675C255.09 265.675 250.021 264.383 245.017 263.091C244.485 262.992 243.979 262.775 243.531 262.455C242.738 261.793 242.565 260.622 242.451 259.561C241.945 254.866 241.503 250.166 241.123 245.46C241.004 243.932 240.915 242.277 241.703 240.991C242.693 239.415 244.626 238.921 246.39 238.617C253.869 237.32 261.446 236.762 269.022 236.952C271.901 233.9 276.648 233.885 280.418 232.225C281.805 231.55 283.148 230.776 284.436 229.909C291.178 225.739 298.712 223.215 306.489 222.519C308.013 222.47 309.527 222.241 311.003 221.837C313.921 220.876 316.582 218.26 319.579 218.901C319.951 217.814 320.209 216.359 321.066 215.613C321.492 215.23 322.017 214.972 322.409 214.563C323.236 213.675 323.31 212.278 323.186 211.039C323.063 209.799 322.785 208.528 323.087 207.32C323.213 206.863 323.398 206.426 323.637 206.023C325.129 203.261 327.373 201.874 330.361 202.137Z" fill="black"/>
<path id="Vector_11" d="M232.968 262.907C229.901 266.673 227.2 268.017 222.399 267.896C219.446 267.823 216.497 267.66 213.55 267.408C211.536 267.177 209.511 267.077 207.486 267.108C201.372 267.361 195.471 270.328 189.372 269.808C188.47 269.733 187.578 269.557 186.711 269.283C185.335 268.877 184.092 268.075 183.119 266.967C181.95 265.564 181.39 263.705 181.068 261.867C179.438 252.445 183.907 242.183 191.73 237.388C192.751 236.689 193.911 236.252 195.119 236.112C196.304 236.106 197.474 236.379 198.548 236.91L198.622 236.941C201.8 238.328 204.687 240.37 207.114 242.95C207.482 243.397 207.922 243.772 208.412 244.058C208.902 244.254 209.42 244.357 209.943 244.362L216.454 244.798C217.557 244.833 218.653 244.993 219.724 245.276C220.904 245.713 222.053 246.24 223.162 246.852C226.665 248.511 230.55 248.953 234.335 249.593C234.7 249.615 235.048 249.762 235.326 250.013C235.477 250.213 235.582 250.446 235.633 250.696C236.162 252.808 236.195 255.024 235.73 257.152C235.266 259.281 234.317 261.256 232.968 262.907Z" fill="#3F3D56" />
<path id="Vector_12" opacity="0.1" d="M198.602 236.941C196.076 239.498 193.885 242.402 192.087 245.576C189.201 250.813 187.388 256.636 186.766 262.665C186.529 264.865 186.511 267.084 186.711 269.288C185.335 268.88 184.091 268.077 183.119 266.967C181.95 265.564 181.39 263.705 181.068 261.867C179.438 252.445 183.907 242.183 191.73 237.388C192.751 236.689 193.911 236.252 195.119 236.112C196.303 236.106 197.474 236.379 198.548 236.91L198.602 236.941Z" fill="black"/>
<path id="Vector_13" d="M324.693 250.003C328.334 249.898 332.422 249.704 335.097 252.303C337.649 254.761 337.986 258.816 338.154 262.466L338.348 266.704C338.407 267.996 338.457 269.33 337.966 270.527C337.094 272.628 334.701 273.642 332.516 273.521C330.331 273.4 328.324 272.387 326.328 271.473C320.907 268.997 315.263 267.113 309.482 265.848C309.67 262.917 309.984 260.001 310.423 257.098C310.726 255.087 310.775 251.72 312.044 250.05C313.386 248.286 315.135 249.241 316.958 249.567C319.517 249.981 322.107 250.127 324.693 250.003Z" fill="#FBBEBE"/>
<path id="Vector_14" d="M228.464 207.42C228.464 207.945 227.686 207.42 227.617 206.858C227.072 202.609 223.891 199.106 220.185 197.405C216.479 195.703 212.257 195.614 208.244 196.018C202.175 196.627 195.387 199.091 193.142 205.104C192.617 206.512 192.379 208.035 191.735 209.384C191.022 210.865 189.857 212.047 189.084 213.486C187.752 215.976 187.697 219.027 188.178 221.842C189.471 229.352 194.316 235.775 200.188 240.224C206.059 244.672 212.921 247.33 219.763 249.725C237.856 256.05 256.419 260.749 275.255 263.774C278.307 264.262 281.389 264.714 284.312 265.754C286.928 266.683 289.376 268.075 291.933 269.167C297.878 271.699 304.275 272.602 310.612 273.49C311.692 273.637 312.93 273.742 313.728 272.964C314.759 271.951 314.417 270.186 314.124 268.731C313.048 263.205 313.947 257.451 316.646 252.587C317.707 250.696 319.084 248.758 318.886 246.568C318.648 244.016 316.25 242.209 313.862 241.799C311.474 241.39 309.046 241.994 306.648 242.325C305.82 242.44 304.919 242.514 304.171 242.067C303.814 241.812 303.491 241.508 303.209 241.164C301.557 239.475 299.443 238.383 297.17 238.047C294.896 237.71 292.581 238.145 290.555 239.289C289.668 239.814 288.326 238.643 287.404 238.202L276.994 233.197C265.024 227.456 252.994 221.69 240.33 218.055C239.32 217.845 238.359 217.422 237.506 216.811C236.877 216.286 236.426 215.571 235.846 214.988C234.583 213.723 232.824 213.218 231.308 212.32C229.792 211.422 228.107 209.222 228.464 207.42Z" fill="#464353"/>
<path id="Vector_15" d="M389.088 276.058C387.423 279.33 384.193 281.368 380.725 282.208C379.854 282.416 378.969 282.55 378.079 282.607C373.694 282.896 369.364 281.609 365.137 280.338L359.4 278.615C358.413 278.286 357.402 278.047 356.378 277.901C354.982 277.802 353.581 277.853 352.196 278.054C345.415 278.722 338.579 278.397 331.882 277.087C331.322 277.023 330.783 276.82 330.311 276.494C329.898 276.064 329.53 275.586 329.216 275.07C327.656 273.08 325.976 271.919 327.824 269.293C328.889 267.77 330.866 267.009 331.694 265.26C332.521 263.511 331.991 261.027 331.5 259.22C330.831 256.725 328.632 255.649 327.844 253.359C327.254 251.631 328.245 249.625 329.736 248.685C331.228 247.745 333.071 247.671 334.79 247.913C336.509 248.154 338.194 248.669 339.923 248.811C345.007 249.241 350.204 246.463 355.084 248.028C356.16 248.375 357.175 248.926 358.265 249.231C360.39 249.735 362.61 249.531 364.622 248.648C365.336 248.364 366.034 248.023 366.728 247.687C368.065 246.949 369.49 246.403 370.964 246.064C375.725 245.197 380.14 248.69 383.732 252.098C384.965 253.183 386.057 254.437 386.977 255.827C387.968 257.466 388.493 259.372 388.959 261.253C390.272 266.121 391.357 271.594 389.088 276.058Z" fill="#3F3D56" />
<path id="Vector_16" opacity="0.1" d="M389.088 276.058C387.423 279.33 384.193 281.368 380.725 282.208C382.074 279.429 382.682 276.313 382.483 273.196C382.186 268.201 380.115 263.495 377.474 259.346C375.85 256.792 374.002 254.406 371.955 252.219C370.379 250.539 368.442 249.205 366.748 247.666C368.085 246.928 369.51 246.382 370.984 246.043C375.745 245.176 380.16 248.669 383.752 252.077C384.985 253.162 386.076 254.416 386.997 255.806C387.988 257.445 388.513 259.351 388.979 261.232C390.272 266.121 391.357 271.594 389.088 276.058Z" fill="black"/>
<path id="Vector_17" d="M239.443 21.2022C237.778 22.4784 236.639 24.3113 235.48 26.0707C233.344 29.3217 230.926 32.5674 227.512 34.3793C226.219 35.0673 224.743 35.5872 223.886 36.7847C223.377 37.5945 223.047 38.5153 222.92 39.4789C222.266 42.867 221.924 46.3145 221.899 49.7727C221.899 51.4954 221.968 53.2705 222.687 54.8356C223.365 56.3061 224.589 57.5508 224.842 59.1527C225.035 60.4026 224.599 61.6474 224.446 62.9026C224.292 64.1578 224.56 65.6441 225.654 66.2428C226.244 66.4781 226.861 66.6316 227.488 66.6997C230.783 67.477 231.887 71.5735 232.388 74.961C233.508 74.8927 234.013 73.5325 234.246 72.4243L237.679 56.2431C238.051 54.489 238.67 52.4565 240.32 51.842C241.425 51.4376 242.634 51.8157 243.788 51.9208C248.322 52.3147 252.157 48.6015 256.591 47.5774C258.011 47.2755 259.462 47.1748 260.907 47.278C264.405 47.4619 268.472 48.9849 269.216 52.446C269.34 53.0079 269.414 53.6802 269.909 53.9585C270.405 54.2369 270.9 54.0005 271.445 53.9585C273.665 53.7222 274.973 56.3692 275.612 58.533L277.941 66.4109C278.288 67.6031 278.872 69.0053 280.091 69.1576C281.216 69.3047 282.172 68.1755 282.34 67.0569C282.509 65.9382 282.142 64.7775 281.899 63.6536C280.805 58.4804 282.479 53.1865 283.5 48.0028C284.52 42.8192 284.704 36.8635 281.28 32.872C280.037 31.4277 278.402 30.351 277.242 28.828C276.162 27.3995 275.553 25.6453 274.433 24.243C271.336 20.3724 263.394 17.384 258.524 16.8903C252.979 16.2443 243.942 17.7411 239.443 21.2022Z" fill="#3F3D56" />
<g id="Group" opacity="0.1">
<path id="Vector_18" opacity="0.1" d="M280.111 65.4761C278.892 65.3186 278.307 63.9005 277.961 62.7294C277.184 60.0999 276.408 57.4739 275.632 54.8515C274.993 52.6824 273.685 50.0354 271.465 50.277C270.97 50.3348 270.385 50.5501 269.929 50.277C269.473 50.0039 269.359 49.3264 269.235 48.7645C268.492 45.2982 264.424 43.7804 260.927 43.5966C259.482 43.496 258.031 43.5967 256.611 43.8959C252.152 44.9463 248.342 48.6227 243.808 48.2393C242.639 48.1395 241.43 47.7614 240.34 48.1658C238.67 48.775 238.071 50.7917 237.699 52.5669L234.266 68.7428C234.033 69.8562 233.527 71.2165 232.408 71.2795C231.912 67.8973 230.802 63.8008 227.508 63.0235C226.881 62.9503 226.266 62.7969 225.674 62.5665C225.243 62.317 224.906 61.9185 224.718 61.4374C224.629 61.9258 224.525 62.4142 224.465 62.9027C224.317 64.1526 224.579 65.6442 225.674 66.2429C226.264 66.4781 226.88 66.6317 227.508 66.6998C230.802 67.4771 231.907 71.5736 232.408 74.9611C233.527 74.8928 234.033 73.5326 234.266 72.4244L237.699 56.2432C238.071 54.4891 238.69 52.4566 240.34 51.8421C241.445 51.4377 242.654 51.8158 243.808 51.9209C248.342 52.3148 252.177 48.6017 256.611 47.5775C258.024 47.2775 259.469 47.1768 260.907 47.2782C264.405 47.462 268.472 48.9851 269.216 52.4461C269.34 53.008 269.414 53.6803 269.909 53.9586C270.405 54.237 270.9 54.0006 271.445 53.9586C273.665 53.7223 274.973 56.3693 275.612 58.5331C276.385 61.1625 277.161 63.7885 277.941 66.411C278.288 67.6031 278.872 69.0054 280.091 69.1577C281.216 69.3048 282.172 68.1756 282.34 67.0569C282.417 66.1157 282.316 65.1677 282.043 64.2682C281.867 64.6471 281.59 64.9633 281.247 65.1778C280.904 65.3924 280.509 65.4961 280.111 65.4761Z" fill="black"/>
<path id="Vector_19" opacity="0.1" d="M224.847 55.4763C224.594 53.8745 223.361 52.6298 222.692 51.1592C222.262 50.1674 222.013 49.0981 221.958 48.0081C221.958 48.5963 221.909 49.1845 221.904 49.778C221.904 51.5006 221.973 53.2757 222.692 54.8408C223.242 56.033 224.148 57.0834 224.604 58.2966C224.844 57.3797 224.927 56.4242 224.847 55.4763Z" fill="black"/>
<path id="Vector_20" opacity="0.1" d="M283.52 44.3002C282.618 48.8799 281.211 53.5437 281.647 58.1339C281.929 54.7464 282.861 51.3378 283.52 47.9766C284.069 45.4258 284.262 42.8035 284.094 40.1932C283.987 41.574 283.795 42.9458 283.52 44.3002Z" fill="black"/>
</g>
<path id="Vector_21" d="M226.799 162.033C226.2 172.463 218.981 181.082 216.231 191.113C215.547 193.623 215.136 196.228 214.155 198.618C212.173 203.423 208.095 206.911 203.75 209.369C202.165 210.34 200.431 211.008 198.627 211.343C196.644 211.589 194.638 211.188 192.876 210.195C191.113 209.201 189.678 207.662 188.762 205.782C187.628 203.339 187.469 200.53 186.78 197.904C186.013 194.873 184.576 192.079 183.639 189.101C181.915 183.624 181.95 177.626 183.144 171.996C184.275 167.1 186.066 162.402 188.46 158.047C188.807 157.401 189.159 156.76 189.52 156.124C190.542 154.287 191.69 152.532 192.954 150.873C195.927 147.075 199.747 144.155 203.527 141.277C203.816 141.025 204.155 140.846 204.518 140.752H204.578C205.004 140.736 205.426 140.841 205.801 141.057C211.044 143.459 216.076 146.349 220.839 149.691C222.543 150.894 225.233 152.238 226.125 154.286C227.017 156.335 226.928 159.806 226.799 162.033Z" fill="#FBBEBE"/>
<path id="Vector_22" d="M207.129 114.035C206.647 114.571 206.272 115.205 206.029 115.9C202.024 125.468 199.659 135.715 199.043 146.162C199.054 146.671 198.943 147.175 198.721 147.627C198.502 147.928 198.258 148.207 197.993 148.462C197.752 148.765 197.572 149.117 197.464 149.497C197.356 149.877 197.323 150.276 197.367 150.67C197.411 151.063 197.53 151.444 197.718 151.787C197.906 152.129 198.158 152.428 198.459 152.663C199.276 151.03 201.233 150.5 202.972 150.358C211.301 149.659 219.436 153.766 227.79 153.456C227.2 151.298 226.353 149.223 225.873 147.039C223.747 137.338 229.048 126.777 225.798 117.433C225.149 115.564 224.064 113.726 222.355 112.906C221.647 112.603 220.906 112.395 220.15 112.287C218.039 111.882 213.838 110.154 211.796 110.848C211.043 111.105 210.746 111.856 210.122 112.308C209.195 112.954 207.937 113.179 207.129 114.035Z" fill="#274DBB"/>
<path id="Vector_23" opacity="0.1" d="M210.543 200.876C209.269 203.167 207.46 205.071 205.291 206.406C203.121 207.74 200.664 208.46 198.156 208.497C196.799 208.535 195.449 208.272 194.193 207.725C191.027 206.244 189.238 202.578 188.574 198.975C187.91 195.372 188.118 191.654 187.648 188.014C187.271 185.115 186.468 182.3 186.052 179.406C185.031 172.248 187.043 165.179 188.475 158.052C188.822 157.406 189.174 156.765 189.535 156.13C190.557 154.293 191.705 152.537 192.969 150.878C195.942 147.081 199.762 144.161 203.542 141.283H199.578C199.674 141.208 199.787 141.162 199.905 141.148C200.023 141.134 200.142 141.154 200.251 141.204C200.36 141.255 200.455 141.335 200.525 141.436C200.596 141.537 200.64 141.656 200.653 141.782C201.045 145.458 205.935 149.134 207 152.706C207.659 154.901 208.452 157.054 208.982 159.291C209.4 161.197 209.718 163.126 209.933 165.069C210.637 170.506 211.337 175.933 212.034 181.35C212.911 187.962 213.664 195.11 210.543 200.876Z" fill="black"/>
<path id="Vector_24" d="M203.983 131.918L208.764 116.021C209.478 113.642 210.201 111.226 210.285 108.726C210.369 106.226 209.75 103.605 208.1 101.82C206.763 100.375 204.91 99.6295 203.324 98.5003C199.36 95.6695 197.378 90.7117 195.312 86.1478C193.246 81.5838 190.526 76.8098 186.017 75.1187C184.977 74.73 183.54 74.6985 183.074 75.7542C182.913 76.193 182.887 76.6747 183 77.1302C183.436 79.5566 185.076 81.4945 186.503 83.4325C188.896 86.715 190.898 90.7327 190.323 94.8397C189.639 99.703 185.517 103.474 185.022 108.363C184.804 110.517 185.324 112.675 185.319 114.844C185.319 116.189 185.111 117.56 185.393 118.873C185.686 119.888 186.035 120.884 186.439 121.856C186.88 123.426 187.11 125.054 187.122 126.693L188.168 147.364C188.733 158.546 183.01 169.422 184.586 180.452C185.002 183.345 185.804 186.16 186.181 189.059C186.676 192.699 186.444 196.412 187.107 200.02C187.771 203.628 189.585 207.289 192.726 208.77C193.982 209.317 195.332 209.58 196.69 209.542C199.198 209.506 201.655 208.785 203.824 207.451C205.994 206.116 207.802 204.212 209.076 201.921C212.198 196.144 211.445 189.007 210.592 182.421L208.492 166.14C208.276 164.197 207.958 162.268 207.54 160.363C207.015 158.126 206.222 155.972 205.559 153.777C203.433 146.598 201.843 139.051 203.983 131.918Z" fill="#FBBEBE"/>
<path id="Vector_25" d="M331.258 133.153H228.667C226.486 133.153 224.718 135.027 224.718 137.338V203.544C224.718 205.856 226.486 207.73 228.667 207.73H331.258C333.438 207.73 335.206 205.856 335.206 203.544V137.338C335.206 135.027 333.438 133.153 331.258 133.153Z" fill="#3F3D56" />
<path id="Vector_26" opacity="0.2" d="M331.258 133.153H228.667C226.486 133.153 224.718 135.027 224.718 137.338V203.544C224.718 205.856 226.486 207.73 228.667 207.73H331.258C333.438 207.73 335.206 205.856 335.206 203.544V137.338C335.206 135.027 333.438 133.153 331.258 133.153Z" fill="black"/>
<path id="Vector_27" d="M279.715 173.592C281.356 173.592 282.687 172.182 282.687 170.441C282.687 168.701 281.356 167.29 279.715 167.29C278.073 167.29 276.742 168.701 276.742 170.441C276.742 172.182 278.073 173.592 279.715 173.592Z" fill="white"/>
<path id="Vector_28" d="M151.117 238.722C152.477 238.722 153.579 237.553 153.579 236.112C153.579 234.67 152.477 233.501 151.117 233.501C149.757 233.501 148.655 234.67 148.655 236.112C148.655 237.553 149.757 238.722 151.117 238.722Z" fill="#3F3D56" />
<path id="Vector_29" d="M151.117 235.46C152.477 235.46 153.579 234.292 153.579 232.85C153.579 231.408 152.477 230.24 151.117 230.24C149.757 230.24 148.655 231.408 148.655 232.85C148.655 234.292 149.757 235.46 151.117 235.46Z" fill="#3F3D56" />
<path id="Vector_30" d="M151.117 206.102C152.477 206.102 153.579 204.933 153.579 203.492C153.579 202.05 152.477 200.882 151.117 200.882C149.757 200.882 148.655 202.05 148.655 203.492C148.655 204.933 149.757 206.102 151.117 206.102Z" fill="#3F3D56" />
<g id="branchess">
<path id="Vector_31" d="M149.343 231.542H155.343C158.628 231.542 161.779 232.926 164.102 235.388C166.425 237.85 167.73 241.19 167.73 244.672V264.162H136.957V244.672C136.957 241.19 138.262 237.85 140.585 235.388C142.908 232.926 146.058 231.542 149.343 231.542Z" fill="#3F3D56" />
<g id="Group 3">
<path id="Vector_32" d="M151.117 232.199C152.477 232.199 153.579 231.03 153.579 229.589C153.579 228.147 152.477 226.978 151.117 226.978C149.757 226.978 148.655 228.147 148.655 229.589C148.655 231.03 149.757 232.199 151.117 232.199Z" fill="#3F3D56"  data-opposite="#FF742E" />
<path id="Vector_33" d="M151.117 228.937C152.477 228.937 153.579 227.769 153.579 226.327C153.579 224.886 152.477 223.717 151.117 223.717C149.757 223.717 148.655 224.886 148.655 226.327C148.655 227.769 149.757 228.937 151.117 228.937Z" fill="#3F3D56"  data-opposite="#FF742E" />
<path id="Vector_34" d="M151.117 225.676C152.477 225.676 153.579 224.507 153.579 223.066C153.579 221.624 152.477 220.456 151.117 220.456C149.757 220.456 148.655 221.624 148.655 223.066C148.655 224.507 149.757 225.676 151.117 225.676Z" fill="#3F3D56"  data-opposite="#FF742E" />
<path id="Vector_35" d="M151.117 222.414C152.477 222.414 153.579 221.246 153.579 219.804C153.579 218.363 152.477 217.194 151.117 217.194C149.757 217.194 148.655 218.363 148.655 219.804C148.655 221.246 149.757 222.414 151.117 222.414Z" fill="#3F3D56"  data-opposite="#FF742E" />
<path id="Vector_36" d="M151.117 219.153C152.477 219.153 153.579 217.984 153.579 216.543C153.579 215.101 152.477 213.933 151.117 213.933C149.757 213.933 148.655 215.101 148.655 216.543C148.655 217.984 149.757 219.153 151.117 219.153Z" fill="#3F3D56"  data-opposite="#FF742E" />
<path id="Vector_37" d="M154.808 220.456C156.168 220.456 157.271 219.287 157.271 217.845C157.271 216.404 156.168 215.235 154.808 215.235C153.448 215.235 152.346 216.404 152.346 217.845C152.346 219.287 153.448 220.456 154.808 220.456Z" fill="#3F3D56"  data-opposite="#FF742E" />
<path id="Vector_38" d="M157.271 219.153C158.631 219.153 159.733 217.984 159.733 216.543C159.733 215.101 158.631 213.933 157.271 213.933C155.911 213.933 154.808 215.101 154.808 216.543C154.808 217.984 155.911 219.153 157.271 219.153Z" fill="#3F3D56"  data-opposite="#FF742E" />
<path id="Vector_39" d="M159.733 217.845C161.093 217.845 162.196 216.677 162.196 215.235C162.196 213.794 161.093 212.625 159.733 212.625C158.373 212.625 157.271 213.794 157.271 215.235C157.271 216.677 158.373 217.845 159.733 217.845Z" fill="#3F3D56"  data-opposite="#FF742E" />
<path id="Vector_40" d="M151.117 215.886C152.477 215.886 153.579 214.718 153.579 213.276C153.579 211.835 152.477 210.666 151.117 210.666C149.757 210.666 148.655 211.835 148.655 213.276C148.655 214.718 149.757 215.886 151.117 215.886Z" fill="#3F3D56"  data-opposite="#FF742E" />
<path id="Vector_41" d="M151.117 212.625C152.477 212.625 153.579 211.456 153.579 210.015C153.579 208.573 152.477 207.404 151.117 207.404C149.757 207.404 148.655 208.573 148.655 210.015C148.655 211.456 149.757 212.625 151.117 212.625Z" fill="#3F3D56"  data-opposite="#FF742E" />
<path id="Vector_42" d="M151.117 209.363C152.477 209.363 153.579 208.195 153.579 206.753C153.579 205.312 152.477 204.143 151.117 204.143C149.757 204.143 148.655 205.312 148.655 206.753C148.655 208.195 149.757 209.363 151.117 209.363Z" fill="#3F3D56"  data-opposite="#FF742E" />
<path id="Vector_43" d="M147.421 220.456C148.781 220.456 149.883 219.287 149.883 217.845C149.883 216.404 148.781 215.235 147.421 215.235C146.061 215.235 144.958 216.404 144.958 217.845C144.958 219.287 146.061 220.456 147.421 220.456Z" fill="#3F3D56"  data-opposite="#FF742E" />
<path id="Vector_44" d="M144.958 219.153C146.318 219.153 147.421 217.984 147.421 216.543C147.421 215.101 146.318 213.933 144.958 213.933C143.598 213.933 142.496 215.101 142.496 216.543C142.496 217.984 143.598 219.153 144.958 219.153Z" fill="#3F3D56"  data-opposite="#FF742E" />
<path id="Vector_45" d="M142.496 217.845C143.856 217.845 144.958 216.677 144.958 215.235C144.958 213.794 143.856 212.625 142.496 212.625C141.136 212.625 140.034 213.794 140.034 215.235C140.034 216.677 141.136 217.845 142.496 217.845Z" fill="#3F3D56"  data-opposite="#FF742E" />
</g>
</g>
<g id="leaves">
<path id="Vector_46" d="M161.319 195.073C160.709 195.167 160.095 195.236 159.48 195.278C160.052 194.75 160.582 194.173 161.066 193.555C160.723 192.459 160.222 191.426 159.58 190.493C158.969 190.857 158.294 191.082 157.598 191.155C156.988 191.25 156.374 191.323 155.76 191.365C156.585 190.532 157.371 189.656 158.113 188.739C156.332 187.041 154.054 186.043 151.662 185.912C149.269 185.781 146.907 186.524 144.97 188.019C143.033 189.513 141.639 191.668 141.021 194.121C140.404 196.575 140.6 199.179 141.577 201.498C142.554 203.816 144.252 205.709 146.388 206.859C148.524 208.009 150.968 208.346 153.311 207.814C155.654 207.283 157.753 205.914 159.257 203.938C160.762 201.962 161.581 199.498 161.576 196.958C161.576 196.319 161.523 195.681 161.418 195.052L161.319 195.073Z" fill="#1D91FF" data-opposite="#FF742E"/>
<path id="Vector_47" d="M169.548 208.04C168.919 208.448 168.211 208.699 167.477 208.775C166.868 208.87 166.253 208.938 165.639 208.98C166.292 208.359 166.901 207.689 167.462 206.974C165.978 206.563 164.402 206.755 163.043 207.511C161.685 208.266 160.641 209.532 160.116 211.06C159.591 212.588 159.622 214.269 160.204 215.774C160.786 217.279 161.877 218.499 163.263 219.197C164.648 219.895 166.23 220.02 167.698 219.547C169.166 219.075 170.415 218.039 171.201 216.642C171.987 215.245 172.253 213.588 171.947 211.994C171.642 210.401 170.786 208.985 169.548 208.024V208.04Z" fill="#1D91FF" data-opposite="#FF742E"/>
<path id="Vector_48" d="M132.681 208.04C133.309 208.449 134.018 208.7 134.752 208.775C135.361 208.87 135.976 208.938 136.59 208.98C135.936 208.361 135.326 207.69 134.767 206.974C136.251 206.563 137.827 206.755 139.186 207.511C140.544 208.266 141.588 209.532 142.113 211.06C142.638 212.588 142.607 214.269 142.025 215.774C141.443 217.279 140.352 218.499 138.967 219.197C137.581 219.895 135.999 220.02 134.531 219.547C133.063 219.075 131.814 218.039 131.028 216.642C130.242 215.245 129.976 213.588 130.282 211.994C130.587 210.401 131.443 208.985 132.681 208.024V208.04Z" fill="#1D91FF" data-opposite="#FF742E"/>
</g>
<path id="pot" d="M149.343 233.501H155.343C158.628 233.501 161.779 234.885 164.102 237.347C166.425 239.809 167.73 243.149 167.73 246.631V263.894C167.73 264.485 167.509 265.051 167.115 265.469C166.721 265.887 166.186 266.121 165.629 266.121H139.057C138.5 266.121 137.966 265.887 137.572 265.469C137.178 265.051 136.957 264.485 136.957 263.894V246.631C136.957 243.149 138.262 239.809 140.585 237.347C142.908 234.885 146.058 233.501 149.343 233.501Z" fill="#ADDDFA" data-opposite="#274DBB"/>
<g id="Group_2" opacity="0.1">
<path id="Vector_49" opacity="0.1" d="M161.507 195.787C161.258 196.069 160.993 196.336 160.714 196.585C160.997 196.585 161.274 196.538 161.556 196.507C161.547 196.265 161.532 196.023 161.507 195.787Z" fill="black"/>
<path id="Vector_50" opacity="0.1" d="M157.018 192.667C157.637 192.625 158.247 192.557 158.861 192.463C159.412 192.389 159.951 192.233 160.462 192C160.211 191.475 159.923 190.972 159.599 190.493C159.291 190.692 158.957 190.842 158.609 190.94C158.123 191.56 157.591 192.137 157.018 192.667Z" fill="black"/>
<path id="Vector_51" opacity="0.1" d="M141.882 198.271C141.878 196.28 142.381 194.325 143.338 192.611C144.294 190.898 145.669 189.489 147.318 188.534C148.966 187.58 150.827 187.114 152.704 187.186C154.581 187.258 156.405 187.865 157.984 188.944L158.143 188.765C157.112 187.793 155.911 187.047 154.607 186.57C153.303 186.093 151.923 185.893 150.547 185.984C149.17 186.074 147.824 186.453 146.586 187.097C145.348 187.742 144.242 188.639 143.333 189.739C142.423 190.838 141.728 192.117 141.288 193.502C140.847 194.888 140.669 196.352 140.764 197.811C140.86 199.269 141.226 200.693 141.843 202.001C142.46 203.309 143.315 204.474 144.359 205.43C142.757 203.432 141.878 200.894 141.882 198.271Z" fill="black"/>
</g>
<g id="Group_3" opacity="0.1">
<path id="Vector_52" opacity="0.1" d="M165.639 210.282C166.253 210.24 166.868 210.172 167.477 210.078C168.212 210.004 168.92 209.753 169.548 209.342C170.244 209.885 170.824 210.578 171.251 211.374C171.678 212.17 171.942 213.053 172.026 213.964C172.05 213.736 172.061 213.506 172.06 213.276C172.065 212.256 171.843 211.249 171.413 210.337C170.982 209.424 170.356 208.632 169.583 208.024C168.954 208.432 168.246 208.684 167.512 208.759L167.016 208.822C166.594 209.346 166.133 209.834 165.639 210.282Z" fill="black"/>
<path id="Vector_53" opacity="0.1" d="M165.887 208.056C166.092 208.058 166.297 208.074 166.501 208.103C166.823 207.741 167.14 207.352 167.462 206.974C166.552 206.716 165.597 206.684 164.672 206.88C163.748 207.076 162.878 207.494 162.131 208.104C161.384 208.713 160.779 209.496 160.363 210.393C159.947 211.29 159.732 212.277 159.733 213.276C159.733 213.497 159.733 213.712 159.763 213.927C159.915 212.318 160.626 210.826 161.758 209.741C162.889 208.656 164.361 208.055 165.887 208.056Z" fill="black"/>
</g>
<g id="Group_4" opacity="0.1">
<path id="Vector_54" opacity="0.1" d="M136.59 210.282C135.976 210.24 135.361 210.172 134.752 210.078C134.017 210.005 133.308 209.754 132.681 209.342C131.985 209.885 131.405 210.578 130.978 211.374C130.552 212.17 130.288 213.053 130.204 213.964C130.18 213.736 130.168 213.506 130.169 213.276C130.164 212.256 130.386 211.249 130.816 210.337C131.247 209.424 131.874 208.632 132.646 208.024C133.275 208.433 133.983 208.685 134.717 208.759L135.213 208.822C135.633 209.349 136.094 209.837 136.59 210.282Z" fill="black"/>
<path id="Vector_55" opacity="0.1" d="M136.342 208.056C136.135 208.058 135.928 208.074 135.723 208.103C135.406 207.741 135.089 207.352 134.767 206.974C135.678 206.716 136.632 206.684 137.557 206.88C138.481 207.076 139.351 207.494 140.098 208.104C140.845 208.713 141.45 209.496 141.866 210.393C142.282 211.29 142.498 212.277 142.496 213.276C142.496 213.497 142.496 213.712 142.466 213.927C142.314 212.318 141.603 210.826 140.471 209.741C139.34 208.656 137.868 208.055 136.342 208.056Z" fill="black"/>
</g>
<path id="progress-bar" d="M118.868 5H5V51.2171H118.868V5Z" fill="#884E88" data-opposite="#FF742E"/>
<path id="Vector_56" d="M182.871 5H10.9456C7.66192 5 5 7.82165 5 11.3023V44.9147C5 48.3954 7.66192 51.2171 10.9456 51.2171H182.871C186.155 51.2171 188.817 48.3954 188.817 44.9147V11.3023C188.817 7.82165 186.155 5 182.871 5Z" stroke="#3F3D56" stroke-width="9" stroke-miterlimit="10"/>
<path id="Vector_57" d="M105.708 25.6349C105.346 23.7017 104.426 21.9357 103.075 20.5812C101.724 19.2267 100.01 18.3507 98.1689 18.0744C96.328 17.7981 94.4515 18.1351 92.7992 19.0389C91.147 19.9428 89.8005 21.3686 88.9463 23.1192C87.1168 23.3238 85.4313 24.2655 84.2382 25.7498C83.045 27.2342 82.4354 29.1476 82.5353 31.0948C82.6351 33.042 83.4369 34.8741 84.7748 36.2126C86.1127 37.5511 87.8845 38.2936 89.7242 38.2868H105.292C106.882 38.2826 108.406 37.6092 109.528 36.4147C110.651 35.2201 111.279 33.6021 111.277 31.9162C111.283 30.3126 110.709 28.7676 109.673 27.5991C108.637 26.4306 107.218 25.7276 105.708 25.6349ZM98.8258 29.3795V34.2008H94.991V29.3795H90.9232L96.9084 23.0299L102.894 29.3795H98.8258Z" fill="white"/>
</g>
<defs>
<linearGradient id="paint0_linear" x1="285.591" y1="282.644" x2="285.591" y2="13.9283" gradientUnits="userSpaceOnUse">
<stop stop-color="#808080" stop-opacity="0.25"/>
<stop offset="0.54" stop-color="#808080" stop-opacity="0.12"/>
<stop offset="1" stop-color="#808080" stop-opacity="0.1"/>
</linearGradient>
</defs>
</svg>
