<svg width="146" height="54" viewBox="0 0 146 54" fill="none" xmlns="http://www.w3.org/2000/svg" class="logo">
<g id="logo">
<g id="text">
<path d="M82.27 19.119C81.4426 19.119 80.6946 18.9773 80.026 18.694C79.3686 18.4107 78.8473 18.0027 78.462 17.47C78.0766 16.9373 77.8783 16.3083 77.867 15.583H80.417C80.451 16.0703 80.621 16.4557 80.927 16.739C81.2443 17.0223 81.675 17.164 82.219 17.164C82.7743 17.164 83.2106 17.0337 83.528 16.773C83.8453 16.501 84.004 16.1497 84.004 15.719C84.004 15.3677 83.8963 15.0787 83.681 14.852C83.4656 14.6253 83.1936 14.4497 82.865 14.325C82.5476 14.189 82.1056 14.0417 81.539 13.883C80.7683 13.6563 80.1393 13.4353 79.652 13.22C79.176 12.9933 78.7623 12.659 78.411 12.217C78.071 11.7637 77.901 11.163 77.901 10.415C77.901 9.71233 78.0766 9.10033 78.428 8.579C78.7793 8.05767 79.2723 7.661 79.907 7.389C80.5416 7.10567 81.267 6.964 82.083 6.964C83.307 6.964 84.2986 7.26433 85.058 7.865C85.8286 8.45433 86.2536 9.28167 86.333 10.347H83.715C83.6923 9.939 83.5166 9.60467 83.188 9.344C82.8706 9.072 82.4456 8.936 81.913 8.936C81.4483 8.936 81.0743 9.055 80.791 9.293C80.519 9.531 80.383 9.87667 80.383 10.33C80.383 10.6473 80.485 10.9137 80.689 11.129C80.9043 11.333 81.165 11.503 81.471 11.639C81.7883 11.7637 82.2303 11.911 82.797 12.081C83.5676 12.3077 84.1966 12.5343 84.684 12.761C85.1713 12.9877 85.5906 13.3277 85.942 13.781C86.2933 14.2343 86.469 14.8293 86.469 15.566C86.469 16.2007 86.3046 16.79 85.976 17.334C85.6473 17.878 85.1656 18.3143 84.531 18.643C83.8963 18.9603 83.1426 19.119 82.27 19.119ZM93.8363 9.446C94.5503 9.446 95.185 9.60467 95.7403 9.922C96.2957 10.228 96.7263 10.687 97.0323 11.299C97.3497 11.8997 97.5083 12.625 97.5083 13.475V19H95.1283V13.798C95.1283 13.05 94.9413 12.4777 94.5673 12.081C94.1933 11.673 93.6833 11.469 93.0373 11.469C92.38 11.469 91.8587 11.673 91.4733 12.081C91.0993 12.4777 90.9123 13.05 90.9123 13.798V19H88.5323V6.42H90.9123V10.755C91.2183 10.347 91.6263 10.0297 92.1363 9.803C92.6463 9.565 93.213 9.446 93.8363 9.446ZM99.1596 14.257C99.1596 13.305 99.3466 12.4607 99.7206 11.724C100.106 10.9873 100.622 10.4207 101.268 10.024C101.925 9.62733 102.656 9.429 103.461 9.429C104.163 9.429 104.775 9.57067 105.297 9.854C105.829 10.1373 106.254 10.4943 106.572 10.925V9.582H108.969V19H106.572V17.623C106.266 18.065 105.841 18.4333 105.297 18.728C104.764 19.0113 104.146 19.153 103.444 19.153C102.65 19.153 101.925 18.949 101.268 18.541C100.622 18.133 100.106 17.5607 99.7206 16.824C99.3466 16.076 99.1596 15.2203 99.1596 14.257ZM106.572 14.291C106.572 13.713 106.458 13.22 106.232 12.812C106.005 12.3927 105.699 12.0753 105.314 11.86C104.928 11.6333 104.515 11.52 104.073 11.52C103.631 11.52 103.223 11.6277 102.849 11.843C102.475 12.0583 102.169 12.3757 101.931 12.795C101.704 13.203 101.591 13.6903 101.591 14.257C101.591 14.8237 101.704 15.3223 101.931 15.753C102.169 16.1723 102.475 16.4953 102.849 16.722C103.234 16.9487 103.642 17.062 104.073 17.062C104.515 17.062 104.928 16.9543 105.314 16.739C105.699 16.5123 106.005 16.195 106.232 15.787C106.458 15.3677 106.572 14.869 106.572 14.291ZM113.673 11.044C113.979 10.5453 114.376 10.1543 114.863 9.871C115.362 9.58767 115.928 9.446 116.563 9.446V11.945H115.934C115.186 11.945 114.619 12.1207 114.234 12.472C113.86 12.8233 113.673 13.4353 113.673 14.308V19H111.293V9.582H113.673V11.044ZM126.921 14.087C126.921 14.427 126.898 14.733 126.853 15.005H119.968C120.025 15.685 120.263 16.2177 120.682 16.603C121.101 16.9883 121.617 17.181 122.229 17.181C123.113 17.181 123.742 16.8013 124.116 16.042H126.683C126.411 16.9487 125.89 17.6967 125.119 18.286C124.348 18.864 123.402 19.153 122.28 19.153C121.373 19.153 120.557 18.9547 119.832 18.558C119.118 18.15 118.557 17.5777 118.149 16.841C117.752 16.1043 117.554 15.2543 117.554 14.291C117.554 13.3163 117.752 12.4607 118.149 11.724C118.546 10.9873 119.101 10.4207 119.815 10.024C120.529 9.62733 121.351 9.429 122.28 9.429C123.175 9.429 123.974 9.62167 124.677 10.007C125.391 10.3923 125.941 10.942 126.326 11.656C126.723 12.3587 126.921 13.169 126.921 14.087ZM124.456 13.407C124.445 12.795 124.224 12.3077 123.793 11.945C123.362 11.571 122.835 11.384 122.212 11.384C121.623 11.384 121.124 11.5653 120.716 11.928C120.319 12.2793 120.076 12.7723 119.985 13.407H124.456ZM80.553 43.113H84.463V45H78.173V33.134H80.553V43.113ZM94.7307 40.087C94.7307 40.427 94.708 40.733 94.6627 41.005H87.7777C87.8344 41.685 88.0724 42.2177 88.4917 42.603C88.911 42.9883 89.4267 43.181 90.0387 43.181C90.9227 43.181 91.5517 42.8013 91.9257 42.042H94.4927C94.2207 42.9487 93.6994 43.6967 92.9287 44.286C92.158 44.864 91.2117 45.153 90.0897 45.153C89.183 45.153 88.367 44.9547 87.6417 44.558C86.9277 44.15 86.3667 43.5777 85.9587 42.841C85.562 42.1043 85.3637 41.2543 85.3637 40.291C85.3637 39.3163 85.562 38.4607 85.9587 37.724C86.3554 36.9873 86.9107 36.4207 87.6247 36.024C88.3387 35.6273 89.1604 35.429 90.0897 35.429C90.985 35.429 91.784 35.6217 92.4867 36.007C93.2007 36.3923 93.7504 36.942 94.1357 37.656C94.5324 38.3587 94.7307 39.169 94.7307 40.087ZM92.2657 39.407C92.2544 38.795 92.0334 38.3077 91.6027 37.945C91.172 37.571 90.645 37.384 90.0217 37.384C89.4324 37.384 88.9337 37.5653 88.5257 37.928C88.129 38.2793 87.8854 38.7723 87.7947 39.407H92.2657ZM95.8559 40.257C95.8559 39.305 96.0429 38.4607 96.4169 37.724C96.8022 36.9873 97.3179 36.4207 97.9639 36.024C98.6212 35.6273 99.3522 35.429 100.157 35.429C100.86 35.429 101.472 35.5707 101.993 35.854C102.526 36.1373 102.951 36.4943 103.268 36.925V35.582H105.665V45H103.268V43.623C102.962 44.065 102.537 44.4333 101.993 44.728C101.46 45.0113 100.843 45.153 100.14 45.153C99.3466 45.153 98.6212 44.949 97.9639 44.541C97.3179 44.133 96.8022 43.5607 96.4169 42.824C96.0429 42.076 95.8559 41.2203 95.8559 40.257ZM103.268 40.291C103.268 39.713 103.155 39.22 102.928 38.812C102.701 38.3927 102.395 38.0753 102.01 37.86C101.625 37.6333 101.211 37.52 100.769 37.52C100.327 37.52 99.9189 37.6277 99.5449 37.843C99.1709 38.0583 98.8649 38.3757 98.6269 38.795C98.4002 39.203 98.2869 39.6903 98.2869 40.257C98.2869 40.8237 98.4002 41.3223 98.6269 41.753C98.8649 42.1723 99.1709 42.4953 99.5449 42.722C99.9302 42.9487 100.338 43.062 100.769 43.062C101.211 43.062 101.625 42.9543 102.01 42.739C102.395 42.5123 102.701 42.195 102.928 41.787C103.155 41.3677 103.268 40.869 103.268 40.291ZM110.369 37.044C110.675 36.5453 111.072 36.1543 111.559 35.871C112.058 35.5877 112.625 35.446 113.259 35.446V37.945H112.63C111.882 37.945 111.316 38.1207 110.93 38.472C110.556 38.8233 110.369 39.4353 110.369 40.308V45H107.989V35.582H110.369V37.044ZM120.081 35.446C121.203 35.446 122.11 35.803 122.801 36.517C123.493 37.2197 123.838 38.2057 123.838 39.475V45H121.458V39.798C121.458 39.05 121.271 38.4777 120.897 38.081C120.523 37.673 120.013 37.469 119.367 37.469C118.71 37.469 118.189 37.673 117.803 38.081C117.429 38.4777 117.242 39.05 117.242 39.798V45H114.862V35.582H117.242V36.755C117.56 36.347 117.962 36.0297 118.449 35.803C118.948 35.565 119.492 35.446 120.081 35.446Z" fill="#FFFFFF" data-opposite="#000000" data-sticky-dark="#FFFFFF" data-sticky-light="#FFFFFF"/>
<path d="M143.266 19H140.359L135.497 11.639V19H132.59V7.066H135.497L140.359 14.461V7.066H143.266V19Z" fill="#1D91FF" data-opposite="#274DBB" data-sticky-dark="rgba(0, 255, 255, 0.7)" data-sticky-light="#FFFFFF"/>
</g>
<g id="icon-upload">
<rect id="up-arrow" x="18.3638" y="12.1819" width="29.8412" height="32.1367" fill="white" data-sticky-dark="#884E88" data-sticky-light="#FF742E" data-opposite="white"/>
<path id="cloud" d="M53.2164 20.5705C52.385 16.133 50.273 12.0791 47.1727 8.9699C44.0723 5.86066 40.1369 3.84976 35.911 3.21551C31.6852 2.58127 27.3778 3.35504 23.585 5.42971C19.7922 7.50438 16.7015 10.7774 14.7407 14.7958C10.541 15.2654 6.67209 17.4272 3.93326 20.8344C1.19444 24.2416 -0.204932 28.6339 0.0243009 33.1037C0.253534 37.5734 2.09385 41.779 5.16499 44.8515C8.23613 47.9239 12.3034 49.6284 16.5263 49.6126H52.261C55.9119 49.6031 59.4097 48.0574 61.986 45.3153C64.5622 42.5732 66.0059 38.859 65.9999 34.9891C66.0144 31.3082 64.697 27.7615 62.3189 25.0793C59.9408 22.397 56.6831 20.7833 53.2164 20.5705ZM37.4189 29.1662V40.2333H28.616V29.1662H19.2786L33.0175 14.5908L46.7563 29.1662H37.4189Z" fill="#884E88" data-opposite="#FF742E" data-sticky-dark="#FFFFFF" data-sticky-light="#FFFFFF"/>
</g>
</g>
</svg>
